M48
; DRILL file {KiCad 8.0.7} date 2025-03-02T11:56:55-0500
; FORMAT={-:-/ absolute / inch / decimal}
; #@! TF.CreationDate,2025-03-02T11:56:55-05:00
; #@! TF.GenerationSoftware,Kicad,Pcbnew,8.0.7
; #@! TF.FileFunction,Plated,1,2,PTH
FMAT,2
INCH
; #@! TA.AperFunction,Plated,PTH,ViaDrill
T1C0.0118
; #@! TA.AperFunction,Plated,PTH,ComponentDrill
T2C0.0300
; #@! TA.AperFunction,Plated,PTH,ComponentDrill
T3C0.0307
; #@! TA.AperFunction,Plated,PTH,ComponentDrill
T4C0.0394
; #@! TA.AperFunction,Plated,PTH,ComponentDrill
T5C0.0400
; #@! TA.AperFunction,Plated,PTH,ComponentDrill
T6C0.0433
; #@! TA.AperFunction,Plated,PTH,ComponentDrill
T7C0.0472
; #@! TA.AperFunction,Plated,PTH,ComponentDrill
T8C0.0728
; #@! TA.AperFunction,Plated,PTH,ComponentDrill
T9C0.2402
%
G90
G05
T1
X1.1614Y-4.9606
X1.5748Y-3.3268
X1.5748Y-3.7992
X1.9685Y-4.7638
X2.1063Y-3.878
X2.3031Y-4.9213
X2.4409Y-3.3661
X2.5787Y-4.4685
X2.6969Y-5.1969
X2.7854Y-3.8386
X2.7854Y-4.1043
X2.8346Y-4.6457
X2.9331Y-4.1535
X3.0512Y-5.2165
X3.1496Y-4.311
X3.4252Y-4.3307
T2
X2.6713Y-4.7441
X2.7713Y-4.7441
X3.0713Y-4.7441
X3.2713Y-4.7441
T3
X5.4551Y-4.6638
X5.4551Y-4.7638
X5.4551Y-4.8638
X5.4551Y-4.9638
X5.7677Y-4.6638
X5.7677Y-4.7638
X5.7677Y-4.8638
X5.7677Y-4.9638
T4
X3.5827Y-5.3346
X3.5827Y-5.4346
X3.6827Y-5.3346
X3.6827Y-5.4346
X3.7827Y-5.3346
X3.7827Y-5.4346
X3.8827Y-5.3346
X3.8827Y-5.4346
T5
X1.1198Y-5.3254
X1.1198Y-5.5254
X1.1198Y-5.6254
X1.1198Y-5.7254
X1.1198Y-5.9254
X1.1198Y-6.0254
X1.1198Y-6.1254
X1.1198Y-6.2254
X1.1198Y-6.3254
X1.1198Y-6.5254
X1.1198Y-6.6254
X1.1198Y-6.7254
X1.1198Y-6.8254
X1.1198Y-6.9254
X1.1198Y-7.1254
X1.2198Y-5.3254
X1.2198Y-7.1254
X1.3198Y-5.3254
X1.3198Y-7.1254
X1.5198Y-5.3254
X1.5198Y-5.4254
X1.5198Y-7.0254
X1.5198Y-7.1254
X1.6198Y-5.3254
X1.6198Y-5.4254
X1.6198Y-7.0254
X1.6198Y-7.1254
X1.7198Y-5.3254
X1.7198Y-5.4254
X1.7198Y-7.0254
X1.7198Y-7.1254
X1.8198Y-5.3254
X1.8198Y-5.4254
X1.8198Y-7.0254
X1.8198Y-7.1254
X1.9198Y-5.3254
X1.9198Y-5.4254
X1.9198Y-7.0254
X1.9198Y-7.1254
X2.0198Y-5.3254
X2.0198Y-5.4254
X2.0198Y-7.0254
X2.0198Y-7.1254
X2.1198Y-5.3254
X2.1198Y-5.4254
X2.1198Y-7.0254
X2.1198Y-7.1254
X2.2198Y-5.3254
X2.2198Y-5.4254
X2.2198Y-7.0254
X2.2198Y-7.1254
X2.3198Y-5.3254
X2.3198Y-5.4254
X2.3198Y-7.0254
X2.3198Y-7.1254
X2.4198Y-5.3254
X2.4198Y-5.4254
X2.4198Y-7.0254
X2.4198Y-7.1254
X4.0198Y-5.3254
X4.0198Y-5.4254
X4.0198Y-7.0254
X4.0198Y-7.1254
X4.1198Y-5.3254
X4.1198Y-5.4254
X4.1198Y-7.0254
X4.1198Y-7.1254
X4.2198Y-5.3254
X4.2198Y-5.4254
X4.2198Y-7.0254
X4.2198Y-7.1254
X4.3198Y-5.3254
X4.3198Y-5.4254
X4.3198Y-7.0254
X4.3198Y-7.1254
X4.4198Y-5.3254
X4.4198Y-5.4254
X4.4198Y-7.0254
X4.4198Y-7.1254
X4.5198Y-5.3254
X4.5198Y-5.4254
X4.5198Y-7.0254
X4.5198Y-7.1254
X4.6198Y-5.3254
X4.6198Y-5.4254
X4.6198Y-7.0254
X4.6198Y-7.1254
X4.7198Y-5.3254
X4.7198Y-5.4254
X4.7198Y-7.0254
X4.7198Y-7.1254
X4.8198Y-5.3254
X4.8198Y-5.4254
X4.8198Y-7.0254
X4.8198Y-7.1254
X4.9198Y-5.3254
X4.9198Y-5.4254
X4.9198Y-7.0254
X4.9198Y-7.1254
T6
X1.8267Y-3.7205
X1.9267Y-3.7205
X2.0267Y-3.7205
T7
X1.9882Y-2.7756
X2.2835Y-2.7756
T8
X2.787Y-3.1299
X3.937Y-3.1299
X4.1494Y-4.1732
X5.2994Y-4.1732
T9
X1.122Y-2.7362
X1.122Y-3.3661
X1.122Y-3.9961
X6.122Y-2.8839
X6.122Y-3.5138
M30
