%TF.GenerationSoftware,KiCad,Pcbnew,8.0.7*%
%TF.CreationDate,2025-03-06T09:08:54-05:00*%
%TF.ProjectId,Buck_PCB,4275636b-5f50-4434-922e-6b696361645f,v1*%
%TF.SameCoordinates,Original*%
%TF.FileFunction,Plated,1,2,PTH,Drill*%
%TF.FilePolarity,Positive*%
%FSLAX46Y46*%
G04 Gerber Fmt 4.6, Leading zero omitted, Abs format (unit mm)*
G04 Created by KiCad (PCBNEW 8.0.7) date 2025-03-06 09:08:54*
%MOMM*%
%LPD*%
G01*
G04 APERTURE LIST*
%TA.AperFunction,ViaDrill*%
%ADD10C,0.300000*%
%TD*%
%TA.AperFunction,ComponentDrill*%
%ADD11C,0.762000*%
%TD*%
%TA.AperFunction,ComponentDrill*%
%ADD12C,0.780000*%
%TD*%
%TA.AperFunction,ComponentDrill*%
%ADD13C,1.000000*%
%TD*%
%TA.AperFunction,ComponentDrill*%
%ADD14C,1.016000*%
%TD*%
%TA.AperFunction,ComponentDrill*%
%ADD15C,1.100000*%
%TD*%
%TA.AperFunction,ComponentDrill*%
%ADD16C,1.200000*%
%TD*%
%TA.AperFunction,ComponentDrill*%
%ADD17C,1.850000*%
%TD*%
%TA.AperFunction,ComponentDrill*%
%ADD18C,6.100000*%
%TD*%
G04 APERTURE END LIST*
D10*
X29500000Y-126000000D03*
X40000000Y-84500000D03*
X40000000Y-96500000D03*
X50000000Y-121000000D03*
X53500000Y-98500000D03*
X58500000Y-125000000D03*
X62000000Y-85500000D03*
X65500000Y-113500000D03*
X68500000Y-132000000D03*
X70750000Y-97500000D03*
X70750000Y-104250000D03*
X72000000Y-118000000D03*
X74500000Y-105500000D03*
X77500000Y-132500000D03*
X80000000Y-109500000D03*
X87000000Y-110000000D03*
D11*
%TO.C,U4*%
X67850000Y-120500000D03*
X70390000Y-120500000D03*
X78010000Y-120500000D03*
X83090000Y-120500000D03*
D12*
%TO.C,U1*%
X138560000Y-118460000D03*
X138560000Y-121000000D03*
X138560000Y-123540000D03*
X138560000Y-126080000D03*
X146500000Y-118460000D03*
X146500000Y-121000000D03*
X146500000Y-123540000D03*
X146500000Y-126080000D03*
D13*
%TO.C,U2*%
X91000000Y-135500000D03*
X91000000Y-138040000D03*
X93540000Y-135500000D03*
X93540000Y-138040000D03*
X96080000Y-135500000D03*
X96080000Y-138040000D03*
X98620000Y-135500000D03*
X98620000Y-138040000D03*
D14*
X28444000Y-135266000D03*
X28444000Y-140346000D03*
X28444000Y-142886000D03*
X28444000Y-145426000D03*
X28444000Y-150506000D03*
X28444000Y-153046000D03*
X28444000Y-155586000D03*
X28444000Y-158126000D03*
X28444000Y-160666000D03*
X28444000Y-165746000D03*
X28444000Y-168286000D03*
X28444000Y-170826000D03*
X28444000Y-173366000D03*
X28444000Y-175906000D03*
X28444000Y-180986000D03*
X30984000Y-135266000D03*
X30984000Y-180986000D03*
X33524000Y-135266000D03*
X33524000Y-180986000D03*
X38604000Y-135266000D03*
X38604000Y-137806000D03*
X38604000Y-178446000D03*
X38604000Y-180986000D03*
X41144000Y-135266000D03*
X41144000Y-137806000D03*
X41144000Y-178446000D03*
X41144000Y-180986000D03*
X43684000Y-135266000D03*
X43684000Y-137806000D03*
X43684000Y-178446000D03*
X43684000Y-180986000D03*
X46224000Y-135266000D03*
X46224000Y-137806000D03*
X46224000Y-178446000D03*
X46224000Y-180986000D03*
X48764000Y-135266000D03*
X48764000Y-137806000D03*
X48764000Y-178446000D03*
X48764000Y-180986000D03*
X51304000Y-135266000D03*
X51304000Y-137806000D03*
X51304000Y-178446000D03*
X51304000Y-180986000D03*
X53844000Y-135266000D03*
X53844000Y-137806000D03*
X53844000Y-178446000D03*
X53844000Y-180986000D03*
X56384000Y-135266000D03*
X56384000Y-137806000D03*
X56384000Y-178446000D03*
X56384000Y-180986000D03*
X58924000Y-135266000D03*
X58924000Y-137806000D03*
X58924000Y-178446000D03*
X58924000Y-180986000D03*
X61464000Y-135266000D03*
X61464000Y-137806000D03*
X61464000Y-178446000D03*
X61464000Y-180986000D03*
X102104000Y-135266000D03*
X102104000Y-137806000D03*
X102104000Y-178446000D03*
X102104000Y-180986000D03*
X104644000Y-135266000D03*
X104644000Y-137806000D03*
X104644000Y-178446000D03*
X104644000Y-180986000D03*
X107184000Y-135266000D03*
X107184000Y-137806000D03*
X107184000Y-178446000D03*
X107184000Y-180986000D03*
X109724000Y-135266000D03*
X109724000Y-137806000D03*
X109724000Y-178446000D03*
X109724000Y-180986000D03*
X112264000Y-135266000D03*
X112264000Y-137806000D03*
X112264000Y-178446000D03*
X112264000Y-180986000D03*
X114804000Y-135266000D03*
X114804000Y-137806000D03*
X114804000Y-178446000D03*
X114804000Y-180986000D03*
X117344000Y-135266000D03*
X117344000Y-137806000D03*
X117344000Y-178446000D03*
X117344000Y-180986000D03*
X119884000Y-135266000D03*
X119884000Y-137806000D03*
X119884000Y-178446000D03*
X119884000Y-180986000D03*
X122424000Y-135266000D03*
X122424000Y-137806000D03*
X122424000Y-178446000D03*
X122424000Y-180986000D03*
X124964000Y-135266000D03*
X124964000Y-137806000D03*
X124964000Y-178446000D03*
X124964000Y-180986000D03*
D15*
%TO.C,Q1*%
X46397780Y-94500000D03*
X48937780Y-94500000D03*
X51477780Y-94500000D03*
D16*
%TO.C,C3*%
X50500000Y-70500000D03*
X58000000Y-70500000D03*
D17*
%TO.C,L1*%
X70790000Y-79500000D03*
X100000000Y-79500000D03*
%TO.C,L2*%
X105395000Y-106000000D03*
X134605000Y-106000000D03*
D18*
%TO.C,J3*%
X28500000Y-69500000D03*
%TO.C,J1*%
X28500000Y-85500000D03*
%TO.C,J5*%
X28500000Y-101500000D03*
%TO.C,J4*%
X155500000Y-73250000D03*
%TO.C,J2*%
X155500000Y-89250000D03*
M02*
