%TF.GenerationSoftware,KiCad,Pcbnew,8.0.7*%
%TF.CreationDate,2025-03-02T11:56:15-05:00*%
%TF.ProjectId,Buck_PCB,4275636b-5f50-4434-922e-6b696361645f,v1*%
%TF.SameCoordinates,Original*%
%TF.FileFunction,Soldermask,Top*%
%TF.FilePolarity,Negative*%
%FSLAX46Y46*%
G04 Gerber Fmt 4.6, Leading zero omitted, Abs format (unit mm)*
G04 Created by KiCad (PCBNEW 8.0.7) date 2025-03-02 11:56:15*
%MOMM*%
%LPD*%
G01*
G04 APERTURE LIST*
G04 Aperture macros list*
%AMRoundRect*
0 Rectangle with rounded corners*
0 $1 Rounding radius*
0 $2 $3 $4 $5 $6 $7 $8 $9 X,Y pos of 4 corners*
0 Add a 4 corners polygon primitive as box body*
4,1,4,$2,$3,$4,$5,$6,$7,$8,$9,$2,$3,0*
0 Add four circle primitives for the rounded corners*
1,1,$1+$1,$2,$3*
1,1,$1+$1,$4,$5*
1,1,$1+$1,$6,$7*
1,1,$1+$1,$8,$9*
0 Add four rect primitives between the rounded corners*
20,1,$1+$1,$2,$3,$4,$5,0*
20,1,$1+$1,$4,$5,$6,$7,0*
20,1,$1+$1,$6,$7,$8,$9,0*
20,1,$1+$1,$8,$9,$2,$3,0*%
G04 Aperture macros list end*
%ADD10RoundRect,0.250001X-0.624999X0.462499X-0.624999X-0.462499X0.624999X-0.462499X0.624999X0.462499X0*%
%ADD11RoundRect,0.250000X-0.475000X0.337500X-0.475000X-0.337500X0.475000X-0.337500X0.475000X0.337500X0*%
%ADD12C,10.160000*%
%ADD13RoundRect,0.250000X0.475000X-0.337500X0.475000X0.337500X-0.475000X0.337500X-0.475000X-0.337500X0*%
%ADD14C,3.004000*%
%ADD15RoundRect,0.250000X-0.400000X-0.625000X0.400000X-0.625000X0.400000X0.625000X-0.400000X0.625000X0*%
%ADD16RoundRect,0.250000X0.350000X0.450000X-0.350000X0.450000X-0.350000X-0.450000X0.350000X-0.450000X0*%
%ADD17RoundRect,0.250000X-0.350000X-0.450000X0.350000X-0.450000X0.350000X0.450000X-0.350000X0.450000X0*%
%ADD18R,1.905000X2.000000*%
%ADD19O,1.905000X2.000000*%
%ADD20RoundRect,0.250000X-0.450000X0.350000X-0.450000X-0.350000X0.450000X-0.350000X0.450000X0.350000X0*%
%ADD21RoundRect,0.250000X-0.650000X0.412500X-0.650000X-0.412500X0.650000X-0.412500X0.650000X0.412500X0*%
%ADD22R,1.397000X0.508000*%
%ADD23RoundRect,0.250000X0.450000X-0.350000X0.450000X0.350000X-0.450000X0.350000X-0.450000X-0.350000X0*%
%ADD24RoundRect,0.250000X0.650000X-1.500000X0.650000X1.500000X-0.650000X1.500000X-0.650000X-1.500000X0*%
%ADD25R,2.400000X2.400000*%
%ADD26C,2.400000*%
%ADD27RoundRect,0.250000X-0.337500X-0.475000X0.337500X-0.475000X0.337500X0.475000X-0.337500X0.475000X0*%
%ADD28C,2.700000*%
%ADD29C,3.175000*%
%ADD30RoundRect,0.102000X0.939800X0.939800X-0.939800X0.939800X-0.939800X-0.939800X0.939800X-0.939800X0*%
%ADD31C,2.083600*%
%ADD32RoundRect,0.102000X0.762000X0.762000X-0.762000X0.762000X-0.762000X-0.762000X0.762000X-0.762000X0*%
%ADD33C,1.728000*%
%ADD34RoundRect,0.102000X0.750000X0.750000X-0.750000X0.750000X-0.750000X-0.750000X0.750000X-0.750000X0*%
%ADD35C,1.704000*%
%ADD36RoundRect,0.250000X0.337500X0.475000X-0.337500X0.475000X-0.337500X-0.475000X0.337500X-0.475000X0*%
%ADD37R,1.270000X1.270000*%
%ADD38C,1.270000*%
%ADD39RoundRect,0.102000X0.565000X0.565000X-0.565000X0.565000X-0.565000X-0.565000X0.565000X-0.565000X0*%
%ADD40C,1.334000*%
%ADD41RoundRect,0.250000X-0.650000X1.500000X-0.650000X-1.500000X0.650000X-1.500000X0.650000X1.500000X0*%
G04 APERTURE END LIST*
D10*
%TO.C,D7*%
X43000000Y-118512500D03*
X43000000Y-121487500D03*
%TD*%
D11*
%TO.C,C5*%
X134500000Y-123962500D03*
X134500000Y-126037500D03*
%TD*%
D10*
%TO.C,D6*%
X38000000Y-118512500D03*
X38000000Y-121487500D03*
%TD*%
D12*
%TO.C,J5*%
X28500000Y-101500000D03*
%TD*%
D13*
%TO.C,C8*%
X62500000Y-112537500D03*
X62500000Y-110462500D03*
%TD*%
D14*
%TO.C,L1*%
X70790000Y-79500000D03*
X100000000Y-79500000D03*
%TD*%
D15*
%TO.C,R11*%
X93950000Y-107500000D03*
X97050000Y-107500000D03*
%TD*%
D16*
%TO.C,R3*%
X152500000Y-117000000D03*
X150500000Y-117000000D03*
%TD*%
D17*
%TO.C,R9*%
X91000000Y-112000000D03*
X93000000Y-112000000D03*
%TD*%
D18*
%TO.C,Q1*%
X46397780Y-94500000D03*
D19*
X48937780Y-94500000D03*
X51477780Y-94500000D03*
%TD*%
D13*
%TO.C,C11*%
X85500000Y-107537500D03*
X85500000Y-105462500D03*
%TD*%
D20*
%TO.C,R8*%
X58500000Y-105500000D03*
X58500000Y-107500000D03*
%TD*%
D17*
%TO.C,R4*%
X150500000Y-113500000D03*
X152500000Y-113500000D03*
%TD*%
D10*
%TO.C,D3*%
X25500000Y-118512500D03*
X25500000Y-121487500D03*
%TD*%
D20*
%TO.C,R12*%
X38000000Y-113500000D03*
X38000000Y-115500000D03*
%TD*%
D21*
%TO.C,C2*%
X147500000Y-100937500D03*
X147500000Y-104062500D03*
%TD*%
D22*
%TO.C,U3*%
X66332000Y-107595000D03*
X66332000Y-108865000D03*
X66332000Y-110135000D03*
X66332000Y-111405000D03*
X77000000Y-111405000D03*
X77000000Y-110135000D03*
X77000000Y-108865000D03*
X77000000Y-107595000D03*
%TD*%
D23*
%TO.C,R6*%
X29500000Y-115500000D03*
X29500000Y-113500000D03*
%TD*%
D24*
%TO.C,D1*%
X62000000Y-94500000D03*
X62000000Y-89500000D03*
%TD*%
D13*
%TO.C,C12*%
X89500000Y-107537500D03*
X89500000Y-105462500D03*
%TD*%
D23*
%TO.C,R5*%
X25500000Y-115500000D03*
X25500000Y-113500000D03*
%TD*%
D20*
%TO.C,R10*%
X87000000Y-111500000D03*
X87000000Y-113500000D03*
%TD*%
D25*
%TO.C,C3*%
X50500000Y-70500000D03*
D26*
X58000000Y-70500000D03*
%TD*%
D20*
%TO.C,R1*%
X154000000Y-124000000D03*
X154000000Y-126000000D03*
%TD*%
D23*
%TO.C,R2*%
X150500000Y-126000000D03*
X150500000Y-124000000D03*
%TD*%
D10*
%TO.C,D4*%
X29500000Y-118512500D03*
X29500000Y-121487500D03*
%TD*%
D20*
%TO.C,R13*%
X43000000Y-113500000D03*
X43000000Y-115500000D03*
%TD*%
D13*
%TO.C,C10*%
X81500000Y-107537500D03*
X81500000Y-105462500D03*
%TD*%
D27*
%TO.C,C7*%
X77962500Y-116452500D03*
X80037500Y-116452500D03*
%TD*%
D12*
%TO.C,J2*%
X155500000Y-89250000D03*
%TD*%
D28*
%TO.C,REF\u002A\u002A*%
X160000000Y-62000000D03*
%TD*%
D29*
%TO.C,U2*%
X154174000Y-184796000D03*
X154174000Y-131456000D03*
X29714000Y-184796000D03*
X29714000Y-131456000D03*
D30*
X124964000Y-135266000D03*
D31*
X122424000Y-135266000D03*
X119884000Y-135266000D03*
X117344000Y-135266000D03*
X114804000Y-135266000D03*
X112264000Y-135266000D03*
X109724000Y-135266000D03*
X107184000Y-135266000D03*
X104644000Y-135266000D03*
X102104000Y-135266000D03*
D30*
X102104000Y-180986000D03*
D31*
X104644000Y-180986000D03*
X107184000Y-180986000D03*
X109724000Y-180986000D03*
X112264000Y-180986000D03*
X114804000Y-180986000D03*
X117344000Y-180986000D03*
X119884000Y-180986000D03*
X122424000Y-180986000D03*
X124964000Y-180986000D03*
D30*
X124964000Y-137806000D03*
D31*
X122424000Y-137806000D03*
X119884000Y-137806000D03*
X117344000Y-137806000D03*
X114804000Y-137806000D03*
X112264000Y-137806000D03*
X109724000Y-137806000D03*
X107184000Y-137806000D03*
X104644000Y-137806000D03*
X102104000Y-137806000D03*
D30*
X102104000Y-178446000D03*
D31*
X104644000Y-178446000D03*
X107184000Y-178446000D03*
X109724000Y-178446000D03*
X112264000Y-178446000D03*
X114804000Y-178446000D03*
X117344000Y-178446000D03*
X119884000Y-178446000D03*
X122424000Y-178446000D03*
X124964000Y-178446000D03*
D30*
X61464000Y-135266000D03*
D31*
X58924000Y-135266000D03*
X56384000Y-135266000D03*
X53844000Y-135266000D03*
X51304000Y-135266000D03*
X48764000Y-135266000D03*
X46224000Y-135266000D03*
X43684000Y-135266000D03*
X41144000Y-135266000D03*
X38604000Y-135266000D03*
D30*
X38604000Y-180986000D03*
D31*
X41144000Y-180986000D03*
X43684000Y-180986000D03*
X46224000Y-180986000D03*
X48764000Y-180986000D03*
X51304000Y-180986000D03*
X53844000Y-180986000D03*
X56384000Y-180986000D03*
X58924000Y-180986000D03*
X61464000Y-180986000D03*
D30*
X61464000Y-137806000D03*
D31*
X58924000Y-137806000D03*
X56384000Y-137806000D03*
X53844000Y-137806000D03*
X51304000Y-137806000D03*
X48764000Y-137806000D03*
X46224000Y-137806000D03*
X43684000Y-137806000D03*
X41144000Y-137806000D03*
X38604000Y-137806000D03*
D30*
X38604000Y-178446000D03*
D31*
X41144000Y-178446000D03*
X43684000Y-178446000D03*
X46224000Y-178446000D03*
X48764000Y-178446000D03*
X51304000Y-178446000D03*
X53844000Y-178446000D03*
X56384000Y-178446000D03*
X58924000Y-178446000D03*
X61464000Y-178446000D03*
D32*
X28444000Y-180986000D03*
D33*
X30984000Y-180986000D03*
X33524000Y-180986000D03*
D32*
X28444000Y-145426000D03*
D33*
X28444000Y-142886000D03*
X28444000Y-140346000D03*
D32*
X28444000Y-175906000D03*
D33*
X28444000Y-173366000D03*
X28444000Y-170826000D03*
X28444000Y-168286000D03*
X28444000Y-165746000D03*
D32*
X28444000Y-160666000D03*
D33*
X28444000Y-158126000D03*
X28444000Y-155586000D03*
X28444000Y-153046000D03*
X28444000Y-150506000D03*
D32*
X28444000Y-135266000D03*
D33*
X30984000Y-135266000D03*
X33524000Y-135266000D03*
D34*
X98620000Y-138040000D03*
D35*
X98620000Y-135500000D03*
X96080000Y-138040000D03*
X96080000Y-135500000D03*
X93540000Y-138040000D03*
X93540000Y-135500000D03*
X91000000Y-138040000D03*
X91000000Y-135500000D03*
%TD*%
D12*
%TO.C,J3*%
X28500000Y-69500000D03*
%TD*%
D36*
%TO.C,C6*%
X69585000Y-116452500D03*
X67510000Y-116452500D03*
%TD*%
D10*
%TO.C,D5*%
X33500000Y-118512500D03*
X33500000Y-121487500D03*
%TD*%
D12*
%TO.C,J4*%
X155500000Y-73250000D03*
%TD*%
D37*
%TO.C,U4*%
X67850000Y-120500000D03*
D38*
X70390000Y-120500000D03*
X78010000Y-120500000D03*
X83090000Y-120500000D03*
%TD*%
D13*
%TO.C,C9*%
X62500000Y-107537500D03*
X62500000Y-105462500D03*
%TD*%
D39*
%TO.C,U1*%
X146500000Y-126080000D03*
D40*
X146500000Y-123540000D03*
X146500000Y-121000000D03*
X146500000Y-118460000D03*
X138560000Y-118460000D03*
X138560000Y-121000000D03*
X138560000Y-123540000D03*
X138560000Y-126080000D03*
%TD*%
D12*
%TO.C,J1*%
X28500000Y-85500000D03*
%TD*%
D28*
%TO.C,REF\u002A\u002A*%
X160000000Y-184500000D03*
%TD*%
%TO.C,REF\u002A\u002A*%
X23500000Y-62000000D03*
%TD*%
D27*
%TO.C,C1*%
X150462500Y-120500000D03*
X152537500Y-120500000D03*
%TD*%
D28*
%TO.C,REF\u002A\u002A*%
X23500000Y-184500000D03*
%TD*%
D27*
%TO.C,C4*%
X48940280Y-98500000D03*
X51015280Y-98500000D03*
%TD*%
D41*
%TO.C,D2*%
X93000000Y-116500000D03*
X93000000Y-121500000D03*
%TD*%
D14*
%TO.C,L2*%
X105395000Y-106000000D03*
X134605000Y-106000000D03*
%TD*%
D23*
%TO.C,R7*%
X33500000Y-115500000D03*
X33500000Y-113500000D03*
%TD*%
M02*
