%TF.GenerationSoftware,KiCad,Pcbnew,8.0.7*%
%TF.CreationDate,2025-03-02T11:56:15-05:00*%
%TF.ProjectId,Buck_PCB,4275636b-5f50-4434-922e-6b696361645f,v1*%
%TF.SameCoordinates,Original*%
%TF.FileFunction,Copper,L2,Bot*%
%TF.FilePolarity,Positive*%
%FSLAX46Y46*%
G04 Gerber Fmt 4.6, Leading zero omitted, Abs format (unit mm)*
G04 Created by KiCad (PCBNEW 8.0.7) date 2025-03-02 11:56:15*
%MOMM*%
%LPD*%
G01*
G04 APERTURE LIST*
%TA.AperFunction,ComponentPad*%
%ADD10C,10.160000*%
%TD*%
%TA.AperFunction,ComponentPad*%
%ADD11C,2.800000*%
%TD*%
%TA.AperFunction,ComponentPad*%
%ADD12R,1.905000X2.000000*%
%TD*%
%TA.AperFunction,ComponentPad*%
%ADD13O,1.905000X2.000000*%
%TD*%
%TA.AperFunction,ComponentPad*%
%ADD14R,2.400000X2.400000*%
%TD*%
%TA.AperFunction,ComponentPad*%
%ADD15C,2.400000*%
%TD*%
%TA.AperFunction,ComponentPad*%
%ADD16R,1.879600X1.879600*%
%TD*%
%TA.AperFunction,ComponentPad*%
%ADD17C,1.879600*%
%TD*%
%TA.AperFunction,ComponentPad*%
%ADD18R,1.524000X1.524000*%
%TD*%
%TA.AperFunction,ComponentPad*%
%ADD19C,1.524000*%
%TD*%
%TA.AperFunction,ComponentPad*%
%ADD20R,1.500000X1.500000*%
%TD*%
%TA.AperFunction,ComponentPad*%
%ADD21C,1.500000*%
%TD*%
%TA.AperFunction,ComponentPad*%
%ADD22R,1.270000X1.270000*%
%TD*%
%TA.AperFunction,ComponentPad*%
%ADD23C,1.270000*%
%TD*%
%TA.AperFunction,ComponentPad*%
%ADD24R,1.130000X1.130000*%
%TD*%
%TA.AperFunction,ComponentPad*%
%ADD25C,1.130000*%
%TD*%
%TA.AperFunction,ViaPad*%
%ADD26C,0.600000*%
%TD*%
%TA.AperFunction,Conductor*%
%ADD27C,0.500000*%
%TD*%
%TA.AperFunction,Conductor*%
%ADD28C,1.000000*%
%TD*%
G04 APERTURE END LIST*
D10*
%TO.P,J5,1,Pin_1*%
%TO.N,GND*%
X28500000Y-101500000D03*
%TD*%
D11*
%TO.P,L1,1*%
%TO.N,/VSW*%
X70790000Y-79500000D03*
%TO.P,L1,2*%
%TO.N,Net-(L1-Pad2)*%
X100000000Y-79500000D03*
%TD*%
D12*
%TO.P,Q1,1,G*%
%TO.N,/VG*%
X46397780Y-94500000D03*
D13*
%TO.P,Q1,2,D*%
%TO.N,/Power/Vin*%
X48937780Y-94500000D03*
%TO.P,Q1,3,S*%
%TO.N,/VSW*%
X51477780Y-94500000D03*
%TD*%
D14*
%TO.P,C3,1*%
%TO.N,/Power/Vin*%
X50500000Y-70500000D03*
D15*
%TO.P,C3,2*%
%TO.N,GND*%
X58000000Y-70500000D03*
%TD*%
D10*
%TO.P,J2,1,Pin_1*%
%TO.N,GND*%
X155500000Y-89250000D03*
%TD*%
D16*
%TO.P,U2,J1_1,3.3V_J1*%
%TO.N,+3.3V*%
X124964000Y-135266000D03*
D17*
%TO.P,U2,J1_2,GPIO32*%
%TO.N,unconnected-(U2A-GPIO32-PadJ1_2)*%
X122424000Y-135266000D03*
%TO.P,U2,J1_3,GPIO19/SCIRXDB*%
%TO.N,unconnected-(U2A-GPIO19{slash}SCIRXDB-PadJ1_3)*%
X119884000Y-135266000D03*
%TO.P,U2,J1_4,GPIO18/SCITXDB*%
%TO.N,unconnected-(U2A-GPIO18{slash}SCITXDB-PadJ1_4)*%
X117344000Y-135266000D03*
%TO.P,U2,J1_5,GPIO67*%
%TO.N,unconnected-(U2A-GPIO67-PadJ1_5)*%
X114804000Y-135266000D03*
%TO.P,U2,J1_6,GPIO111*%
%TO.N,unconnected-(U2A-GPIO111-PadJ1_6)*%
X112264000Y-135266000D03*
%TO.P,U2,J1_7,GPIO60/SPICLKA*%
%TO.N,unconnected-(U2A-GPIO60{slash}SPICLKA-PadJ1_7)*%
X109724000Y-135266000D03*
%TO.P,U2,J1_8,GPIO22*%
%TO.N,unconnected-(U2A-GPIO22-PadJ1_8)*%
X107184000Y-135266000D03*
%TO.P,U2,J1_9,GPIO105/I2CSCLA*%
%TO.N,unconnected-(U2A-GPIO105{slash}I2CSCLA-PadJ1_9)*%
X104644000Y-135266000D03*
%TO.P,U2,J1_10,GPIO104/I2CSDAA*%
%TO.N,unconnected-(U2A-GPIO104{slash}I2CSDAA-PadJ1_10)*%
X102104000Y-135266000D03*
D16*
%TO.P,U2,J2_1,GPIO29/OPXBAR6*%
%TO.N,unconnected-(U2B-GPIO29{slash}OPXBAR6-PadJ2_1)*%
X102104000Y-180986000D03*
D17*
%TO.P,U2,J2_2,GPIO125/SD1CLK2*%
%TO.N,unconnected-(U2B-GPIO125{slash}SD1CLK2-PadJ2_2)*%
X104644000Y-180986000D03*
%TO.P,U2,J2_3,GPIO124/SD1D2*%
%TO.N,unconnected-(U2B-GPIO124{slash}SD1D2-PadJ2_3)*%
X107184000Y-180986000D03*
%TO.P,U2,J2_4,GPIO59/SPIAMISO*%
%TO.N,unconnected-(U2B-GPIO59{slash}SPIAMISO-PadJ2_4)*%
X109724000Y-180986000D03*
%TO.P,U2,J2_5,GPIO58/SPIAMOSI*%
%TO.N,unconnected-(U2B-GPIO58{slash}SPIAMOSI-PadJ2_5)*%
X112264000Y-180986000D03*
%TO.P,U2,J2_6,~{RESET_J2}*%
%TO.N,unconnected-(U2B-~{RESET_J2}-PadJ2_6)*%
X114804000Y-180986000D03*
%TO.P,U2,J2_7,GPIO122/SD1D1*%
%TO.N,unconnected-(U2B-GPIO122{slash}SD1D1-PadJ2_7)*%
X117344000Y-180986000D03*
%TO.P,U2,J2_8,GPIO123/SD1CLK1*%
%TO.N,unconnected-(U2B-GPIO123{slash}SD1CLK1-PadJ2_8)*%
X119884000Y-180986000D03*
%TO.P,U2,J2_9,GPIO61/SPIACS*%
%TO.N,unconnected-(U2B-GPIO61{slash}SPIACS-PadJ2_9)*%
X122424000Y-180986000D03*
%TO.P,U2,J2_10,GND_J2*%
%TO.N,GND*%
X124964000Y-180986000D03*
D16*
%TO.P,U2,J3_1,+5V_J3*%
%TO.N,unconnected-(U2C-+5V_J3-PadJ3_1)*%
X124964000Y-137806000D03*
D17*
%TO.P,U2,J3_2,GND_J3*%
%TO.N,GND*%
X122424000Y-137806000D03*
%TO.P,U2,J3_3,ADCIN14/ANALOGIN*%
%TO.N,/VFILT*%
X119884000Y-137806000D03*
%TO.P,U2,J3_4,ADCINC3/ANALOGIN*%
%TO.N,unconnected-(U2C-ADCINC3{slash}ANALOGIN-PadJ3_4)*%
X117344000Y-137806000D03*
%TO.P,U2,J3_5,ADCINB3/ANALOGIN*%
%TO.N,unconnected-(U2C-ADCINB3{slash}ANALOGIN-PadJ3_5)*%
X114804000Y-137806000D03*
%TO.P,U2,J3_6,ADCINA3/ANALOGIN*%
%TO.N,unconnected-(U2C-ADCINA3{slash}ANALOGIN-PadJ3_6)*%
X112264000Y-137806000D03*
%TO.P,U2,J3_7,ADCINC2/ANALOGIN*%
%TO.N,unconnected-(U2C-ADCINC2{slash}ANALOGIN-PadJ3_7)*%
X109724000Y-137806000D03*
%TO.P,U2,J3_8,ADCINB2/ANALOGIN*%
%TO.N,unconnected-(U2C-ADCINB2{slash}ANALOGIN-PadJ3_8)*%
X107184000Y-137806000D03*
%TO.P,U2,J3_9,ADCINA2/ANALOGIN*%
%TO.N,unconnected-(U2C-ADCINA2{slash}ANALOGIN-PadJ3_9)*%
X104644000Y-137806000D03*
%TO.P,U2,J3_10,ADCINA0/ANALOGIN(DACA)*%
%TO.N,unconnected-(U2C-ADCINA0{slash}ANALOGIN(DACA)-PadJ3_10)*%
X102104000Y-137806000D03*
D16*
%TO.P,U2,J4_1,PWM/BASED/DAC2*%
%TO.N,unconnected-(U2D-PWM{slash}BASED{slash}DAC2-PadJ4_1)*%
X102104000Y-178446000D03*
D17*
%TO.P,U2,J4_2,PWM/BASED/DAC1*%
%TO.N,unconnected-(U2D-PWM{slash}BASED{slash}DAC1-PadJ4_2)*%
X104644000Y-178446000D03*
%TO.P,U2,J4_3,GPIO16/OPXBAR7*%
%TO.N,unconnected-(U2D-GPIO16{slash}OPXBAR7-PadJ4_3)*%
X107184000Y-178446000D03*
%TO.P,U2,J4_4,GPIO24/OPXBAR1*%
%TO.N,unconnected-(U2D-GPIO24{slash}OPXBAR1-PadJ4_4)*%
X109724000Y-178446000D03*
%TO.P,U2,J4_5,GPIO5/PWMOUT3B*%
%TO.N,unconnected-(U2D-GPIO5{slash}PWMOUT3B-PadJ4_5)*%
X112264000Y-178446000D03*
%TO.P,U2,J4_6,GPIO4/PWMOUT3A*%
%TO.N,unconnected-(U2D-GPIO4{slash}PWMOUT3A-PadJ4_6)*%
X114804000Y-178446000D03*
%TO.P,U2,J4_7,GPIO3/PWMOUT2B*%
%TO.N,unconnected-(U2D-GPIO3{slash}PWMOUT2B-PadJ4_7)*%
X117344000Y-178446000D03*
%TO.P,U2,J4_8,GPIO2//PWMOUT2A*%
%TO.N,unconnected-(U2D-GPIO2{slash}{slash}PWMOUT2A-PadJ4_8)*%
X119884000Y-178446000D03*
%TO.P,U2,J4_9,GPIO1/PWMOUT1B*%
%TO.N,unconnected-(U2D-GPIO1{slash}PWMOUT1B-PadJ4_9)*%
X122424000Y-178446000D03*
%TO.P,U2,J4_10,GPIO0/PWMOUT1A*%
%TO.N,unconnected-(U2D-GPIO0{slash}PWMOUT1A-PadJ4_10)*%
X124964000Y-178446000D03*
D16*
%TO.P,U2,J5_1,3.3V_J5*%
%TO.N,unconnected-(U2E-3.3V_J5-PadJ5_1)*%
X61464000Y-135266000D03*
D17*
%TO.P,U2,J5_2,GPIO95*%
%TO.N,unconnected-(U2E-GPIO95-PadJ5_2)*%
X58924000Y-135266000D03*
%TO.P,U2,J5_3,GPIO139/SCICRX*%
%TO.N,unconnected-(U2E-GPIO139{slash}SCICRX-PadJ5_3)*%
X56384000Y-135266000D03*
%TO.P,U2,J5_4,GPIO56/SCICIX*%
%TO.N,unconnected-(U2E-GPIO56{slash}SCICIX-PadJ5_4)*%
X53844000Y-135266000D03*
%TO.P,U2,J5_5,GPIO97*%
%TO.N,unconnected-(U2E-GPIO97-PadJ5_5)*%
X51304000Y-135266000D03*
%TO.P,U2,J5_6,GPIO94*%
%TO.N,unconnected-(U2E-GPIO94-PadJ5_6)*%
X48764000Y-135266000D03*
%TO.P,U2,J5_7,GPIO65/SPIBCLK*%
%TO.N,unconnected-(U2E-GPIO65{slash}SPIBCLK-PadJ5_7)*%
X46224000Y-135266000D03*
%TO.P,U2,J5_8,GPIO52*%
%TO.N,unconnected-(U2E-GPIO52-PadJ5_8)*%
X43684000Y-135266000D03*
%TO.P,U2,J5_9,GPIO41/I2CSCLB/J5*%
%TO.N,unconnected-(U2E-GPIO41{slash}I2CSCLB{slash}J5-PadJ5_9)*%
X41144000Y-135266000D03*
%TO.P,U2,J5_10,GPIO40/I2CSDAB/J5*%
%TO.N,unconnected-(U2E-GPIO40{slash}I2CSDAB{slash}J5-PadJ5_10)*%
X38604000Y-135266000D03*
D16*
%TO.P,U2,J6_1,GPIO25/OPXBAR2*%
%TO.N,unconnected-(U2F-GPIO25{slash}OPXBAR2-PadJ6_1)*%
X38604000Y-180986000D03*
D17*
%TO.P,U2,J6_2,GPIO27/SD2CLK2*%
%TO.N,unconnected-(U2F-GPIO27{slash}SD2CLK2-PadJ6_2)*%
X41144000Y-180986000D03*
%TO.P,U2,J6_3,GPIO26/SD2D2*%
%TO.N,unconnected-(U2F-GPIO26{slash}SD2D2-PadJ6_3)*%
X43684000Y-180986000D03*
%TO.P,U2,J6_4,GPIO64/SPIBMISO*%
%TO.N,unconnected-(U2F-GPIO64{slash}SPIBMISO-PadJ6_4)*%
X46224000Y-180986000D03*
%TO.P,U2,J6_5,GPIO63/SPIBMOSI*%
%TO.N,unconnected-(U2F-GPIO63{slash}SPIBMOSI-PadJ6_5)*%
X48764000Y-180986000D03*
%TO.P,U2,J6_6,~{RESET_J6}*%
%TO.N,unconnected-(U2F-~{RESET_J6}-PadJ6_6)*%
X51304000Y-180986000D03*
%TO.P,U2,J6_7,GPIO130/SD2D1*%
%TO.N,unconnected-(U2F-GPIO130{slash}SD2D1-PadJ6_7)*%
X53844000Y-180986000D03*
%TO.P,U2,J6_8,GPIO131/SD2CLK1*%
%TO.N,unconnected-(U2F-GPIO131{slash}SD2CLK1-PadJ6_8)*%
X56384000Y-180986000D03*
%TO.P,U2,J6_9,GPIO66/SPIBCS*%
%TO.N,unconnected-(U2F-GPIO66{slash}SPIBCS-PadJ6_9)*%
X58924000Y-180986000D03*
%TO.P,U2,J6_10,GND_J6*%
%TO.N,GND*%
X61464000Y-180986000D03*
D16*
%TO.P,U2,J7_1,+5V_J7*%
%TO.N,+5V*%
X61464000Y-137806000D03*
D17*
%TO.P,U2,J7_2,GND_J7*%
%TO.N,GND*%
X58924000Y-137806000D03*
%TO.P,U2,J7_3,ADCIN15/ANALOGIN*%
%TO.N,unconnected-(U2G-ADCIN15{slash}ANALOGIN-PadJ7_3)*%
X56384000Y-137806000D03*
%TO.P,U2,J7_4,ADCINC5/ANALOGIN*%
%TO.N,unconnected-(U2G-ADCINC5{slash}ANALOGIN-PadJ7_4)*%
X53844000Y-137806000D03*
%TO.P,U2,J7_5,ADCINB5/ANALOGIN*%
%TO.N,unconnected-(U2G-ADCINB5{slash}ANALOGIN-PadJ7_5)*%
X51304000Y-137806000D03*
%TO.P,U2,J7_6,ADCINA5/ANALOGIN*%
%TO.N,unconnected-(U2G-ADCINA5{slash}ANALOGIN-PadJ7_6)*%
X48764000Y-137806000D03*
%TO.P,U2,J7_7,ADCINC4/ANALOGIN*%
%TO.N,unconnected-(U2G-ADCINC4{slash}ANALOGIN-PadJ7_7)*%
X46224000Y-137806000D03*
%TO.P,U2,J7_8,ADCINB4/ANALOGIN*%
%TO.N,unconnected-(U2G-ADCINB4{slash}ANALOGIN-PadJ7_8)*%
X43684000Y-137806000D03*
%TO.P,U2,J7_9,ADCINA4/ANALOGIN*%
%TO.N,unconnected-(U2G-ADCINA4{slash}ANALOGIN-PadJ7_9)*%
X41144000Y-137806000D03*
%TO.P,U2,J7_10,ADCINA1/ANALOGIN(DACB)*%
%TO.N,unconnected-(U2G-ADCINA1{slash}ANALOGIN(DACB)-PadJ7_10)*%
X38604000Y-137806000D03*
D16*
%TO.P,U2,J8_1,PWM/BASED/DAC4*%
%TO.N,unconnected-(U2H-PWM{slash}BASED{slash}DAC4-PadJ8_1)*%
X38604000Y-178446000D03*
D17*
%TO.P,U2,J8_2,PWM/BASED/DAC3*%
%TO.N,unconnected-(U2H-PWM{slash}BASED{slash}DAC3-PadJ8_2)*%
X41144000Y-178446000D03*
%TO.P,U2,J8_3,GPIO15/OPXBAR4*%
%TO.N,unconnected-(U2H-GPIO15{slash}OPXBAR4-PadJ8_3)*%
X43684000Y-178446000D03*
%TO.P,U2,J8_4,GPIO14/OPXBAR3*%
%TO.N,unconnected-(U2H-GPIO14{slash}OPXBAR3-PadJ8_4)*%
X46224000Y-178446000D03*
%TO.P,U2,J8_5,GPIO11/PWMOUT6B*%
%TO.N,/PWM*%
X48764000Y-178446000D03*
%TO.P,U2,J8_6,GPIO10/PWMOUT6A*%
%TO.N,unconnected-(U2H-GPIO10{slash}PWMOUT6A-PadJ8_6)*%
X51304000Y-178446000D03*
%TO.P,U2,J8_7,GPIO9/PWMOUT5B*%
%TO.N,unconnected-(U2H-GPIO9{slash}PWMOUT5B-PadJ8_7)*%
X53844000Y-178446000D03*
%TO.P,U2,J8_8,GPIO8/PWMOUT5A*%
%TO.N,unconnected-(U2H-GPIO8{slash}PWMOUT5A-PadJ8_8)*%
X56384000Y-178446000D03*
%TO.P,U2,J8_9,GPIO7/PWMOUT4B*%
%TO.N,unconnected-(U2H-GPIO7{slash}PWMOUT4B-PadJ8_9)*%
X58924000Y-178446000D03*
%TO.P,U2,J8_10,GPIO6/PWMOUT4A*%
%TO.N,unconnected-(U2H-GPIO6{slash}PWMOUT4A-PadJ8_10)*%
X61464000Y-178446000D03*
D18*
%TO.P,U2,J10_1,+3V_J10*%
%TO.N,unconnected-(U2I-+3V_J10-PadJ10_1)*%
X28444000Y-180986000D03*
D19*
%TO.P,U2,J10_2,GND_J10*%
%TO.N,GND*%
X30984000Y-180986000D03*
%TO.P,U2,J10_3,GND_J10__1*%
X33524000Y-180986000D03*
D18*
%TO.P,U2,J12_1,CANH*%
%TO.N,unconnected-(U2J-CANH-PadJ12_1)*%
X28444000Y-145426000D03*
D19*
%TO.P,U2,J12_2,CANL*%
%TO.N,unconnected-(U2J-CANL-PadJ12_2)*%
X28444000Y-142886000D03*
%TO.P,U2,J12_3,GND_J12*%
%TO.N,GND*%
X28444000Y-140346000D03*
D18*
%TO.P,U2,J14_1,EQEP1A*%
%TO.N,unconnected-(U2K-EQEP1A-PadJ14_1)*%
X28444000Y-175906000D03*
D19*
%TO.P,U2,J14_2,EQEP1B*%
%TO.N,unconnected-(U2K-EQEP1B-PadJ14_2)*%
X28444000Y-173366000D03*
%TO.P,U2,J14_3,EQEP1I*%
%TO.N,unconnected-(U2K-EQEP1I-PadJ14_3)*%
X28444000Y-170826000D03*
%TO.P,U2,J14_4,+5V_J14*%
%TO.N,unconnected-(U2K-+5V_J14-PadJ14_4)*%
X28444000Y-168286000D03*
%TO.P,U2,J14_5,GND_J14*%
%TO.N,GND*%
X28444000Y-165746000D03*
D18*
%TO.P,U2,J15_1,EQEP2A*%
%TO.N,unconnected-(U2L-EQEP2A-PadJ15_1)*%
X28444000Y-160666000D03*
D19*
%TO.P,U2,J15_2,EQEP2B*%
%TO.N,unconnected-(U2L-EQEP2B-PadJ15_2)*%
X28444000Y-158126000D03*
%TO.P,U2,J15_3,EQEP2I*%
%TO.N,unconnected-(U2L-EQEP2I-PadJ15_3)*%
X28444000Y-155586000D03*
%TO.P,U2,J15_4,+5V_J15*%
%TO.N,unconnected-(U2L-+5V_J15-PadJ15_4)*%
X28444000Y-153046000D03*
%TO.P,U2,J15_5,GND_J15*%
%TO.N,GND*%
X28444000Y-150506000D03*
D18*
%TO.P,U2,J16_1,+5V_J16*%
%TO.N,unconnected-(U2N-+5V_J16-PadJ16_1)*%
X28444000Y-135266000D03*
D19*
%TO.P,U2,J16_2,GND_J16*%
%TO.N,GND*%
X30984000Y-135266000D03*
%TO.P,U2,J16_3,GND_J16__1*%
X33524000Y-135266000D03*
D20*
%TO.P,U2,J21_1,ADCIND0*%
%TO.N,unconnected-(U2M-ADCIND0-PadJ21_1)*%
X98620000Y-138040000D03*
D21*
%TO.P,U2,J21_2,TP21/GND*%
%TO.N,GND*%
X98620000Y-135500000D03*
%TO.P,U2,J21_3,ADCIND1*%
%TO.N,unconnected-(U2M-ADCIND1-PadJ21_3)*%
X96080000Y-138040000D03*
%TO.P,U2,J21_4,TP22/GND*%
%TO.N,GND*%
X96080000Y-135500000D03*
%TO.P,U2,J21_5,ADCIND2*%
%TO.N,unconnected-(U2M-ADCIND2-PadJ21_5)*%
X93540000Y-138040000D03*
%TO.P,U2,J21_6,TP23/GND*%
%TO.N,GND*%
X93540000Y-135500000D03*
%TO.P,U2,J21_7,ADCIND3*%
%TO.N,unconnected-(U2M-ADCIND3-PadJ21_7)*%
X91000000Y-138040000D03*
%TO.P,U2,J21_8,TP24/GND*%
%TO.N,GND*%
X91000000Y-135500000D03*
%TD*%
D10*
%TO.P,J3,1,Pin_1*%
%TO.N,/VSW*%
X28500000Y-69500000D03*
%TD*%
%TO.P,J4,1,Pin_1*%
%TO.N,/VOUT*%
X155500000Y-73250000D03*
%TD*%
D22*
%TO.P,U4,1,+VIN(VCC)*%
%TO.N,+5V*%
X67850000Y-120500000D03*
D23*
%TO.P,U4,2,-VIN(GGND)*%
%TO.N,GND*%
X70390000Y-120500000D03*
%TO.P,U4,5,-VOUT*%
%TO.N,/VSW*%
X78010000Y-120500000D03*
%TO.P,U4,7,+VOUT*%
%TO.N,/GateDriver/ISO_12*%
X83090000Y-120500000D03*
%TD*%
D24*
%TO.P,U1,1*%
%TO.N,/VFILT*%
X146500000Y-126080000D03*
D25*
%TO.P,U1,2,-*%
%TO.N,Net-(U1A--)*%
X146500000Y-123540000D03*
%TO.P,U1,3,+*%
%TO.N,Net-(U1A-+)*%
X146500000Y-121000000D03*
%TO.P,U1,4,V-*%
%TO.N,GND*%
X146500000Y-118460000D03*
%TO.P,U1,5,+*%
%TO.N,unconnected-(U1B-+-Pad5)*%
X138560000Y-118460000D03*
%TO.P,U1,6,-*%
%TO.N,unconnected-(U1B---Pad6)*%
X138560000Y-121000000D03*
%TO.P,U1,7*%
%TO.N,unconnected-(U1-Pad7)*%
X138560000Y-123540000D03*
%TO.P,U1,8,V+*%
%TO.N,+3.3V*%
X138560000Y-126080000D03*
%TD*%
D10*
%TO.P,J1,1,Pin_1*%
%TO.N,/Power/Vin*%
X28500000Y-85500000D03*
%TD*%
D11*
%TO.P,L2,1*%
%TO.N,Net-(L1-Pad2)*%
X105395000Y-106000000D03*
%TO.P,L2,2*%
%TO.N,/VOUT*%
X134605000Y-106000000D03*
%TD*%
D26*
%TO.N,GND*%
X53500000Y-98500000D03*
X65500000Y-113500000D03*
X62000000Y-85500000D03*
X72000000Y-118000000D03*
%TO.N,+3.3V*%
X77500000Y-132500000D03*
X68500000Y-132000000D03*
%TO.N,/GateDriver/ISO_12*%
X74500000Y-105500000D03*
X58500000Y-125000000D03*
%TO.N,/VSW*%
X40000000Y-96500000D03*
X40000000Y-84500000D03*
X70750000Y-104250000D03*
X70750000Y-97500000D03*
%TO.N,/PWM*%
X50000000Y-121000000D03*
X29500000Y-126000000D03*
%TO.N,/GateDriver/GD_PWM*%
X80000000Y-109500000D03*
X87000000Y-110000000D03*
%TD*%
D27*
%TO.N,+3.3V*%
X77000000Y-132000000D02*
X68500000Y-132000000D01*
X77500000Y-132500000D02*
X77000000Y-132000000D01*
D28*
%TO.N,/Power/Vin*%
X44500000Y-70500000D02*
X32500000Y-82500000D01*
X50500000Y-70500000D02*
X44500000Y-70500000D01*
X28500000Y-82500000D02*
X28500000Y-81500000D01*
X32500000Y-82500000D02*
X28500000Y-82500000D01*
%TO.N,/GateDriver/ISO_12*%
X72500000Y-125000000D02*
X74500000Y-125000000D01*
X78590000Y-125000000D02*
X83090000Y-120500000D01*
X72500000Y-125000000D02*
X74000000Y-125000000D01*
X70500000Y-125000000D02*
X78590000Y-125000000D01*
X74500000Y-125000000D02*
X74500000Y-105500000D01*
X70500000Y-125000000D02*
X72500000Y-125000000D01*
X58500000Y-125000000D02*
X70500000Y-125000000D01*
D27*
%TO.N,/VSW*%
X40000000Y-84500000D02*
X40000000Y-96500000D01*
D28*
X70750000Y-104250000D02*
X70750000Y-97500000D01*
D27*
%TO.N,/PWM*%
X48800000Y-176800000D02*
X36000000Y-164000000D01*
X45000000Y-126000000D02*
X36500000Y-126000000D01*
X36000000Y-164000000D02*
X36000000Y-126000000D01*
X36500000Y-126000000D02*
X36000000Y-126000000D01*
X48800000Y-178500000D02*
X48800000Y-176800000D01*
X50000000Y-121000000D02*
X45000000Y-126000000D01*
X36000000Y-126000000D02*
X29500000Y-126000000D01*
D28*
%TO.N,/GateDriver/GD_PWM*%
X80000000Y-109500000D02*
X86500000Y-109500000D01*
X86500000Y-109500000D02*
X87000000Y-110000000D01*
%TD*%
%TA.AperFunction,Conductor*%
%TO.N,GND*%
G36*
X60275904Y-179269071D02*
G01*
X60297809Y-179294350D01*
X60323506Y-179333682D01*
X60485168Y-179509295D01*
X60625021Y-179618146D01*
X60625427Y-179618462D01*
X60666240Y-179675173D01*
X60669915Y-179744946D01*
X60637006Y-179802610D01*
X60636840Y-179805287D01*
X61328058Y-180496504D01*
X61267919Y-180512619D01*
X61152080Y-180579498D01*
X61057498Y-180674080D01*
X60990619Y-180789919D01*
X60974504Y-180850057D01*
X60284057Y-180159609D01*
X60271366Y-180160925D01*
X60244955Y-180183464D01*
X60175723Y-180192885D01*
X60112388Y-180163381D01*
X60090488Y-180138105D01*
X60064495Y-180098320D01*
X60064494Y-180098318D01*
X59902832Y-179922705D01*
X59762978Y-179813853D01*
X59722166Y-179757143D01*
X59718491Y-179687370D01*
X59753122Y-179626687D01*
X59762979Y-179618146D01*
X59902832Y-179509295D01*
X60064494Y-179333682D01*
X60090191Y-179294350D01*
X60143337Y-179248993D01*
X60212568Y-179239569D01*
X60275904Y-179269071D01*
G37*
%TD.AperFunction*%
%TA.AperFunction,Conductor*%
G36*
X123775904Y-179269071D02*
G01*
X123797809Y-179294350D01*
X123823506Y-179333682D01*
X123985168Y-179509295D01*
X124125021Y-179618146D01*
X124125427Y-179618462D01*
X124166240Y-179675173D01*
X124169915Y-179744946D01*
X124137006Y-179802610D01*
X124136840Y-179805287D01*
X124828058Y-180496504D01*
X124767919Y-180512619D01*
X124652080Y-180579498D01*
X124557498Y-180674080D01*
X124490619Y-180789919D01*
X124474504Y-180850057D01*
X123784057Y-180159609D01*
X123771366Y-180160925D01*
X123744955Y-180183464D01*
X123675723Y-180192885D01*
X123612388Y-180163381D01*
X123590488Y-180138105D01*
X123564495Y-180098320D01*
X123564494Y-180098318D01*
X123402832Y-179922705D01*
X123262978Y-179813853D01*
X123222166Y-179757143D01*
X123218491Y-179687370D01*
X123253122Y-179626687D01*
X123262979Y-179618146D01*
X123402832Y-179509295D01*
X123564494Y-179333682D01*
X123590191Y-179294350D01*
X123643337Y-179248993D01*
X123712568Y-179239569D01*
X123775904Y-179269071D01*
G37*
%TD.AperFunction*%
%TA.AperFunction,Conductor*%
G36*
X93074075Y-135692993D02*
G01*
X93139901Y-135807007D01*
X93232993Y-135900099D01*
X93347007Y-135965925D01*
X93410590Y-135982962D01*
X92850427Y-136543124D01*
X92912613Y-136586667D01*
X92912615Y-136586668D01*
X93064174Y-136657341D01*
X93116614Y-136703513D01*
X93135766Y-136770706D01*
X93115551Y-136837588D01*
X93064176Y-136882105D01*
X92912358Y-136952900D01*
X92912357Y-136952900D01*
X92733121Y-137078402D01*
X92578402Y-137233121D01*
X92452900Y-137412357D01*
X92452898Y-137412361D01*
X92382382Y-137563583D01*
X92336209Y-137616022D01*
X92269016Y-137635174D01*
X92202135Y-137614958D01*
X92157618Y-137563583D01*
X92125208Y-137494080D01*
X92087102Y-137412362D01*
X92087100Y-137412359D01*
X92087099Y-137412357D01*
X91961599Y-137233124D01*
X91910991Y-137182516D01*
X91806877Y-137078402D01*
X91665786Y-136979609D01*
X91627638Y-136952897D01*
X91475824Y-136882105D01*
X91423385Y-136835932D01*
X91404233Y-136768739D01*
X91424449Y-136701858D01*
X91475825Y-136657340D01*
X91627388Y-136586666D01*
X91689571Y-136543124D01*
X91129410Y-135982962D01*
X91192993Y-135965925D01*
X91307007Y-135900099D01*
X91400099Y-135807007D01*
X91465925Y-135692993D01*
X91482962Y-135629409D01*
X92043124Y-136189570D01*
X92086668Y-136127385D01*
X92086669Y-136127383D01*
X92157618Y-135975233D01*
X92203790Y-135922793D01*
X92270983Y-135903641D01*
X92337865Y-135923856D01*
X92382382Y-135975232D01*
X92453333Y-136127387D01*
X92496874Y-136189571D01*
X93057037Y-135629408D01*
X93074075Y-135692993D01*
G37*
%TD.AperFunction*%
%TA.AperFunction,Conductor*%
G36*
X95614075Y-135692993D02*
G01*
X95679901Y-135807007D01*
X95772993Y-135900099D01*
X95887007Y-135965925D01*
X95950590Y-135982962D01*
X95390427Y-136543124D01*
X95452613Y-136586667D01*
X95452615Y-136586668D01*
X95604174Y-136657341D01*
X95656614Y-136703513D01*
X95675766Y-136770706D01*
X95655551Y-136837588D01*
X95604176Y-136882105D01*
X95452358Y-136952900D01*
X95452357Y-136952900D01*
X95273121Y-137078402D01*
X95118402Y-137233121D01*
X94992900Y-137412357D01*
X94992898Y-137412361D01*
X94922382Y-137563583D01*
X94876209Y-137616022D01*
X94809016Y-137635174D01*
X94742135Y-137614958D01*
X94697618Y-137563583D01*
X94665208Y-137494080D01*
X94627102Y-137412362D01*
X94627100Y-137412359D01*
X94627099Y-137412357D01*
X94501599Y-137233124D01*
X94450991Y-137182516D01*
X94346877Y-137078402D01*
X94205786Y-136979609D01*
X94167638Y-136952897D01*
X94015824Y-136882105D01*
X93963385Y-136835932D01*
X93944233Y-136768739D01*
X93964449Y-136701858D01*
X94015825Y-136657340D01*
X94167388Y-136586666D01*
X94229571Y-136543124D01*
X93669410Y-135982962D01*
X93732993Y-135965925D01*
X93847007Y-135900099D01*
X93940099Y-135807007D01*
X94005925Y-135692993D01*
X94022962Y-135629409D01*
X94583124Y-136189570D01*
X94626668Y-136127385D01*
X94626669Y-136127383D01*
X94697618Y-135975233D01*
X94743790Y-135922793D01*
X94810983Y-135903641D01*
X94877865Y-135923856D01*
X94922382Y-135975232D01*
X94993333Y-136127387D01*
X95036874Y-136189571D01*
X95597037Y-135629408D01*
X95614075Y-135692993D01*
G37*
%TD.AperFunction*%
%TA.AperFunction,Conductor*%
G36*
X98154075Y-135692993D02*
G01*
X98219901Y-135807007D01*
X98312993Y-135900099D01*
X98427007Y-135965925D01*
X98490590Y-135982962D01*
X97930427Y-136543124D01*
X97960134Y-136563925D01*
X98003759Y-136618502D01*
X98010953Y-136688000D01*
X97979430Y-136750355D01*
X97919201Y-136785769D01*
X97889013Y-136789500D01*
X97822130Y-136789500D01*
X97822123Y-136789501D01*
X97762516Y-136795908D01*
X97627671Y-136846202D01*
X97627664Y-136846206D01*
X97512455Y-136932452D01*
X97512452Y-136932455D01*
X97426206Y-137047664D01*
X97426202Y-137047671D01*
X97375908Y-137182517D01*
X97370468Y-137233121D01*
X97369501Y-137242123D01*
X97369500Y-137242135D01*
X97369500Y-137308138D01*
X97349815Y-137375177D01*
X97297011Y-137420932D01*
X97227853Y-137430876D01*
X97164297Y-137401851D01*
X97143925Y-137379261D01*
X97041599Y-137233124D01*
X96990991Y-137182516D01*
X96886877Y-137078402D01*
X96745786Y-136979609D01*
X96707638Y-136952897D01*
X96555824Y-136882105D01*
X96503385Y-136835932D01*
X96484233Y-136768739D01*
X96504449Y-136701858D01*
X96555825Y-136657340D01*
X96707388Y-136586666D01*
X96769571Y-136543124D01*
X96209410Y-135982962D01*
X96272993Y-135965925D01*
X96387007Y-135900099D01*
X96480099Y-135807007D01*
X96545925Y-135692993D01*
X96562962Y-135629409D01*
X97123124Y-136189570D01*
X97166668Y-136127385D01*
X97166669Y-136127383D01*
X97237618Y-135975233D01*
X97283790Y-135922793D01*
X97350983Y-135903641D01*
X97417865Y-135923856D01*
X97462382Y-135975232D01*
X97533333Y-136127387D01*
X97576874Y-136189571D01*
X98137037Y-135629408D01*
X98154075Y-135692993D01*
G37*
%TD.AperFunction*%
%TA.AperFunction,Conductor*%
G36*
X57735904Y-136089071D02*
G01*
X57757809Y-136114350D01*
X57783506Y-136153682D01*
X57945168Y-136329295D01*
X58021965Y-136389068D01*
X58085427Y-136438462D01*
X58126240Y-136495173D01*
X58129915Y-136564946D01*
X58097006Y-136622610D01*
X58096840Y-136625287D01*
X58788058Y-137316504D01*
X58727919Y-137332619D01*
X58612080Y-137399498D01*
X58517498Y-137494080D01*
X58450619Y-137609919D01*
X58434504Y-137670057D01*
X57744057Y-136979609D01*
X57731366Y-136980925D01*
X57704955Y-137003464D01*
X57635723Y-137012885D01*
X57572388Y-136983381D01*
X57550488Y-136958105D01*
X57550192Y-136957652D01*
X57524494Y-136918318D01*
X57362832Y-136742705D01*
X57222978Y-136633853D01*
X57182166Y-136577143D01*
X57178491Y-136507370D01*
X57213122Y-136446687D01*
X57222979Y-136438146D01*
X57362832Y-136329295D01*
X57524494Y-136153682D01*
X57550191Y-136114350D01*
X57603337Y-136068993D01*
X57672568Y-136059569D01*
X57735904Y-136089071D01*
G37*
%TD.AperFunction*%
%TA.AperFunction,Conductor*%
G36*
X60006326Y-136340600D02*
G01*
X60056651Y-136389068D01*
X60065136Y-136407196D01*
X60080402Y-136448128D01*
X60080405Y-136448134D01*
X60090554Y-136461691D01*
X60114970Y-136527155D01*
X60100117Y-136595428D01*
X60090554Y-136610309D01*
X60080405Y-136623865D01*
X60080402Y-136623871D01*
X60030108Y-136758717D01*
X60023701Y-136818316D01*
X60023701Y-136818323D01*
X60023700Y-136818335D01*
X60023700Y-137008491D01*
X60004015Y-137075530D01*
X59987381Y-137096172D01*
X59413495Y-137670057D01*
X59397381Y-137609919D01*
X59330502Y-137494080D01*
X59235920Y-137399498D01*
X59120081Y-137332619D01*
X59059941Y-137316504D01*
X59751159Y-136625287D01*
X59750685Y-136617653D01*
X59721757Y-136577456D01*
X59718085Y-136507683D01*
X59752718Y-136447000D01*
X59762559Y-136438473D01*
X59872794Y-136352674D01*
X59937786Y-136327033D01*
X60006326Y-136340600D01*
G37*
%TD.AperFunction*%
%TA.AperFunction,Conductor*%
G36*
X121235904Y-136089071D02*
G01*
X121257809Y-136114350D01*
X121283506Y-136153682D01*
X121445168Y-136329295D01*
X121521965Y-136389068D01*
X121585427Y-136438462D01*
X121626240Y-136495173D01*
X121629915Y-136564946D01*
X121597006Y-136622610D01*
X121596840Y-136625287D01*
X122288058Y-137316504D01*
X122227919Y-137332619D01*
X122112080Y-137399498D01*
X122017498Y-137494080D01*
X121950619Y-137609919D01*
X121934504Y-137670057D01*
X121244057Y-136979609D01*
X121231366Y-136980925D01*
X121204955Y-137003464D01*
X121135723Y-137012885D01*
X121072388Y-136983381D01*
X121050488Y-136958105D01*
X121050192Y-136957652D01*
X121024494Y-136918318D01*
X120862832Y-136742705D01*
X120722978Y-136633853D01*
X120682166Y-136577143D01*
X120678491Y-136507370D01*
X120713122Y-136446687D01*
X120722979Y-136438146D01*
X120862832Y-136329295D01*
X121024494Y-136153682D01*
X121050191Y-136114350D01*
X121103337Y-136068993D01*
X121172568Y-136059569D01*
X121235904Y-136089071D01*
G37*
%TD.AperFunction*%
%TA.AperFunction,Conductor*%
G36*
X123506326Y-136340600D02*
G01*
X123556651Y-136389068D01*
X123565136Y-136407196D01*
X123580402Y-136448128D01*
X123580405Y-136448134D01*
X123590554Y-136461691D01*
X123614970Y-136527155D01*
X123600117Y-136595428D01*
X123590554Y-136610309D01*
X123580405Y-136623865D01*
X123580402Y-136623871D01*
X123530108Y-136758717D01*
X123523701Y-136818316D01*
X123523701Y-136818323D01*
X123523700Y-136818335D01*
X123523700Y-137008491D01*
X123504015Y-137075530D01*
X123487381Y-137096172D01*
X122913495Y-137670057D01*
X122897381Y-137609919D01*
X122830502Y-137494080D01*
X122735920Y-137399498D01*
X122620081Y-137332619D01*
X122559941Y-137316504D01*
X123251159Y-136625287D01*
X123250685Y-136617653D01*
X123221757Y-136577456D01*
X123218085Y-136507683D01*
X123252718Y-136447000D01*
X123262559Y-136438473D01*
X123372794Y-136352674D01*
X123437786Y-136327033D01*
X123506326Y-136340600D01*
G37*
%TD.AperFunction*%
%TA.AperFunction,Conductor*%
G36*
X162942539Y-59020185D02*
G01*
X162988294Y-59072989D01*
X162999500Y-59124500D01*
X162999500Y-187375500D01*
X162979815Y-187442539D01*
X162927011Y-187488294D01*
X162875500Y-187499500D01*
X20624500Y-187499500D01*
X20557461Y-187479815D01*
X20511706Y-187427011D01*
X20500500Y-187375500D01*
X20500500Y-184374038D01*
X21899500Y-184374038D01*
X21899500Y-184625961D01*
X21938910Y-184874785D01*
X22016760Y-185114383D01*
X22131132Y-185338848D01*
X22279201Y-185542649D01*
X22279205Y-185542654D01*
X22457345Y-185720794D01*
X22457350Y-185720798D01*
X22592967Y-185819329D01*
X22661155Y-185868870D01*
X22804184Y-185941747D01*
X22885616Y-185983239D01*
X22885618Y-185983239D01*
X22885621Y-185983241D01*
X23125215Y-186061090D01*
X23374038Y-186100500D01*
X23374039Y-186100500D01*
X23625961Y-186100500D01*
X23625962Y-186100500D01*
X23874785Y-186061090D01*
X24114379Y-185983241D01*
X24338845Y-185868870D01*
X24542656Y-185720793D01*
X24720793Y-185542656D01*
X24868870Y-185338845D01*
X24983241Y-185114379D01*
X25061090Y-184874785D01*
X25092649Y-184675530D01*
X27876000Y-184675530D01*
X27876000Y-184916469D01*
X27907447Y-185155341D01*
X27969808Y-185388073D01*
X28062006Y-185610662D01*
X28062011Y-185610671D01*
X28182480Y-185819329D01*
X28182483Y-185819334D01*
X28182485Y-185819336D01*
X28329151Y-186010476D01*
X28329157Y-186010483D01*
X28499516Y-186180842D01*
X28499522Y-186180847D01*
X28690671Y-186327520D01*
X28899329Y-186447989D01*
X28899332Y-186447990D01*
X28899337Y-186447993D01*
X29019424Y-186497734D01*
X29121927Y-186540192D01*
X29354655Y-186602552D01*
X29533812Y-186626138D01*
X29593530Y-186634000D01*
X29593531Y-186634000D01*
X29834470Y-186634000D01*
X29882244Y-186627710D01*
X30073345Y-186602552D01*
X30306073Y-186540192D01*
X30481053Y-186467712D01*
X30528662Y-186447993D01*
X30528663Y-186447991D01*
X30528671Y-186447989D01*
X30737329Y-186327520D01*
X30928478Y-186180847D01*
X31098847Y-186010478D01*
X31245520Y-185819329D01*
X31365989Y-185610671D01*
X31458192Y-185388073D01*
X31520552Y-185155345D01*
X31552000Y-184916469D01*
X31552000Y-184675531D01*
X31552000Y-184675530D01*
X152336000Y-184675530D01*
X152336000Y-184916469D01*
X152367447Y-185155341D01*
X152429808Y-185388073D01*
X152522006Y-185610662D01*
X152522011Y-185610671D01*
X152642480Y-185819329D01*
X152642483Y-185819334D01*
X152642485Y-185819336D01*
X152789151Y-186010476D01*
X152789157Y-186010483D01*
X152959516Y-186180842D01*
X152959522Y-186180847D01*
X153150671Y-186327520D01*
X153359329Y-186447989D01*
X153359332Y-186447990D01*
X153359337Y-186447993D01*
X153479424Y-186497734D01*
X153581927Y-186540192D01*
X153814655Y-186602552D01*
X153993812Y-186626138D01*
X154053530Y-186634000D01*
X154053531Y-186634000D01*
X154294470Y-186634000D01*
X154342244Y-186627710D01*
X154533345Y-186602552D01*
X154766073Y-186540192D01*
X154941053Y-186467712D01*
X154988662Y-186447993D01*
X154988663Y-186447991D01*
X154988671Y-186447989D01*
X155197329Y-186327520D01*
X155388478Y-186180847D01*
X155558847Y-186010478D01*
X155705520Y-185819329D01*
X155825989Y-185610671D01*
X155918192Y-185388073D01*
X155980552Y-185155345D01*
X156012000Y-184916469D01*
X156012000Y-184675531D01*
X155980552Y-184436655D01*
X155963774Y-184374038D01*
X158399500Y-184374038D01*
X158399500Y-184625961D01*
X158438910Y-184874785D01*
X158516760Y-185114383D01*
X158631132Y-185338848D01*
X158779201Y-185542649D01*
X158779205Y-185542654D01*
X158957345Y-185720794D01*
X158957350Y-185720798D01*
X159092967Y-185819329D01*
X159161155Y-185868870D01*
X159304184Y-185941747D01*
X159385616Y-185983239D01*
X159385618Y-185983239D01*
X159385621Y-185983241D01*
X159625215Y-186061090D01*
X159874038Y-186100500D01*
X159874039Y-186100500D01*
X160125961Y-186100500D01*
X160125962Y-186100500D01*
X160374785Y-186061090D01*
X160614379Y-185983241D01*
X160838845Y-185868870D01*
X161042656Y-185720793D01*
X161220793Y-185542656D01*
X161368870Y-185338845D01*
X161483241Y-185114379D01*
X161561090Y-184874785D01*
X161600500Y-184625962D01*
X161600500Y-184374038D01*
X161561090Y-184125215D01*
X161483241Y-183885621D01*
X161483239Y-183885618D01*
X161483239Y-183885616D01*
X161425686Y-183772663D01*
X161368870Y-183661155D01*
X161311014Y-183581523D01*
X161220798Y-183457350D01*
X161220794Y-183457345D01*
X161042654Y-183279205D01*
X161042649Y-183279201D01*
X160838848Y-183131132D01*
X160838847Y-183131131D01*
X160838845Y-183131130D01*
X160768747Y-183095413D01*
X160614383Y-183016760D01*
X160374785Y-182938910D01*
X160125962Y-182899500D01*
X159874038Y-182899500D01*
X159749626Y-182919205D01*
X159625214Y-182938910D01*
X159385616Y-183016760D01*
X159161151Y-183131132D01*
X158957350Y-183279201D01*
X158957345Y-183279205D01*
X158779205Y-183457345D01*
X158779201Y-183457350D01*
X158631132Y-183661151D01*
X158516760Y-183885616D01*
X158438910Y-184125214D01*
X158399500Y-184374038D01*
X155963774Y-184374038D01*
X155918192Y-184203927D01*
X155875734Y-184101424D01*
X155825993Y-183981337D01*
X155825988Y-183981328D01*
X155705520Y-183772671D01*
X155558847Y-183581522D01*
X155558842Y-183581516D01*
X155388483Y-183411157D01*
X155388476Y-183411151D01*
X155197336Y-183264485D01*
X155197334Y-183264483D01*
X155197329Y-183264480D01*
X154988671Y-183144011D01*
X154988662Y-183144006D01*
X154766073Y-183051808D01*
X154533345Y-182989448D01*
X154533344Y-182989447D01*
X154533341Y-182989447D01*
X154294470Y-182958000D01*
X154294469Y-182958000D01*
X154053531Y-182958000D01*
X154053530Y-182958000D01*
X153814658Y-182989447D01*
X153581926Y-183051808D01*
X153359337Y-183144006D01*
X153359328Y-183144011D01*
X153233644Y-183216575D01*
X153150671Y-183264480D01*
X153150668Y-183264481D01*
X153150663Y-183264485D01*
X152959523Y-183411151D01*
X152959516Y-183411157D01*
X152789157Y-183581516D01*
X152789151Y-183581523D01*
X152642485Y-183772663D01*
X152522011Y-183981328D01*
X152522006Y-183981337D01*
X152429808Y-184203926D01*
X152367447Y-184436658D01*
X152336000Y-184675530D01*
X31552000Y-184675530D01*
X31520552Y-184436655D01*
X31458192Y-184203927D01*
X31415734Y-184101424D01*
X31365993Y-183981337D01*
X31365988Y-183981328D01*
X31245520Y-183772671D01*
X31098847Y-183581522D01*
X31098842Y-183581516D01*
X30928483Y-183411157D01*
X30928476Y-183411151D01*
X30737336Y-183264485D01*
X30737334Y-183264483D01*
X30737329Y-183264480D01*
X30528671Y-183144011D01*
X30528662Y-183144006D01*
X30306073Y-183051808D01*
X30073345Y-182989448D01*
X30073344Y-182989447D01*
X30073341Y-182989447D01*
X29834470Y-182958000D01*
X29834469Y-182958000D01*
X29593531Y-182958000D01*
X29593530Y-182958000D01*
X29354658Y-182989447D01*
X29121926Y-183051808D01*
X28899337Y-183144006D01*
X28899328Y-183144011D01*
X28773644Y-183216575D01*
X28690671Y-183264480D01*
X28690668Y-183264481D01*
X28690663Y-183264485D01*
X28499523Y-183411151D01*
X28499516Y-183411157D01*
X28329157Y-183581516D01*
X28329151Y-183581523D01*
X28182485Y-183772663D01*
X28062011Y-183981328D01*
X28062006Y-183981337D01*
X27969808Y-184203926D01*
X27907447Y-184436658D01*
X27876000Y-184675530D01*
X25092649Y-184675530D01*
X25100500Y-184625962D01*
X25100500Y-184374038D01*
X25061090Y-184125215D01*
X24983241Y-183885621D01*
X24983239Y-183885618D01*
X24983239Y-183885616D01*
X24925686Y-183772663D01*
X24868870Y-183661155D01*
X24811014Y-183581523D01*
X24720798Y-183457350D01*
X24720794Y-183457345D01*
X24542654Y-183279205D01*
X24542649Y-183279201D01*
X24338848Y-183131132D01*
X24338847Y-183131131D01*
X24338845Y-183131130D01*
X24268747Y-183095413D01*
X24114383Y-183016760D01*
X23874785Y-182938910D01*
X23625962Y-182899500D01*
X23374038Y-182899500D01*
X23249626Y-182919205D01*
X23125214Y-182938910D01*
X22885616Y-183016760D01*
X22661151Y-183131132D01*
X22457350Y-183279201D01*
X22457345Y-183279205D01*
X22279205Y-183457345D01*
X22279201Y-183457350D01*
X22131132Y-183661151D01*
X22016760Y-183885616D01*
X21938910Y-184125214D01*
X21899500Y-184374038D01*
X20500500Y-184374038D01*
X20500500Y-180176135D01*
X27181500Y-180176135D01*
X27181500Y-181795870D01*
X27181501Y-181795876D01*
X27187908Y-181855483D01*
X27238202Y-181990328D01*
X27238206Y-181990335D01*
X27324452Y-182105544D01*
X27324455Y-182105547D01*
X27439664Y-182191793D01*
X27439671Y-182191797D01*
X27574517Y-182242091D01*
X27574516Y-182242091D01*
X27581444Y-182242835D01*
X27634127Y-182248500D01*
X29253872Y-182248499D01*
X29313483Y-182242091D01*
X29448331Y-182191796D01*
X29563546Y-182105546D01*
X29649796Y-181990331D01*
X29700091Y-181855483D01*
X29706500Y-181795873D01*
X29706499Y-181755048D01*
X29726182Y-181688012D01*
X29778985Y-181642256D01*
X29848143Y-181632311D01*
X29911700Y-181661334D01*
X29932074Y-181683925D01*
X29932258Y-181684187D01*
X29932258Y-181684188D01*
X30494504Y-181121941D01*
X30510619Y-181182081D01*
X30577498Y-181297920D01*
X30672080Y-181392502D01*
X30787919Y-181459381D01*
X30848057Y-181475494D01*
X30285810Y-182037740D01*
X30350590Y-182083099D01*
X30350592Y-182083100D01*
X30550715Y-182176419D01*
X30550729Y-182176424D01*
X30764013Y-182233573D01*
X30764023Y-182233575D01*
X30983999Y-182252821D01*
X30984001Y-182252821D01*
X31203976Y-182233575D01*
X31203986Y-182233573D01*
X31417270Y-182176424D01*
X31417284Y-182176419D01*
X31617407Y-182083100D01*
X31617417Y-182083094D01*
X31682188Y-182037741D01*
X31119942Y-181475494D01*
X31180081Y-181459381D01*
X31295920Y-181392502D01*
X31390502Y-181297920D01*
X31457381Y-181182081D01*
X31473495Y-181121942D01*
X32035741Y-181684188D01*
X32081094Y-181619417D01*
X32081100Y-181619407D01*
X32141618Y-181489627D01*
X32187790Y-181437187D01*
X32254983Y-181418035D01*
X32321865Y-181438251D01*
X32366382Y-181489627D01*
X32426898Y-181619405D01*
X32426901Y-181619411D01*
X32472258Y-181684187D01*
X32472258Y-181684188D01*
X33034504Y-181121941D01*
X33050619Y-181182081D01*
X33117498Y-181297920D01*
X33212080Y-181392502D01*
X33327919Y-181459381D01*
X33388057Y-181475494D01*
X32825810Y-182037740D01*
X32890590Y-182083099D01*
X32890592Y-182083100D01*
X33090715Y-182176419D01*
X33090729Y-182176424D01*
X33304013Y-182233573D01*
X33304023Y-182233575D01*
X33523999Y-182252821D01*
X33524001Y-182252821D01*
X33743976Y-182233575D01*
X33743986Y-182233573D01*
X33957270Y-182176424D01*
X33957284Y-182176419D01*
X34157407Y-182083100D01*
X34157417Y-182083094D01*
X34222188Y-182037741D01*
X33659942Y-181475494D01*
X33720081Y-181459381D01*
X33835920Y-181392502D01*
X33930502Y-181297920D01*
X33997381Y-181182081D01*
X34013495Y-181121942D01*
X34575741Y-181684188D01*
X34621094Y-181619417D01*
X34621100Y-181619407D01*
X34714419Y-181419284D01*
X34714424Y-181419270D01*
X34771573Y-181205986D01*
X34771575Y-181205976D01*
X34790821Y-180986000D01*
X34790821Y-180985999D01*
X34771575Y-180766023D01*
X34771573Y-180766013D01*
X34714424Y-180552729D01*
X34714420Y-180552720D01*
X34621096Y-180352586D01*
X34575741Y-180287811D01*
X34575740Y-180287810D01*
X34013494Y-180850056D01*
X33997381Y-180789919D01*
X33930502Y-180674080D01*
X33835920Y-180579498D01*
X33720081Y-180512619D01*
X33659941Y-180496504D01*
X34222188Y-179934258D01*
X34157411Y-179888901D01*
X34157405Y-179888898D01*
X33957284Y-179795580D01*
X33957270Y-179795575D01*
X33743986Y-179738426D01*
X33743976Y-179738424D01*
X33524001Y-179719179D01*
X33523999Y-179719179D01*
X33304023Y-179738424D01*
X33304013Y-179738426D01*
X33090729Y-179795575D01*
X33090720Y-179795579D01*
X32890590Y-179888901D01*
X32825811Y-179934258D01*
X33388058Y-180496504D01*
X33327919Y-180512619D01*
X33212080Y-180579498D01*
X33117498Y-180674080D01*
X33050619Y-180789919D01*
X33034504Y-180850057D01*
X32472258Y-180287811D01*
X32426901Y-180352590D01*
X32366382Y-180482373D01*
X32320209Y-180534812D01*
X32253016Y-180553964D01*
X32186135Y-180533748D01*
X32141618Y-180482373D01*
X32081096Y-180352586D01*
X32035741Y-180287811D01*
X32035740Y-180287810D01*
X31473494Y-180850056D01*
X31457381Y-180789919D01*
X31390502Y-180674080D01*
X31295920Y-180579498D01*
X31180081Y-180512619D01*
X31119941Y-180496504D01*
X31682188Y-179934258D01*
X31617411Y-179888901D01*
X31617405Y-179888898D01*
X31417284Y-179795580D01*
X31417270Y-179795575D01*
X31203986Y-179738426D01*
X31203976Y-179738424D01*
X30984001Y-179719179D01*
X30983999Y-179719179D01*
X30764023Y-179738424D01*
X30764013Y-179738426D01*
X30550729Y-179795575D01*
X30550720Y-179795579D01*
X30350590Y-179888901D01*
X30285811Y-179934258D01*
X30848058Y-180496504D01*
X30787919Y-180512619D01*
X30672080Y-180579498D01*
X30577498Y-180674080D01*
X30510619Y-180789919D01*
X30494504Y-180850057D01*
X29932257Y-180287810D01*
X29932075Y-180288072D01*
X29877498Y-180331698D01*
X29808000Y-180338892D01*
X29745645Y-180307370D01*
X29710230Y-180247141D01*
X29706499Y-180216950D01*
X29706499Y-180176129D01*
X29706498Y-180176123D01*
X29706497Y-180176116D01*
X29700091Y-180116517D01*
X29693303Y-180098318D01*
X29649797Y-179981671D01*
X29649793Y-179981664D01*
X29563547Y-179866455D01*
X29563544Y-179866452D01*
X29448335Y-179780206D01*
X29448328Y-179780202D01*
X29313482Y-179729908D01*
X29313483Y-179729908D01*
X29253883Y-179723501D01*
X29253881Y-179723500D01*
X29253873Y-179723500D01*
X29253864Y-179723500D01*
X27634129Y-179723500D01*
X27634123Y-179723501D01*
X27574516Y-179729908D01*
X27439671Y-179780202D01*
X27439664Y-179780206D01*
X27324455Y-179866452D01*
X27324452Y-179866455D01*
X27238206Y-179981664D01*
X27238202Y-179981671D01*
X27187908Y-180116517D01*
X27183276Y-180159609D01*
X27181501Y-180176123D01*
X27181500Y-180176135D01*
X20500500Y-180176135D01*
X20500500Y-168285997D01*
X27176677Y-168285997D01*
X27176677Y-168286002D01*
X27195929Y-168506062D01*
X27195930Y-168506070D01*
X27253104Y-168719445D01*
X27253105Y-168719447D01*
X27253106Y-168719450D01*
X27346466Y-168919662D01*
X27346468Y-168919666D01*
X27473170Y-169100615D01*
X27473175Y-169100621D01*
X27629378Y-169256824D01*
X27629384Y-169256829D01*
X27810333Y-169383531D01*
X27810335Y-169383532D01*
X27810338Y-169383534D01*
X27929748Y-169439215D01*
X27939189Y-169443618D01*
X27991628Y-169489790D01*
X28010780Y-169556984D01*
X27990564Y-169623865D01*
X27939189Y-169668382D01*
X27810340Y-169728465D01*
X27810338Y-169728466D01*
X27629377Y-169855175D01*
X27473175Y-170011377D01*
X27346466Y-170192338D01*
X27346465Y-170192340D01*
X27253107Y-170392548D01*
X27253104Y-170392554D01*
X27195930Y-170605929D01*
X27195929Y-170605937D01*
X27176677Y-170825997D01*
X27176677Y-170826002D01*
X27195929Y-171046062D01*
X27195930Y-171046070D01*
X27253104Y-171259445D01*
X27253105Y-171259447D01*
X27253106Y-171259450D01*
X27346466Y-171459662D01*
X27346468Y-171459666D01*
X27473170Y-171640615D01*
X27473175Y-171640621D01*
X27629378Y-171796824D01*
X27629384Y-171796829D01*
X27810333Y-171923531D01*
X27810335Y-171923532D01*
X27810338Y-171923534D01*
X27929748Y-171979215D01*
X27939189Y-171983618D01*
X27991628Y-172029790D01*
X28010780Y-172096984D01*
X27990564Y-172163865D01*
X27939189Y-172208382D01*
X27810340Y-172268465D01*
X27810338Y-172268466D01*
X27629377Y-172395175D01*
X27473175Y-172551377D01*
X27346466Y-172732338D01*
X27346465Y-172732340D01*
X27253107Y-172932548D01*
X27253104Y-172932554D01*
X27195930Y-173145929D01*
X27195929Y-173145937D01*
X27176677Y-173365997D01*
X27176677Y-173366002D01*
X27195929Y-173586062D01*
X27195930Y-173586070D01*
X27253104Y-173799445D01*
X27253105Y-173799447D01*
X27253106Y-173799450D01*
X27346466Y-173999662D01*
X27346468Y-173999666D01*
X27473170Y-174180615D01*
X27473175Y-174180621D01*
X27629378Y-174336824D01*
X27629384Y-174336829D01*
X27745202Y-174417925D01*
X27788827Y-174472502D01*
X27796021Y-174542000D01*
X27764498Y-174604355D01*
X27704269Y-174639769D01*
X27674082Y-174643500D01*
X27634131Y-174643500D01*
X27634123Y-174643501D01*
X27574516Y-174649908D01*
X27439671Y-174700202D01*
X27439664Y-174700206D01*
X27324455Y-174786452D01*
X27324452Y-174786455D01*
X27238206Y-174901664D01*
X27238202Y-174901671D01*
X27187908Y-175036517D01*
X27181501Y-175096116D01*
X27181501Y-175096123D01*
X27181500Y-175096135D01*
X27181500Y-176715870D01*
X27181501Y-176715876D01*
X27187908Y-176775483D01*
X27238202Y-176910328D01*
X27238206Y-176910335D01*
X27324452Y-177025544D01*
X27324455Y-177025547D01*
X27439664Y-177111793D01*
X27439671Y-177111797D01*
X27574517Y-177162091D01*
X27574516Y-177162091D01*
X27581444Y-177162835D01*
X27634127Y-177168500D01*
X29253872Y-177168499D01*
X29313483Y-177162091D01*
X29448331Y-177111796D01*
X29563546Y-177025546D01*
X29649796Y-176910331D01*
X29700091Y-176775483D01*
X29706500Y-176715873D01*
X29706499Y-175096128D01*
X29700091Y-175036517D01*
X29649796Y-174901669D01*
X29649795Y-174901668D01*
X29649793Y-174901664D01*
X29563547Y-174786455D01*
X29563544Y-174786452D01*
X29448335Y-174700206D01*
X29448328Y-174700202D01*
X29313482Y-174649908D01*
X29313483Y-174649908D01*
X29253883Y-174643501D01*
X29253881Y-174643500D01*
X29253873Y-174643500D01*
X29253865Y-174643500D01*
X29213921Y-174643500D01*
X29146882Y-174623815D01*
X29101127Y-174571011D01*
X29091183Y-174501853D01*
X29120208Y-174438297D01*
X29142798Y-174417925D01*
X29258620Y-174336826D01*
X29414826Y-174180620D01*
X29541534Y-173999662D01*
X29634894Y-173799450D01*
X29692070Y-173586068D01*
X29711323Y-173366000D01*
X29692070Y-173145932D01*
X29634894Y-172932550D01*
X29541534Y-172732339D01*
X29414826Y-172551380D01*
X29258620Y-172395174D01*
X29258616Y-172395171D01*
X29258615Y-172395170D01*
X29077666Y-172268468D01*
X29077658Y-172268464D01*
X28948811Y-172208382D01*
X28896371Y-172162210D01*
X28877219Y-172095017D01*
X28897435Y-172028135D01*
X28948811Y-171983618D01*
X28954802Y-171980824D01*
X29077662Y-171923534D01*
X29258620Y-171796826D01*
X29414826Y-171640620D01*
X29541534Y-171459662D01*
X29634894Y-171259450D01*
X29692070Y-171046068D01*
X29711323Y-170826000D01*
X29692070Y-170605932D01*
X29634894Y-170392550D01*
X29541534Y-170192339D01*
X29414826Y-170011380D01*
X29258620Y-169855174D01*
X29258616Y-169855171D01*
X29258615Y-169855170D01*
X29077666Y-169728468D01*
X29077658Y-169728464D01*
X28948811Y-169668382D01*
X28896371Y-169622210D01*
X28877219Y-169555017D01*
X28897435Y-169488135D01*
X28948811Y-169443618D01*
X28954802Y-169440824D01*
X29077662Y-169383534D01*
X29258620Y-169256826D01*
X29414826Y-169100620D01*
X29541534Y-168919662D01*
X29634894Y-168719450D01*
X29692070Y-168506068D01*
X29711323Y-168286000D01*
X29692070Y-168065932D01*
X29634894Y-167852550D01*
X29541534Y-167652339D01*
X29414826Y-167471380D01*
X29258620Y-167315174D01*
X29258616Y-167315171D01*
X29258615Y-167315170D01*
X29077666Y-167188468D01*
X29077662Y-167188466D01*
X28948218Y-167128105D01*
X28895779Y-167081932D01*
X28876627Y-167014739D01*
X28896843Y-166947858D01*
X28948219Y-166903340D01*
X29077416Y-166843095D01*
X29077417Y-166843094D01*
X29142188Y-166797741D01*
X28579942Y-166235494D01*
X28640081Y-166219381D01*
X28755920Y-166152502D01*
X28850502Y-166057920D01*
X28917381Y-165942081D01*
X28933495Y-165881942D01*
X29495741Y-166444188D01*
X29541094Y-166379417D01*
X29541100Y-166379407D01*
X29634419Y-166179284D01*
X29634424Y-166179270D01*
X29691573Y-165965986D01*
X29691575Y-165965976D01*
X29710821Y-165746000D01*
X29710821Y-165745999D01*
X29691575Y-165526023D01*
X29691573Y-165526013D01*
X29634424Y-165312729D01*
X29634420Y-165312720D01*
X29541096Y-165112586D01*
X29495741Y-165047811D01*
X29495740Y-165047810D01*
X28933494Y-165610056D01*
X28917381Y-165549919D01*
X28850502Y-165434080D01*
X28755920Y-165339498D01*
X28640081Y-165272619D01*
X28579941Y-165256504D01*
X29142188Y-164694258D01*
X29077411Y-164648901D01*
X29077405Y-164648898D01*
X28877284Y-164555580D01*
X28877270Y-164555575D01*
X28663986Y-164498426D01*
X28663976Y-164498424D01*
X28444001Y-164479179D01*
X28443999Y-164479179D01*
X28224023Y-164498424D01*
X28224013Y-164498426D01*
X28010729Y-164555575D01*
X28010720Y-164555579D01*
X27810590Y-164648901D01*
X27745811Y-164694258D01*
X28308058Y-165256504D01*
X28247919Y-165272619D01*
X28132080Y-165339498D01*
X28037498Y-165434080D01*
X27970619Y-165549919D01*
X27954504Y-165610057D01*
X27392258Y-165047811D01*
X27346901Y-165112590D01*
X27253579Y-165312720D01*
X27253575Y-165312729D01*
X27196426Y-165526013D01*
X27196424Y-165526023D01*
X27177179Y-165745999D01*
X27177179Y-165746000D01*
X27196424Y-165965976D01*
X27196426Y-165965986D01*
X27253575Y-166179270D01*
X27253580Y-166179284D01*
X27346898Y-166379405D01*
X27346901Y-166379411D01*
X27392258Y-166444187D01*
X27392258Y-166444188D01*
X27954504Y-165881941D01*
X27970619Y-165942081D01*
X28037498Y-166057920D01*
X28132080Y-166152502D01*
X28247919Y-166219381D01*
X28308057Y-166235494D01*
X27745810Y-166797740D01*
X27810589Y-166843098D01*
X27939781Y-166903342D01*
X27992220Y-166949514D01*
X28011372Y-167016708D01*
X27991156Y-167083589D01*
X27939781Y-167128106D01*
X27810340Y-167188465D01*
X27810338Y-167188466D01*
X27629377Y-167315175D01*
X27473175Y-167471377D01*
X27346466Y-167652338D01*
X27346465Y-167652340D01*
X27253107Y-167852548D01*
X27253104Y-167852554D01*
X27195930Y-168065929D01*
X27195929Y-168065937D01*
X27176677Y-168285997D01*
X20500500Y-168285997D01*
X20500500Y-153045997D01*
X27176677Y-153045997D01*
X27176677Y-153046002D01*
X27195929Y-153266062D01*
X27195930Y-153266070D01*
X27253104Y-153479445D01*
X27253105Y-153479447D01*
X27253106Y-153479450D01*
X27346466Y-153679662D01*
X27346468Y-153679666D01*
X27473170Y-153860615D01*
X27473175Y-153860621D01*
X27629378Y-154016824D01*
X27629384Y-154016829D01*
X27810333Y-154143531D01*
X27810335Y-154143532D01*
X27810338Y-154143534D01*
X27929748Y-154199215D01*
X27939189Y-154203618D01*
X27991628Y-154249790D01*
X28010780Y-154316984D01*
X27990564Y-154383865D01*
X27939189Y-154428382D01*
X27810340Y-154488465D01*
X27810338Y-154488466D01*
X27629377Y-154615175D01*
X27473175Y-154771377D01*
X27346466Y-154952338D01*
X27346465Y-154952340D01*
X27253107Y-155152548D01*
X27253104Y-155152554D01*
X27195930Y-155365929D01*
X27195929Y-155365937D01*
X27176677Y-155585997D01*
X27176677Y-155586002D01*
X27195929Y-155806062D01*
X27195930Y-155806070D01*
X27253104Y-156019445D01*
X27253105Y-156019447D01*
X27253106Y-156019450D01*
X27346466Y-156219662D01*
X27346468Y-156219666D01*
X27473170Y-156400615D01*
X27473175Y-156400621D01*
X27629378Y-156556824D01*
X27629384Y-156556829D01*
X27810333Y-156683531D01*
X27810335Y-156683532D01*
X27810338Y-156683534D01*
X27929748Y-156739215D01*
X27939189Y-156743618D01*
X27991628Y-156789790D01*
X28010780Y-156856984D01*
X27990564Y-156923865D01*
X27939189Y-156968382D01*
X27810340Y-157028465D01*
X27810338Y-157028466D01*
X27629377Y-157155175D01*
X27473175Y-157311377D01*
X27346466Y-157492338D01*
X27346465Y-157492340D01*
X27253107Y-157692548D01*
X27253104Y-157692554D01*
X27195930Y-157905929D01*
X27195929Y-157905937D01*
X27176677Y-158125997D01*
X27176677Y-158126002D01*
X27195929Y-158346062D01*
X27195930Y-158346070D01*
X27253104Y-158559445D01*
X27253105Y-158559447D01*
X27253106Y-158559450D01*
X27346466Y-158759662D01*
X27346468Y-158759666D01*
X27473170Y-158940615D01*
X27473175Y-158940621D01*
X27629378Y-159096824D01*
X27629384Y-159096829D01*
X27745202Y-159177925D01*
X27788827Y-159232502D01*
X27796021Y-159302000D01*
X27764498Y-159364355D01*
X27704269Y-159399769D01*
X27674082Y-159403500D01*
X27634131Y-159403500D01*
X27634123Y-159403501D01*
X27574516Y-159409908D01*
X27439671Y-159460202D01*
X27439664Y-159460206D01*
X27324455Y-159546452D01*
X27324452Y-159546455D01*
X27238206Y-159661664D01*
X27238202Y-159661671D01*
X27187908Y-159796517D01*
X27181501Y-159856116D01*
X27181501Y-159856123D01*
X27181500Y-159856135D01*
X27181500Y-161475870D01*
X27181501Y-161475876D01*
X27187908Y-161535483D01*
X27238202Y-161670328D01*
X27238206Y-161670335D01*
X27324452Y-161785544D01*
X27324455Y-161785547D01*
X27439664Y-161871793D01*
X27439671Y-161871797D01*
X27574517Y-161922091D01*
X27574516Y-161922091D01*
X27581444Y-161922835D01*
X27634127Y-161928500D01*
X29253872Y-161928499D01*
X29313483Y-161922091D01*
X29448331Y-161871796D01*
X29563546Y-161785546D01*
X29649796Y-161670331D01*
X29700091Y-161535483D01*
X29706500Y-161475873D01*
X29706499Y-159856128D01*
X29700091Y-159796517D01*
X29649796Y-159661669D01*
X29649795Y-159661668D01*
X29649793Y-159661664D01*
X29563547Y-159546455D01*
X29563544Y-159546452D01*
X29448335Y-159460206D01*
X29448328Y-159460202D01*
X29313482Y-159409908D01*
X29313483Y-159409908D01*
X29253883Y-159403501D01*
X29253881Y-159403500D01*
X29253873Y-159403500D01*
X29253865Y-159403500D01*
X29213921Y-159403500D01*
X29146882Y-159383815D01*
X29101127Y-159331011D01*
X29091183Y-159261853D01*
X29120208Y-159198297D01*
X29142798Y-159177925D01*
X29258620Y-159096826D01*
X29414826Y-158940620D01*
X29541534Y-158759662D01*
X29634894Y-158559450D01*
X29692070Y-158346068D01*
X29711323Y-158126000D01*
X29692070Y-157905932D01*
X29634894Y-157692550D01*
X29541534Y-157492339D01*
X29414826Y-157311380D01*
X29258620Y-157155174D01*
X29258616Y-157155171D01*
X29258615Y-157155170D01*
X29077666Y-157028468D01*
X29077658Y-157028464D01*
X28948811Y-156968382D01*
X28896371Y-156922210D01*
X28877219Y-156855017D01*
X28897435Y-156788135D01*
X28948811Y-156743618D01*
X28954802Y-156740824D01*
X29077662Y-156683534D01*
X29258620Y-156556826D01*
X29414826Y-156400620D01*
X29541534Y-156219662D01*
X29634894Y-156019450D01*
X29692070Y-155806068D01*
X29711323Y-155586000D01*
X29692070Y-155365932D01*
X29634894Y-155152550D01*
X29541534Y-154952339D01*
X29414826Y-154771380D01*
X29258620Y-154615174D01*
X29258616Y-154615171D01*
X29258615Y-154615170D01*
X29077666Y-154488468D01*
X29077658Y-154488464D01*
X28948811Y-154428382D01*
X28896371Y-154382210D01*
X28877219Y-154315017D01*
X28897435Y-154248135D01*
X28948811Y-154203618D01*
X28954802Y-154200824D01*
X29077662Y-154143534D01*
X29258620Y-154016826D01*
X29414826Y-153860620D01*
X29541534Y-153679662D01*
X29634894Y-153479450D01*
X29692070Y-153266068D01*
X29711323Y-153046000D01*
X29692070Y-152825932D01*
X29634894Y-152612550D01*
X29541534Y-152412339D01*
X29414826Y-152231380D01*
X29258620Y-152075174D01*
X29258616Y-152075171D01*
X29258615Y-152075170D01*
X29077666Y-151948468D01*
X29077662Y-151948466D01*
X28948218Y-151888105D01*
X28895779Y-151841932D01*
X28876627Y-151774739D01*
X28896843Y-151707858D01*
X28948219Y-151663340D01*
X29077416Y-151603095D01*
X29077417Y-151603094D01*
X29142188Y-151557741D01*
X28579942Y-150995494D01*
X28640081Y-150979381D01*
X28755920Y-150912502D01*
X28850502Y-150817920D01*
X28917381Y-150702081D01*
X28933495Y-150641942D01*
X29495741Y-151204188D01*
X29541094Y-151139417D01*
X29541100Y-151139407D01*
X29634419Y-150939284D01*
X29634424Y-150939270D01*
X29691573Y-150725986D01*
X29691575Y-150725976D01*
X29710821Y-150506000D01*
X29710821Y-150505999D01*
X29691575Y-150286023D01*
X29691573Y-150286013D01*
X29634424Y-150072729D01*
X29634420Y-150072720D01*
X29541096Y-149872586D01*
X29495741Y-149807811D01*
X29495740Y-149807810D01*
X28933494Y-150370056D01*
X28917381Y-150309919D01*
X28850502Y-150194080D01*
X28755920Y-150099498D01*
X28640081Y-150032619D01*
X28579941Y-150016504D01*
X29142188Y-149454258D01*
X29077411Y-149408901D01*
X29077405Y-149408898D01*
X28877284Y-149315580D01*
X28877270Y-149315575D01*
X28663986Y-149258426D01*
X28663976Y-149258424D01*
X28444001Y-149239179D01*
X28443999Y-149239179D01*
X28224023Y-149258424D01*
X28224013Y-149258426D01*
X28010729Y-149315575D01*
X28010720Y-149315579D01*
X27810590Y-149408901D01*
X27745811Y-149454258D01*
X28308058Y-150016504D01*
X28247919Y-150032619D01*
X28132080Y-150099498D01*
X28037498Y-150194080D01*
X27970619Y-150309919D01*
X27954504Y-150370057D01*
X27392258Y-149807811D01*
X27346901Y-149872590D01*
X27253579Y-150072720D01*
X27253575Y-150072729D01*
X27196426Y-150286013D01*
X27196424Y-150286023D01*
X27177179Y-150505999D01*
X27177179Y-150506000D01*
X27196424Y-150725976D01*
X27196426Y-150725986D01*
X27253575Y-150939270D01*
X27253580Y-150939284D01*
X27346898Y-151139405D01*
X27346901Y-151139411D01*
X27392258Y-151204187D01*
X27392258Y-151204188D01*
X27954504Y-150641941D01*
X27970619Y-150702081D01*
X28037498Y-150817920D01*
X28132080Y-150912502D01*
X28247919Y-150979381D01*
X28308057Y-150995494D01*
X27745810Y-151557740D01*
X27810589Y-151603098D01*
X27939781Y-151663342D01*
X27992220Y-151709514D01*
X28011372Y-151776708D01*
X27991156Y-151843589D01*
X27939781Y-151888106D01*
X27810340Y-151948465D01*
X27810338Y-151948466D01*
X27629377Y-152075175D01*
X27473175Y-152231377D01*
X27346466Y-152412338D01*
X27346465Y-152412340D01*
X27253107Y-152612548D01*
X27253104Y-152612554D01*
X27195930Y-152825929D01*
X27195929Y-152825937D01*
X27176677Y-153045997D01*
X20500500Y-153045997D01*
X20500500Y-142885997D01*
X27176677Y-142885997D01*
X27176677Y-142886002D01*
X27195929Y-143106062D01*
X27195930Y-143106070D01*
X27253104Y-143319445D01*
X27253105Y-143319447D01*
X27253106Y-143319450D01*
X27346466Y-143519662D01*
X27346468Y-143519666D01*
X27473170Y-143700615D01*
X27473175Y-143700621D01*
X27629378Y-143856824D01*
X27629384Y-143856829D01*
X27745202Y-143937925D01*
X27788827Y-143992502D01*
X27796021Y-144062000D01*
X27764498Y-144124355D01*
X27704269Y-144159769D01*
X27674082Y-144163500D01*
X27634131Y-144163500D01*
X27634123Y-144163501D01*
X27574516Y-144169908D01*
X27439671Y-144220202D01*
X27439664Y-144220206D01*
X27324455Y-144306452D01*
X27324452Y-144306455D01*
X27238206Y-144421664D01*
X27238202Y-144421671D01*
X27187908Y-144556517D01*
X27181501Y-144616116D01*
X27181501Y-144616123D01*
X27181500Y-144616135D01*
X27181500Y-146235870D01*
X27181501Y-146235876D01*
X27187908Y-146295483D01*
X27238202Y-146430328D01*
X27238206Y-146430335D01*
X27324452Y-146545544D01*
X27324455Y-146545547D01*
X27439664Y-146631793D01*
X27439671Y-146631797D01*
X27574517Y-146682091D01*
X27574516Y-146682091D01*
X27581444Y-146682835D01*
X27634127Y-146688500D01*
X29253872Y-146688499D01*
X29313483Y-146682091D01*
X29448331Y-146631796D01*
X29563546Y-146545546D01*
X29649796Y-146430331D01*
X29700091Y-146295483D01*
X29706500Y-146235873D01*
X29706499Y-144616128D01*
X29700091Y-144556517D01*
X29649796Y-144421669D01*
X29649795Y-144421668D01*
X29649793Y-144421664D01*
X29563547Y-144306455D01*
X29563544Y-144306452D01*
X29448335Y-144220206D01*
X29448328Y-144220202D01*
X29313482Y-144169908D01*
X29313483Y-144169908D01*
X29253883Y-144163501D01*
X29253881Y-144163500D01*
X29253873Y-144163500D01*
X29253865Y-144163500D01*
X29213921Y-144163500D01*
X29146882Y-144143815D01*
X29101127Y-144091011D01*
X29091183Y-144021853D01*
X29120208Y-143958297D01*
X29142798Y-143937925D01*
X29258620Y-143856826D01*
X29414826Y-143700620D01*
X29541534Y-143519662D01*
X29634894Y-143319450D01*
X29692070Y-143106068D01*
X29711323Y-142886000D01*
X29692070Y-142665932D01*
X29634894Y-142452550D01*
X29541534Y-142252339D01*
X29414826Y-142071380D01*
X29258620Y-141915174D01*
X29258616Y-141915171D01*
X29258615Y-141915170D01*
X29077666Y-141788468D01*
X29077662Y-141788466D01*
X28948218Y-141728105D01*
X28895779Y-141681932D01*
X28876627Y-141614739D01*
X28896843Y-141547858D01*
X28948219Y-141503340D01*
X29077416Y-141443095D01*
X29077417Y-141443094D01*
X29142188Y-141397741D01*
X28579942Y-140835494D01*
X28640081Y-140819381D01*
X28755920Y-140752502D01*
X28850502Y-140657920D01*
X28917381Y-140542081D01*
X28933495Y-140481942D01*
X29495741Y-141044188D01*
X29541094Y-140979417D01*
X29541100Y-140979407D01*
X29634419Y-140779284D01*
X29634424Y-140779270D01*
X29691573Y-140565986D01*
X29691575Y-140565976D01*
X29710821Y-140346000D01*
X29710821Y-140345999D01*
X29691575Y-140126023D01*
X29691573Y-140126013D01*
X29634424Y-139912729D01*
X29634420Y-139912720D01*
X29541096Y-139712586D01*
X29495741Y-139647811D01*
X29495740Y-139647810D01*
X28933494Y-140210056D01*
X28917381Y-140149919D01*
X28850502Y-140034080D01*
X28755920Y-139939498D01*
X28640081Y-139872619D01*
X28579941Y-139856504D01*
X29142188Y-139294258D01*
X29077411Y-139248901D01*
X29077405Y-139248898D01*
X28877284Y-139155580D01*
X28877270Y-139155575D01*
X28663986Y-139098426D01*
X28663976Y-139098424D01*
X28444001Y-139079179D01*
X28443999Y-139079179D01*
X28224023Y-139098424D01*
X28224013Y-139098426D01*
X28010729Y-139155575D01*
X28010720Y-139155579D01*
X27810590Y-139248901D01*
X27745811Y-139294258D01*
X28308058Y-139856504D01*
X28247919Y-139872619D01*
X28132080Y-139939498D01*
X28037498Y-140034080D01*
X27970619Y-140149919D01*
X27954504Y-140210057D01*
X27392258Y-139647811D01*
X27346901Y-139712590D01*
X27253579Y-139912720D01*
X27253575Y-139912729D01*
X27196426Y-140126013D01*
X27196424Y-140126023D01*
X27177179Y-140345999D01*
X27177179Y-140346000D01*
X27196424Y-140565976D01*
X27196426Y-140565986D01*
X27253575Y-140779270D01*
X27253580Y-140779284D01*
X27346898Y-140979405D01*
X27346901Y-140979411D01*
X27392258Y-141044187D01*
X27392258Y-141044188D01*
X27954504Y-140481941D01*
X27970619Y-140542081D01*
X28037498Y-140657920D01*
X28132080Y-140752502D01*
X28247919Y-140819381D01*
X28308057Y-140835494D01*
X27745810Y-141397740D01*
X27810589Y-141443098D01*
X27939781Y-141503342D01*
X27992220Y-141549514D01*
X28011372Y-141616708D01*
X27991156Y-141683589D01*
X27939781Y-141728106D01*
X27810340Y-141788465D01*
X27810338Y-141788466D01*
X27629377Y-141915175D01*
X27473175Y-142071377D01*
X27346466Y-142252338D01*
X27346465Y-142252340D01*
X27253107Y-142452548D01*
X27253104Y-142452554D01*
X27195930Y-142665929D01*
X27195929Y-142665937D01*
X27176677Y-142885997D01*
X20500500Y-142885997D01*
X20500500Y-134456135D01*
X27181500Y-134456135D01*
X27181500Y-136075870D01*
X27181501Y-136075876D01*
X27187908Y-136135483D01*
X27238202Y-136270328D01*
X27238206Y-136270335D01*
X27324452Y-136385544D01*
X27324455Y-136385547D01*
X27439664Y-136471793D01*
X27439671Y-136471797D01*
X27574517Y-136522091D01*
X27574516Y-136522091D01*
X27581444Y-136522835D01*
X27634127Y-136528500D01*
X29253872Y-136528499D01*
X29313483Y-136522091D01*
X29448331Y-136471796D01*
X29563546Y-136385546D01*
X29649796Y-136270331D01*
X29700091Y-136135483D01*
X29706500Y-136075873D01*
X29706499Y-136035048D01*
X29726182Y-135968012D01*
X29778985Y-135922256D01*
X29848143Y-135912311D01*
X29911700Y-135941334D01*
X29932074Y-135963925D01*
X29932258Y-135964187D01*
X29932258Y-135964188D01*
X30494504Y-135401941D01*
X30510619Y-135462081D01*
X30577498Y-135577920D01*
X30672080Y-135672502D01*
X30787919Y-135739381D01*
X30848057Y-135755494D01*
X30285810Y-136317740D01*
X30350590Y-136363099D01*
X30350592Y-136363100D01*
X30550715Y-136456419D01*
X30550729Y-136456424D01*
X30764013Y-136513573D01*
X30764023Y-136513575D01*
X30983999Y-136532821D01*
X30984001Y-136532821D01*
X31203976Y-136513575D01*
X31203986Y-136513573D01*
X31417270Y-136456424D01*
X31417284Y-136456419D01*
X31617407Y-136363100D01*
X31617417Y-136363094D01*
X31682188Y-136317741D01*
X31119942Y-135755494D01*
X31180081Y-135739381D01*
X31295920Y-135672502D01*
X31390502Y-135577920D01*
X31457381Y-135462081D01*
X31473495Y-135401942D01*
X32035741Y-135964188D01*
X32081094Y-135899417D01*
X32081100Y-135899407D01*
X32141618Y-135769627D01*
X32187790Y-135717187D01*
X32254983Y-135698035D01*
X32321865Y-135718251D01*
X32366382Y-135769627D01*
X32426898Y-135899405D01*
X32426901Y-135899411D01*
X32472258Y-135964187D01*
X32472258Y-135964188D01*
X33034504Y-135401941D01*
X33050619Y-135462081D01*
X33117498Y-135577920D01*
X33212080Y-135672502D01*
X33327919Y-135739381D01*
X33388057Y-135755494D01*
X32825810Y-136317740D01*
X32890590Y-136363099D01*
X32890592Y-136363100D01*
X33090715Y-136456419D01*
X33090729Y-136456424D01*
X33304013Y-136513573D01*
X33304023Y-136513575D01*
X33523999Y-136532821D01*
X33524001Y-136532821D01*
X33743976Y-136513575D01*
X33743986Y-136513573D01*
X33957270Y-136456424D01*
X33957284Y-136456419D01*
X34157407Y-136363100D01*
X34157417Y-136363094D01*
X34222188Y-136317741D01*
X33659942Y-135755494D01*
X33720081Y-135739381D01*
X33835920Y-135672502D01*
X33930502Y-135577920D01*
X33997381Y-135462081D01*
X34013495Y-135401942D01*
X34575741Y-135964188D01*
X34621094Y-135899417D01*
X34621100Y-135899407D01*
X34714419Y-135699284D01*
X34714424Y-135699270D01*
X34771573Y-135485986D01*
X34771575Y-135485976D01*
X34790821Y-135266000D01*
X34790821Y-135265999D01*
X34771575Y-135046023D01*
X34771573Y-135046013D01*
X34714424Y-134832729D01*
X34714420Y-134832720D01*
X34621096Y-134632586D01*
X34575741Y-134567811D01*
X34575740Y-134567810D01*
X34013494Y-135130056D01*
X33997381Y-135069919D01*
X33930502Y-134954080D01*
X33835920Y-134859498D01*
X33720081Y-134792619D01*
X33659941Y-134776504D01*
X34222188Y-134214258D01*
X34157411Y-134168901D01*
X34157405Y-134168898D01*
X33957284Y-134075580D01*
X33957270Y-134075575D01*
X33743986Y-134018426D01*
X33743976Y-134018424D01*
X33524001Y-133999179D01*
X33523999Y-133999179D01*
X33304023Y-134018424D01*
X33304013Y-134018426D01*
X33090729Y-134075575D01*
X33090720Y-134075579D01*
X32890590Y-134168901D01*
X32825811Y-134214258D01*
X33388058Y-134776504D01*
X33327919Y-134792619D01*
X33212080Y-134859498D01*
X33117498Y-134954080D01*
X33050619Y-135069919D01*
X33034504Y-135130057D01*
X32472258Y-134567811D01*
X32426901Y-134632590D01*
X32366382Y-134762373D01*
X32320209Y-134814812D01*
X32253016Y-134833964D01*
X32186135Y-134813748D01*
X32141618Y-134762373D01*
X32081096Y-134632586D01*
X32035741Y-134567811D01*
X32035740Y-134567810D01*
X31473494Y-135130056D01*
X31457381Y-135069919D01*
X31390502Y-134954080D01*
X31295920Y-134859498D01*
X31180081Y-134792619D01*
X31119941Y-134776504D01*
X31682188Y-134214258D01*
X31617411Y-134168901D01*
X31617405Y-134168898D01*
X31417284Y-134075580D01*
X31417270Y-134075575D01*
X31203986Y-134018426D01*
X31203976Y-134018424D01*
X30984001Y-133999179D01*
X30983999Y-133999179D01*
X30764023Y-134018424D01*
X30764013Y-134018426D01*
X30550729Y-134075575D01*
X30550720Y-134075579D01*
X30350590Y-134168901D01*
X30285811Y-134214258D01*
X30848058Y-134776504D01*
X30787919Y-134792619D01*
X30672080Y-134859498D01*
X30577498Y-134954080D01*
X30510619Y-135069919D01*
X30494504Y-135130057D01*
X29932257Y-134567810D01*
X29932075Y-134568072D01*
X29877498Y-134611698D01*
X29808000Y-134618892D01*
X29745645Y-134587370D01*
X29710230Y-134527141D01*
X29706499Y-134496950D01*
X29706499Y-134456129D01*
X29706498Y-134456123D01*
X29706497Y-134456116D01*
X29700091Y-134396517D01*
X29693303Y-134378318D01*
X29649797Y-134261671D01*
X29649793Y-134261664D01*
X29563547Y-134146455D01*
X29563544Y-134146452D01*
X29448335Y-134060206D01*
X29448328Y-134060202D01*
X29313482Y-134009908D01*
X29313483Y-134009908D01*
X29253883Y-134003501D01*
X29253881Y-134003500D01*
X29253873Y-134003500D01*
X29253864Y-134003500D01*
X27634129Y-134003500D01*
X27634123Y-134003501D01*
X27574516Y-134009908D01*
X27439671Y-134060202D01*
X27439664Y-134060206D01*
X27324455Y-134146452D01*
X27324452Y-134146455D01*
X27238206Y-134261664D01*
X27238202Y-134261671D01*
X27187908Y-134396517D01*
X27182919Y-134442928D01*
X27181501Y-134456123D01*
X27181500Y-134456135D01*
X20500500Y-134456135D01*
X20500500Y-131335530D01*
X27876000Y-131335530D01*
X27876000Y-131576469D01*
X27907447Y-131815341D01*
X27969808Y-132048073D01*
X28062006Y-132270662D01*
X28062011Y-132270671D01*
X28182480Y-132479329D01*
X28182483Y-132479334D01*
X28182485Y-132479336D01*
X28329151Y-132670476D01*
X28329157Y-132670483D01*
X28499516Y-132840842D01*
X28499523Y-132840848D01*
X28510829Y-132849523D01*
X28690671Y-132987520D01*
X28899329Y-133107989D01*
X28899332Y-133107990D01*
X28899337Y-133107993D01*
X29019424Y-133157734D01*
X29121927Y-133200192D01*
X29354655Y-133262552D01*
X29527963Y-133285368D01*
X29593530Y-133294000D01*
X29593531Y-133294000D01*
X29834470Y-133294000D01*
X29900029Y-133285369D01*
X30073345Y-133262552D01*
X30306073Y-133200192D01*
X30481053Y-133127712D01*
X30528662Y-133107993D01*
X30528663Y-133107991D01*
X30528671Y-133107989D01*
X30737329Y-132987520D01*
X30928478Y-132840847D01*
X31098847Y-132670478D01*
X31245520Y-132479329D01*
X31365989Y-132270671D01*
X31458192Y-132048073D01*
X31520552Y-131815345D01*
X31552000Y-131576469D01*
X31552000Y-131335531D01*
X31520552Y-131096655D01*
X31458192Y-130863927D01*
X31415734Y-130761424D01*
X31365993Y-130641337D01*
X31365988Y-130641328D01*
X31245520Y-130432671D01*
X31098847Y-130241522D01*
X31098842Y-130241516D01*
X30928483Y-130071157D01*
X30928476Y-130071151D01*
X30737336Y-129924485D01*
X30737334Y-129924483D01*
X30737329Y-129924480D01*
X30528671Y-129804011D01*
X30528662Y-129804006D01*
X30306073Y-129711808D01*
X30073341Y-129649447D01*
X29834470Y-129618000D01*
X29834469Y-129618000D01*
X29593531Y-129618000D01*
X29593530Y-129618000D01*
X29354658Y-129649447D01*
X29121926Y-129711808D01*
X28899337Y-129804006D01*
X28899328Y-129804011D01*
X28773644Y-129876575D01*
X28690671Y-129924480D01*
X28690668Y-129924481D01*
X28690663Y-129924485D01*
X28499523Y-130071151D01*
X28499516Y-130071157D01*
X28329157Y-130241516D01*
X28329151Y-130241523D01*
X28182485Y-130432663D01*
X28062011Y-130641328D01*
X28062006Y-130641337D01*
X27969808Y-130863926D01*
X27907447Y-131096658D01*
X27876000Y-131335530D01*
X20500500Y-131335530D01*
X20500500Y-125999996D01*
X28694435Y-125999996D01*
X28694435Y-126000003D01*
X28714630Y-126179249D01*
X28714631Y-126179254D01*
X28774211Y-126349523D01*
X28862305Y-126489722D01*
X28870184Y-126502262D01*
X28997738Y-126629816D01*
X29069358Y-126674818D01*
X29143903Y-126721658D01*
X29150478Y-126725789D01*
X29320745Y-126785368D01*
X29320750Y-126785369D01*
X29499996Y-126805565D01*
X29500000Y-126805565D01*
X29500004Y-126805565D01*
X29679249Y-126785369D01*
X29679252Y-126785368D01*
X29679255Y-126785368D01*
X29759017Y-126757457D01*
X29799972Y-126750500D01*
X35125500Y-126750500D01*
X35192539Y-126770185D01*
X35238294Y-126822989D01*
X35249500Y-126874500D01*
X35249500Y-164073918D01*
X35249500Y-164073920D01*
X35249499Y-164073920D01*
X35278340Y-164218907D01*
X35278343Y-164218917D01*
X35334914Y-164355492D01*
X35367812Y-164404727D01*
X35367813Y-164404730D01*
X35417046Y-164478414D01*
X35417052Y-164478421D01*
X47987380Y-177048747D01*
X48020865Y-177110070D01*
X48015881Y-177179762D01*
X47975862Y-177234281D01*
X47785170Y-177382703D01*
X47623508Y-177558315D01*
X47597808Y-177597652D01*
X47544661Y-177643008D01*
X47475430Y-177652431D01*
X47412094Y-177622928D01*
X47390192Y-177597652D01*
X47364494Y-177558318D01*
X47202832Y-177382705D01*
X47014469Y-177236097D01*
X46877719Y-177162091D01*
X46804546Y-177122491D01*
X46804541Y-177122489D01*
X46578786Y-177044988D01*
X46421826Y-177018796D01*
X46343347Y-177005700D01*
X46104653Y-177005700D01*
X46045793Y-177015522D01*
X45869213Y-177044988D01*
X45643458Y-177122489D01*
X45643453Y-177122491D01*
X45433529Y-177236098D01*
X45245169Y-177382704D01*
X45083508Y-177558315D01*
X45057808Y-177597652D01*
X45004661Y-177643008D01*
X44935430Y-177652431D01*
X44872094Y-177622928D01*
X44850192Y-177597652D01*
X44824494Y-177558318D01*
X44662832Y-177382705D01*
X44474469Y-177236097D01*
X44337719Y-177162091D01*
X44264546Y-177122491D01*
X44264541Y-177122489D01*
X44038786Y-177044988D01*
X43881826Y-177018796D01*
X43803347Y-177005700D01*
X43564653Y-177005700D01*
X43505793Y-177015522D01*
X43329213Y-177044988D01*
X43103458Y-177122489D01*
X43103453Y-177122491D01*
X42893529Y-177236098D01*
X42705169Y-177382704D01*
X42543508Y-177558315D01*
X42517808Y-177597652D01*
X42464661Y-177643008D01*
X42395430Y-177652431D01*
X42332094Y-177622928D01*
X42310192Y-177597652D01*
X42284494Y-177558318D01*
X42122832Y-177382705D01*
X41934469Y-177236097D01*
X41797719Y-177162091D01*
X41724546Y-177122491D01*
X41724541Y-177122489D01*
X41498786Y-177044988D01*
X41341826Y-177018796D01*
X41263347Y-177005700D01*
X41024653Y-177005700D01*
X40965793Y-177015522D01*
X40789213Y-177044988D01*
X40563458Y-177122489D01*
X40563453Y-177122491D01*
X40353529Y-177236098D01*
X40195208Y-177359324D01*
X40130214Y-177384966D01*
X40061674Y-177371399D01*
X40011349Y-177322931D01*
X40002864Y-177304803D01*
X39987597Y-177263871D01*
X39987593Y-177263864D01*
X39901347Y-177148655D01*
X39901344Y-177148652D01*
X39786135Y-177062406D01*
X39786128Y-177062402D01*
X39651282Y-177012108D01*
X39651283Y-177012108D01*
X39591683Y-177005701D01*
X39591681Y-177005700D01*
X39591673Y-177005700D01*
X39591664Y-177005700D01*
X37616329Y-177005700D01*
X37616323Y-177005701D01*
X37556716Y-177012108D01*
X37421871Y-177062402D01*
X37421864Y-177062406D01*
X37306655Y-177148652D01*
X37306652Y-177148655D01*
X37220406Y-177263864D01*
X37220402Y-177263871D01*
X37170108Y-177398717D01*
X37163701Y-177458316D01*
X37163700Y-177458335D01*
X37163700Y-179433670D01*
X37163701Y-179433676D01*
X37170108Y-179493283D01*
X37220402Y-179628128D01*
X37220405Y-179628134D01*
X37230554Y-179641691D01*
X37254970Y-179707155D01*
X37240117Y-179775428D01*
X37230554Y-179790309D01*
X37220405Y-179803865D01*
X37220402Y-179803871D01*
X37170108Y-179938717D01*
X37163701Y-179998316D01*
X37163700Y-179998335D01*
X37163700Y-181973670D01*
X37163701Y-181973676D01*
X37170108Y-182033283D01*
X37220402Y-182168128D01*
X37220406Y-182168135D01*
X37306652Y-182283344D01*
X37306655Y-182283347D01*
X37421864Y-182369593D01*
X37421871Y-182369597D01*
X37556717Y-182419891D01*
X37556716Y-182419891D01*
X37563644Y-182420635D01*
X37616327Y-182426300D01*
X39591672Y-182426299D01*
X39651283Y-182419891D01*
X39786131Y-182369596D01*
X39901346Y-182283346D01*
X39987596Y-182168131D01*
X40002864Y-182127196D01*
X40044735Y-182071262D01*
X40110199Y-182046845D01*
X40178472Y-182061696D01*
X40195203Y-182072672D01*
X40265256Y-182127196D01*
X40352988Y-182195481D01*
X40353531Y-182195903D01*
X40563455Y-182309509D01*
X40789216Y-182387012D01*
X41024653Y-182426300D01*
X41024654Y-182426300D01*
X41263346Y-182426300D01*
X41263347Y-182426300D01*
X41498784Y-182387012D01*
X41724545Y-182309509D01*
X41934469Y-182195903D01*
X42122832Y-182049295D01*
X42284494Y-181873682D01*
X42310191Y-181834350D01*
X42363337Y-181788993D01*
X42432568Y-181779569D01*
X42495904Y-181809071D01*
X42517809Y-181834350D01*
X42543506Y-181873682D01*
X42705168Y-182049295D01*
X42893531Y-182195903D01*
X43103455Y-182309509D01*
X43329216Y-182387012D01*
X43564653Y-182426300D01*
X43564654Y-182426300D01*
X43803346Y-182426300D01*
X43803347Y-182426300D01*
X44038784Y-182387012D01*
X44264545Y-182309509D01*
X44474469Y-182195903D01*
X44662832Y-182049295D01*
X44824494Y-181873682D01*
X44850191Y-181834350D01*
X44903337Y-181788993D01*
X44972568Y-181779569D01*
X45035904Y-181809071D01*
X45057809Y-181834350D01*
X45083506Y-181873682D01*
X45245168Y-182049295D01*
X45433531Y-182195903D01*
X45643455Y-182309509D01*
X45869216Y-182387012D01*
X46104653Y-182426300D01*
X46104654Y-182426300D01*
X46343346Y-182426300D01*
X46343347Y-182426300D01*
X46578784Y-182387012D01*
X46804545Y-182309509D01*
X47014469Y-182195903D01*
X47202832Y-182049295D01*
X47364494Y-181873682D01*
X47390191Y-181834350D01*
X47443337Y-181788993D01*
X47512568Y-181779569D01*
X47575904Y-181809071D01*
X47597809Y-181834350D01*
X47623506Y-181873682D01*
X47785168Y-182049295D01*
X47973531Y-182195903D01*
X48183455Y-182309509D01*
X48409216Y-182387012D01*
X48644653Y-182426300D01*
X48644654Y-182426300D01*
X48883346Y-182426300D01*
X48883347Y-182426300D01*
X49118784Y-182387012D01*
X49344545Y-182309509D01*
X49554469Y-182195903D01*
X49742832Y-182049295D01*
X49904494Y-181873682D01*
X49930191Y-181834350D01*
X49983337Y-181788993D01*
X50052568Y-181779569D01*
X50115904Y-181809071D01*
X50137809Y-181834350D01*
X50163506Y-181873682D01*
X50325168Y-182049295D01*
X50513531Y-182195903D01*
X50723455Y-182309509D01*
X50949216Y-182387012D01*
X51184653Y-182426300D01*
X51184654Y-182426300D01*
X51423346Y-182426300D01*
X51423347Y-182426300D01*
X51658784Y-182387012D01*
X51884545Y-182309509D01*
X52094469Y-182195903D01*
X52282832Y-182049295D01*
X52444494Y-181873682D01*
X52470191Y-181834350D01*
X52523337Y-181788993D01*
X52592568Y-181779569D01*
X52655904Y-181809071D01*
X52677809Y-181834350D01*
X52703506Y-181873682D01*
X52865168Y-182049295D01*
X53053531Y-182195903D01*
X53263455Y-182309509D01*
X53489216Y-182387012D01*
X53724653Y-182426300D01*
X53724654Y-182426300D01*
X53963346Y-182426300D01*
X53963347Y-182426300D01*
X54198784Y-182387012D01*
X54424545Y-182309509D01*
X54634469Y-182195903D01*
X54822832Y-182049295D01*
X54984494Y-181873682D01*
X55010191Y-181834350D01*
X55063337Y-181788993D01*
X55132568Y-181779569D01*
X55195904Y-181809071D01*
X55217809Y-181834350D01*
X55243506Y-181873682D01*
X55405168Y-182049295D01*
X55593531Y-182195903D01*
X55803455Y-182309509D01*
X56029216Y-182387012D01*
X56264653Y-182426300D01*
X56264654Y-182426300D01*
X56503346Y-182426300D01*
X56503347Y-182426300D01*
X56738784Y-182387012D01*
X56964545Y-182309509D01*
X57174469Y-182195903D01*
X57362832Y-182049295D01*
X57524494Y-181873682D01*
X57550191Y-181834350D01*
X57603337Y-181788993D01*
X57672568Y-181779569D01*
X57735904Y-181809071D01*
X57757809Y-181834350D01*
X57783506Y-181873682D01*
X57945168Y-182049295D01*
X58133531Y-182195903D01*
X58343455Y-182309509D01*
X58569216Y-182387012D01*
X58804653Y-182426300D01*
X58804654Y-182426300D01*
X59043346Y-182426300D01*
X59043347Y-182426300D01*
X59278784Y-182387012D01*
X59504545Y-182309509D01*
X59714469Y-182195903D01*
X59902832Y-182049295D01*
X60064494Y-181873682D01*
X60090489Y-181833892D01*
X60143634Y-181788536D01*
X60212865Y-181779112D01*
X60276201Y-181808613D01*
X60279020Y-181811867D01*
X60284057Y-181812389D01*
X60974504Y-181121941D01*
X60990619Y-181182081D01*
X61057498Y-181297920D01*
X61152080Y-181392502D01*
X61267919Y-181459381D01*
X61328057Y-181475494D01*
X60636839Y-182166711D01*
X60636840Y-182166712D01*
X60673802Y-182195481D01*
X60673808Y-182195486D01*
X60883650Y-182309046D01*
X60883660Y-182309051D01*
X61109335Y-182386525D01*
X61344696Y-182425800D01*
X61583304Y-182425800D01*
X61818664Y-182386525D01*
X62044339Y-182309051D01*
X62044344Y-182309049D01*
X62254197Y-182195481D01*
X62254200Y-182195480D01*
X62291158Y-182166712D01*
X62291158Y-182166711D01*
X61599942Y-181475495D01*
X61660081Y-181459381D01*
X61775920Y-181392502D01*
X61870502Y-181297920D01*
X61937381Y-181182081D01*
X61953494Y-181121942D01*
X62643941Y-181812389D01*
X62734604Y-181673621D01*
X62734609Y-181673613D01*
X62830454Y-181455104D01*
X62889030Y-181223796D01*
X62889032Y-181223788D01*
X62908735Y-180986006D01*
X62908735Y-180985993D01*
X62889032Y-180748211D01*
X62889030Y-180748203D01*
X62830454Y-180516895D01*
X62734606Y-180298380D01*
X62643941Y-180159609D01*
X61953494Y-180850056D01*
X61937381Y-180789919D01*
X61870502Y-180674080D01*
X61775920Y-180579498D01*
X61660081Y-180512619D01*
X61599941Y-180496504D01*
X62291159Y-179805287D01*
X62290685Y-179797653D01*
X62261757Y-179757456D01*
X62258085Y-179687683D01*
X62292718Y-179627000D01*
X62302559Y-179618473D01*
X62442832Y-179509295D01*
X62604494Y-179333682D01*
X62735047Y-179133856D01*
X62830929Y-178915267D01*
X62889525Y-178683878D01*
X62909236Y-178446000D01*
X62889525Y-178208122D01*
X62830929Y-177976733D01*
X62735047Y-177758144D01*
X62604494Y-177558318D01*
X62512454Y-177458335D01*
X100663700Y-177458335D01*
X100663700Y-179433670D01*
X100663701Y-179433676D01*
X100670108Y-179493283D01*
X100720402Y-179628128D01*
X100720405Y-179628134D01*
X100730554Y-179641691D01*
X100754970Y-179707155D01*
X100740117Y-179775428D01*
X100730554Y-179790309D01*
X100720405Y-179803865D01*
X100720402Y-179803871D01*
X100670108Y-179938717D01*
X100663701Y-179998316D01*
X100663700Y-179998335D01*
X100663700Y-181973670D01*
X100663701Y-181973676D01*
X100670108Y-182033283D01*
X100720402Y-182168128D01*
X100720406Y-182168135D01*
X100806652Y-182283344D01*
X100806655Y-182283347D01*
X100921864Y-182369593D01*
X100921871Y-182369597D01*
X101056717Y-182419891D01*
X101056716Y-182419891D01*
X101063644Y-182420635D01*
X101116327Y-182426300D01*
X103091672Y-182426299D01*
X103151283Y-182419891D01*
X103286131Y-182369596D01*
X103401346Y-182283346D01*
X103487596Y-182168131D01*
X103502864Y-182127196D01*
X103544735Y-182071262D01*
X103610199Y-182046845D01*
X103678472Y-182061696D01*
X103695203Y-182072672D01*
X103765256Y-182127196D01*
X103852988Y-182195481D01*
X103853531Y-182195903D01*
X104063455Y-182309509D01*
X104289216Y-182387012D01*
X104524653Y-182426300D01*
X104524654Y-182426300D01*
X104763346Y-182426300D01*
X104763347Y-182426300D01*
X104998784Y-182387012D01*
X105224545Y-182309509D01*
X105434469Y-182195903D01*
X105622832Y-182049295D01*
X105784494Y-181873682D01*
X105810191Y-181834350D01*
X105863337Y-181788993D01*
X105932568Y-181779569D01*
X105995904Y-181809071D01*
X106017809Y-181834350D01*
X106043506Y-181873682D01*
X106205168Y-182049295D01*
X106393531Y-182195903D01*
X106603455Y-182309509D01*
X106829216Y-182387012D01*
X107064653Y-182426300D01*
X107064654Y-182426300D01*
X107303346Y-182426300D01*
X107303347Y-182426300D01*
X107538784Y-182387012D01*
X107764545Y-182309509D01*
X107974469Y-182195903D01*
X108162832Y-182049295D01*
X108324494Y-181873682D01*
X108350191Y-181834350D01*
X108403337Y-181788993D01*
X108472568Y-181779569D01*
X108535904Y-181809071D01*
X108557809Y-181834350D01*
X108583506Y-181873682D01*
X108745168Y-182049295D01*
X108933531Y-182195903D01*
X109143455Y-182309509D01*
X109369216Y-182387012D01*
X109604653Y-182426300D01*
X109604654Y-182426300D01*
X109843346Y-182426300D01*
X109843347Y-182426300D01*
X110078784Y-182387012D01*
X110304545Y-182309509D01*
X110514469Y-182195903D01*
X110702832Y-182049295D01*
X110864494Y-181873682D01*
X110890191Y-181834350D01*
X110943337Y-181788993D01*
X111012568Y-181779569D01*
X111075904Y-181809071D01*
X111097809Y-181834350D01*
X111123506Y-181873682D01*
X111285168Y-182049295D01*
X111473531Y-182195903D01*
X111683455Y-182309509D01*
X111909216Y-182387012D01*
X112144653Y-182426300D01*
X112144654Y-182426300D01*
X112383346Y-182426300D01*
X112383347Y-182426300D01*
X112618784Y-182387012D01*
X112844545Y-182309509D01*
X113054469Y-182195903D01*
X113242832Y-182049295D01*
X113404494Y-181873682D01*
X113430191Y-181834350D01*
X113483337Y-181788993D01*
X113552568Y-181779569D01*
X113615904Y-181809071D01*
X113637809Y-181834350D01*
X113663506Y-181873682D01*
X113825168Y-182049295D01*
X114013531Y-182195903D01*
X114223455Y-182309509D01*
X114449216Y-182387012D01*
X114684653Y-182426300D01*
X114684654Y-182426300D01*
X114923346Y-182426300D01*
X114923347Y-182426300D01*
X115158784Y-182387012D01*
X115384545Y-182309509D01*
X115594469Y-182195903D01*
X115782832Y-182049295D01*
X115944494Y-181873682D01*
X115970191Y-181834350D01*
X116023337Y-181788993D01*
X116092568Y-181779569D01*
X116155904Y-181809071D01*
X116177809Y-181834350D01*
X116203506Y-181873682D01*
X116365168Y-182049295D01*
X116553531Y-182195903D01*
X116763455Y-182309509D01*
X116989216Y-182387012D01*
X117224653Y-182426300D01*
X117224654Y-182426300D01*
X117463346Y-182426300D01*
X117463347Y-182426300D01*
X117698784Y-182387012D01*
X117924545Y-182309509D01*
X118134469Y-182195903D01*
X118322832Y-182049295D01*
X118484494Y-181873682D01*
X118510191Y-181834350D01*
X118563337Y-181788993D01*
X118632568Y-181779569D01*
X118695904Y-181809071D01*
X118717809Y-181834350D01*
X118743506Y-181873682D01*
X118905168Y-182049295D01*
X119093531Y-182195903D01*
X119303455Y-182309509D01*
X119529216Y-182387012D01*
X119764653Y-182426300D01*
X119764654Y-182426300D01*
X120003346Y-182426300D01*
X120003347Y-182426300D01*
X120238784Y-182387012D01*
X120464545Y-182309509D01*
X120674469Y-182195903D01*
X120862832Y-182049295D01*
X121024494Y-181873682D01*
X121050191Y-181834350D01*
X121103337Y-181788993D01*
X121172568Y-181779569D01*
X121235904Y-181809071D01*
X121257809Y-181834350D01*
X121283506Y-181873682D01*
X121445168Y-182049295D01*
X121633531Y-182195903D01*
X121843455Y-182309509D01*
X122069216Y-182387012D01*
X122304653Y-182426300D01*
X122304654Y-182426300D01*
X122543346Y-182426300D01*
X122543347Y-182426300D01*
X122778784Y-182387012D01*
X123004545Y-182309509D01*
X123214469Y-182195903D01*
X123402832Y-182049295D01*
X123564494Y-181873682D01*
X123590489Y-181833892D01*
X123643634Y-181788536D01*
X123712865Y-181779112D01*
X123776201Y-181808613D01*
X123779020Y-181811867D01*
X123784057Y-181812389D01*
X124474504Y-181121941D01*
X124490619Y-181182081D01*
X124557498Y-181297920D01*
X124652080Y-181392502D01*
X124767919Y-181459381D01*
X124828057Y-181475494D01*
X124136839Y-182166711D01*
X124136840Y-182166712D01*
X124173802Y-182195481D01*
X124173808Y-182195486D01*
X124383650Y-182309046D01*
X124383660Y-182309051D01*
X124609335Y-182386525D01*
X124844696Y-182425800D01*
X125083304Y-182425800D01*
X125318664Y-182386525D01*
X125544339Y-182309051D01*
X125544344Y-182309049D01*
X125754197Y-182195481D01*
X125754200Y-182195480D01*
X125791158Y-182166712D01*
X125791158Y-182166711D01*
X125099942Y-181475495D01*
X125160081Y-181459381D01*
X125275920Y-181392502D01*
X125370502Y-181297920D01*
X125437381Y-181182081D01*
X125453494Y-181121942D01*
X126143941Y-181812389D01*
X126234604Y-181673621D01*
X126234609Y-181673613D01*
X126330454Y-181455104D01*
X126389030Y-181223796D01*
X126389032Y-181223788D01*
X126408735Y-180986006D01*
X126408735Y-180985993D01*
X126389032Y-180748211D01*
X126389030Y-180748203D01*
X126330454Y-180516895D01*
X126234606Y-180298380D01*
X126143941Y-180159609D01*
X125453494Y-180850056D01*
X125437381Y-180789919D01*
X125370502Y-180674080D01*
X125275920Y-180579498D01*
X125160081Y-180512619D01*
X125099941Y-180496504D01*
X125791159Y-179805287D01*
X125790685Y-179797653D01*
X125761757Y-179757456D01*
X125758085Y-179687683D01*
X125792718Y-179627000D01*
X125802559Y-179618473D01*
X125942832Y-179509295D01*
X126104494Y-179333682D01*
X126235047Y-179133856D01*
X126330929Y-178915267D01*
X126389525Y-178683878D01*
X126409236Y-178446000D01*
X126389525Y-178208122D01*
X126330929Y-177976733D01*
X126235047Y-177758144D01*
X126104494Y-177558318D01*
X125942832Y-177382705D01*
X125754469Y-177236097D01*
X125617719Y-177162091D01*
X125544546Y-177122491D01*
X125544541Y-177122489D01*
X125318786Y-177044988D01*
X125161826Y-177018796D01*
X125083347Y-177005700D01*
X124844653Y-177005700D01*
X124785793Y-177015522D01*
X124609213Y-177044988D01*
X124383458Y-177122489D01*
X124383453Y-177122491D01*
X124173529Y-177236098D01*
X123985169Y-177382704D01*
X123823508Y-177558315D01*
X123797808Y-177597652D01*
X123744661Y-177643008D01*
X123675430Y-177652431D01*
X123612094Y-177622928D01*
X123590192Y-177597652D01*
X123564494Y-177558318D01*
X123402832Y-177382705D01*
X123214469Y-177236097D01*
X123077719Y-177162091D01*
X123004546Y-177122491D01*
X123004541Y-177122489D01*
X122778786Y-177044988D01*
X122621826Y-177018796D01*
X122543347Y-177005700D01*
X122304653Y-177005700D01*
X122245793Y-177015522D01*
X122069213Y-177044988D01*
X121843458Y-177122489D01*
X121843453Y-177122491D01*
X121633529Y-177236098D01*
X121445169Y-177382704D01*
X121283508Y-177558315D01*
X121257808Y-177597652D01*
X121204661Y-177643008D01*
X121135430Y-177652431D01*
X121072094Y-177622928D01*
X121050192Y-177597652D01*
X121024494Y-177558318D01*
X120862832Y-177382705D01*
X120674469Y-177236097D01*
X120537719Y-177162091D01*
X120464546Y-177122491D01*
X120464541Y-177122489D01*
X120238786Y-177044988D01*
X120081826Y-177018796D01*
X120003347Y-177005700D01*
X119764653Y-177005700D01*
X119705793Y-177015522D01*
X119529213Y-177044988D01*
X119303458Y-177122489D01*
X119303453Y-177122491D01*
X119093529Y-177236098D01*
X118905169Y-177382704D01*
X118743508Y-177558315D01*
X118717808Y-177597652D01*
X118664661Y-177643008D01*
X118595430Y-177652431D01*
X118532094Y-177622928D01*
X118510192Y-177597652D01*
X118484494Y-177558318D01*
X118322832Y-177382705D01*
X118134469Y-177236097D01*
X117997719Y-177162091D01*
X117924546Y-177122491D01*
X117924541Y-177122489D01*
X117698786Y-177044988D01*
X117541826Y-177018796D01*
X117463347Y-177005700D01*
X117224653Y-177005700D01*
X117165793Y-177015522D01*
X116989213Y-177044988D01*
X116763458Y-177122489D01*
X116763453Y-177122491D01*
X116553529Y-177236098D01*
X116365169Y-177382704D01*
X116203508Y-177558315D01*
X116177808Y-177597652D01*
X116124661Y-177643008D01*
X116055430Y-177652431D01*
X115992094Y-177622928D01*
X115970192Y-177597652D01*
X115944494Y-177558318D01*
X115782832Y-177382705D01*
X115594469Y-177236097D01*
X115457719Y-177162091D01*
X115384546Y-177122491D01*
X115384541Y-177122489D01*
X115158786Y-177044988D01*
X115001826Y-177018796D01*
X114923347Y-177005700D01*
X114684653Y-177005700D01*
X114625793Y-177015522D01*
X114449213Y-177044988D01*
X114223458Y-177122489D01*
X114223453Y-177122491D01*
X114013529Y-177236098D01*
X113825169Y-177382704D01*
X113663508Y-177558315D01*
X113637808Y-177597652D01*
X113584661Y-177643008D01*
X113515430Y-177652431D01*
X113452094Y-177622928D01*
X113430192Y-177597652D01*
X113404494Y-177558318D01*
X113242832Y-177382705D01*
X113054469Y-177236097D01*
X112917719Y-177162091D01*
X112844546Y-177122491D01*
X112844541Y-177122489D01*
X112618786Y-177044988D01*
X112461826Y-177018796D01*
X112383347Y-177005700D01*
X112144653Y-177005700D01*
X112085793Y-177015522D01*
X111909213Y-177044988D01*
X111683458Y-177122489D01*
X111683453Y-177122491D01*
X111473529Y-177236098D01*
X111285169Y-177382704D01*
X111123508Y-177558315D01*
X111097808Y-177597652D01*
X111044661Y-177643008D01*
X110975430Y-177652431D01*
X110912094Y-177622928D01*
X110890192Y-177597652D01*
X110864494Y-177558318D01*
X110702832Y-177382705D01*
X110514469Y-177236097D01*
X110377719Y-177162091D01*
X110304546Y-177122491D01*
X110304541Y-177122489D01*
X110078786Y-177044988D01*
X109921826Y-177018796D01*
X109843347Y-177005700D01*
X109604653Y-177005700D01*
X109545793Y-177015522D01*
X109369213Y-177044988D01*
X109143458Y-177122489D01*
X109143453Y-177122491D01*
X108933529Y-177236098D01*
X108745169Y-177382704D01*
X108583508Y-177558315D01*
X108557808Y-177597652D01*
X108504661Y-177643008D01*
X108435430Y-177652431D01*
X108372094Y-177622928D01*
X108350192Y-177597652D01*
X108324494Y-177558318D01*
X108162832Y-177382705D01*
X107974469Y-177236097D01*
X107837719Y-177162091D01*
X107764546Y-177122491D01*
X107764541Y-177122489D01*
X107538786Y-177044988D01*
X107381826Y-177018796D01*
X107303347Y-177005700D01*
X107064653Y-177005700D01*
X107005793Y-177015522D01*
X106829213Y-177044988D01*
X106603458Y-177122489D01*
X106603453Y-177122491D01*
X106393529Y-177236098D01*
X106205169Y-177382704D01*
X106043508Y-177558315D01*
X106017808Y-177597652D01*
X105964661Y-177643008D01*
X105895430Y-177652431D01*
X105832094Y-177622928D01*
X105810192Y-177597652D01*
X105784494Y-177558318D01*
X105622832Y-177382705D01*
X105434469Y-177236097D01*
X105297719Y-177162091D01*
X105224546Y-177122491D01*
X105224541Y-177122489D01*
X104998786Y-177044988D01*
X104841826Y-177018796D01*
X104763347Y-177005700D01*
X104524653Y-177005700D01*
X104465793Y-177015522D01*
X104289213Y-177044988D01*
X104063458Y-177122489D01*
X104063453Y-177122491D01*
X103853529Y-177236098D01*
X103695208Y-177359324D01*
X103630214Y-177384966D01*
X103561674Y-177371399D01*
X103511349Y-177322931D01*
X103502864Y-177304803D01*
X103487597Y-177263871D01*
X103487593Y-177263864D01*
X103401347Y-177148655D01*
X103401344Y-177148652D01*
X103286135Y-177062406D01*
X103286128Y-177062402D01*
X103151282Y-177012108D01*
X103151283Y-177012108D01*
X103091683Y-177005701D01*
X103091681Y-177005700D01*
X103091673Y-177005700D01*
X103091664Y-177005700D01*
X101116329Y-177005700D01*
X101116323Y-177005701D01*
X101056716Y-177012108D01*
X100921871Y-177062402D01*
X100921864Y-177062406D01*
X100806655Y-177148652D01*
X100806652Y-177148655D01*
X100720406Y-177263864D01*
X100720402Y-177263871D01*
X100670108Y-177398717D01*
X100663701Y-177458316D01*
X100663700Y-177458335D01*
X62512454Y-177458335D01*
X62442832Y-177382705D01*
X62254469Y-177236097D01*
X62117719Y-177162091D01*
X62044546Y-177122491D01*
X62044541Y-177122489D01*
X61818786Y-177044988D01*
X61661826Y-177018796D01*
X61583347Y-177005700D01*
X61344653Y-177005700D01*
X61285793Y-177015522D01*
X61109213Y-177044988D01*
X60883458Y-177122489D01*
X60883453Y-177122491D01*
X60673529Y-177236098D01*
X60485169Y-177382704D01*
X60323508Y-177558315D01*
X60297808Y-177597652D01*
X60244661Y-177643008D01*
X60175430Y-177652431D01*
X60112094Y-177622928D01*
X60090192Y-177597652D01*
X60064494Y-177558318D01*
X59902832Y-177382705D01*
X59714469Y-177236097D01*
X59577719Y-177162091D01*
X59504546Y-177122491D01*
X59504541Y-177122489D01*
X59278786Y-177044988D01*
X59121826Y-177018796D01*
X59043347Y-177005700D01*
X58804653Y-177005700D01*
X58745793Y-177015522D01*
X58569213Y-177044988D01*
X58343458Y-177122489D01*
X58343453Y-177122491D01*
X58133529Y-177236098D01*
X57945169Y-177382704D01*
X57783508Y-177558315D01*
X57757808Y-177597652D01*
X57704661Y-177643008D01*
X57635430Y-177652431D01*
X57572094Y-177622928D01*
X57550192Y-177597652D01*
X57524494Y-177558318D01*
X57362832Y-177382705D01*
X57174469Y-177236097D01*
X57037719Y-177162091D01*
X56964546Y-177122491D01*
X56964541Y-177122489D01*
X56738786Y-177044988D01*
X56581826Y-177018796D01*
X56503347Y-177005700D01*
X56264653Y-177005700D01*
X56205793Y-177015522D01*
X56029213Y-177044988D01*
X55803458Y-177122489D01*
X55803453Y-177122491D01*
X55593529Y-177236098D01*
X55405169Y-177382704D01*
X55243508Y-177558315D01*
X55217808Y-177597652D01*
X55164661Y-177643008D01*
X55095430Y-177652431D01*
X55032094Y-177622928D01*
X55010192Y-177597652D01*
X54984494Y-177558318D01*
X54822832Y-177382705D01*
X54634469Y-177236097D01*
X54497719Y-177162091D01*
X54424546Y-177122491D01*
X54424541Y-177122489D01*
X54198786Y-177044988D01*
X54041826Y-177018796D01*
X53963347Y-177005700D01*
X53724653Y-177005700D01*
X53665793Y-177015522D01*
X53489213Y-177044988D01*
X53263458Y-177122489D01*
X53263453Y-177122491D01*
X53053529Y-177236098D01*
X52865169Y-177382704D01*
X52703508Y-177558315D01*
X52677808Y-177597652D01*
X52624661Y-177643008D01*
X52555430Y-177652431D01*
X52492094Y-177622928D01*
X52470192Y-177597652D01*
X52444494Y-177558318D01*
X52282832Y-177382705D01*
X52094469Y-177236097D01*
X51957719Y-177162091D01*
X51884546Y-177122491D01*
X51884541Y-177122489D01*
X51658786Y-177044988D01*
X51501826Y-177018796D01*
X51423347Y-177005700D01*
X51184653Y-177005700D01*
X51125793Y-177015522D01*
X50949213Y-177044988D01*
X50723458Y-177122489D01*
X50723453Y-177122491D01*
X50513529Y-177236098D01*
X50325169Y-177382704D01*
X50163508Y-177558315D01*
X50137808Y-177597652D01*
X50084661Y-177643008D01*
X50015430Y-177652431D01*
X49952094Y-177622928D01*
X49930192Y-177597652D01*
X49904494Y-177558318D01*
X49742832Y-177382705D01*
X49598337Y-177270240D01*
X49557525Y-177213531D01*
X49550500Y-177172388D01*
X49550500Y-176726080D01*
X49543194Y-176689354D01*
X49543194Y-176689352D01*
X49521660Y-176581094D01*
X49521659Y-176581088D01*
X49467408Y-176450117D01*
X49465764Y-176445522D01*
X49382954Y-176321588D01*
X49382953Y-176321587D01*
X49382951Y-176321584D01*
X49278416Y-176217049D01*
X36786819Y-163725451D01*
X36753334Y-163664128D01*
X36750500Y-163637770D01*
X36750500Y-135265994D01*
X37158764Y-135265994D01*
X37158764Y-135266005D01*
X37178473Y-135503869D01*
X37178475Y-135503881D01*
X37237070Y-135735267D01*
X37322116Y-135929150D01*
X37332953Y-135953856D01*
X37463506Y-136153682D01*
X37625168Y-136329295D01*
X37625171Y-136329297D01*
X37625174Y-136329300D01*
X37765020Y-136438147D01*
X37805833Y-136494857D01*
X37809508Y-136564630D01*
X37774876Y-136625313D01*
X37765020Y-136633853D01*
X37625174Y-136742699D01*
X37625171Y-136742702D01*
X37625168Y-136742704D01*
X37625168Y-136742705D01*
X37591924Y-136778817D01*
X37463506Y-136918317D01*
X37332951Y-137118147D01*
X37237070Y-137336732D01*
X37178475Y-137568118D01*
X37178473Y-137568130D01*
X37158764Y-137805994D01*
X37158764Y-137806005D01*
X37178473Y-138043869D01*
X37178475Y-138043881D01*
X37237070Y-138275267D01*
X37322191Y-138469322D01*
X37332953Y-138493856D01*
X37463506Y-138693682D01*
X37625168Y-138869295D01*
X37813531Y-139015903D01*
X38023455Y-139129509D01*
X38249216Y-139207012D01*
X38484653Y-139246300D01*
X38484654Y-139246300D01*
X38723346Y-139246300D01*
X38723347Y-139246300D01*
X38958784Y-139207012D01*
X39184545Y-139129509D01*
X39394469Y-139015903D01*
X39582832Y-138869295D01*
X39744494Y-138693682D01*
X39770191Y-138654350D01*
X39823337Y-138608993D01*
X39892568Y-138599569D01*
X39955904Y-138629071D01*
X39977809Y-138654350D01*
X40003504Y-138693679D01*
X40003506Y-138693682D01*
X40165168Y-138869295D01*
X40353531Y-139015903D01*
X40563455Y-139129509D01*
X40789216Y-139207012D01*
X41024653Y-139246300D01*
X41024654Y-139246300D01*
X41263346Y-139246300D01*
X41263347Y-139246300D01*
X41498784Y-139207012D01*
X41724545Y-139129509D01*
X41934469Y-139015903D01*
X42122832Y-138869295D01*
X42284494Y-138693682D01*
X42310191Y-138654350D01*
X42363337Y-138608993D01*
X42432568Y-138599569D01*
X42495904Y-138629071D01*
X42517809Y-138654350D01*
X42543504Y-138693679D01*
X42543506Y-138693682D01*
X42705168Y-138869295D01*
X42893531Y-139015903D01*
X43103455Y-139129509D01*
X43329216Y-139207012D01*
X43564653Y-139246300D01*
X43564654Y-139246300D01*
X43803346Y-139246300D01*
X43803347Y-139246300D01*
X44038784Y-139207012D01*
X44264545Y-139129509D01*
X44474469Y-139015903D01*
X44662832Y-138869295D01*
X44824494Y-138693682D01*
X44850191Y-138654350D01*
X44903337Y-138608993D01*
X44972568Y-138599569D01*
X45035904Y-138629071D01*
X45057809Y-138654350D01*
X45083504Y-138693679D01*
X45083506Y-138693682D01*
X45245168Y-138869295D01*
X45433531Y-139015903D01*
X45643455Y-139129509D01*
X45869216Y-139207012D01*
X46104653Y-139246300D01*
X46104654Y-139246300D01*
X46343346Y-139246300D01*
X46343347Y-139246300D01*
X46578784Y-139207012D01*
X46804545Y-139129509D01*
X47014469Y-139015903D01*
X47202832Y-138869295D01*
X47364494Y-138693682D01*
X47390191Y-138654350D01*
X47443337Y-138608993D01*
X47512568Y-138599569D01*
X47575904Y-138629071D01*
X47597809Y-138654350D01*
X47623504Y-138693679D01*
X47623506Y-138693682D01*
X47785168Y-138869295D01*
X47973531Y-139015903D01*
X48183455Y-139129509D01*
X48409216Y-139207012D01*
X48644653Y-139246300D01*
X48644654Y-139246300D01*
X48883346Y-139246300D01*
X48883347Y-139246300D01*
X49118784Y-139207012D01*
X49344545Y-139129509D01*
X49554469Y-139015903D01*
X49742832Y-138869295D01*
X49904494Y-138693682D01*
X49930191Y-138654350D01*
X49983337Y-138608993D01*
X50052568Y-138599569D01*
X50115904Y-138629071D01*
X50137809Y-138654350D01*
X50163504Y-138693679D01*
X50163506Y-138693682D01*
X50325168Y-138869295D01*
X50513531Y-139015903D01*
X50723455Y-139129509D01*
X50949216Y-139207012D01*
X51184653Y-139246300D01*
X51184654Y-139246300D01*
X51423346Y-139246300D01*
X51423347Y-139246300D01*
X51658784Y-139207012D01*
X51884545Y-139129509D01*
X52094469Y-139015903D01*
X52282832Y-138869295D01*
X52444494Y-138693682D01*
X52470191Y-138654350D01*
X52523337Y-138608993D01*
X52592568Y-138599569D01*
X52655904Y-138629071D01*
X52677809Y-138654350D01*
X52703504Y-138693679D01*
X52703506Y-138693682D01*
X52865168Y-138869295D01*
X53053531Y-139015903D01*
X53263455Y-139129509D01*
X53489216Y-139207012D01*
X53724653Y-139246300D01*
X53724654Y-139246300D01*
X53963346Y-139246300D01*
X53963347Y-139246300D01*
X54198784Y-139207012D01*
X54424545Y-139129509D01*
X54634469Y-139015903D01*
X54822832Y-138869295D01*
X54984494Y-138693682D01*
X55010191Y-138654350D01*
X55063337Y-138608993D01*
X55132568Y-138599569D01*
X55195904Y-138629071D01*
X55217809Y-138654350D01*
X55243504Y-138693679D01*
X55243506Y-138693682D01*
X55405168Y-138869295D01*
X55593531Y-139015903D01*
X55803455Y-139129509D01*
X56029216Y-139207012D01*
X56264653Y-139246300D01*
X56264654Y-139246300D01*
X56503346Y-139246300D01*
X56503347Y-139246300D01*
X56738784Y-139207012D01*
X56964545Y-139129509D01*
X57174469Y-139015903D01*
X57362832Y-138869295D01*
X57524494Y-138693682D01*
X57550489Y-138653892D01*
X57603634Y-138608536D01*
X57672865Y-138599112D01*
X57736201Y-138628613D01*
X57739020Y-138631867D01*
X57744057Y-138632389D01*
X58434504Y-137941941D01*
X58450619Y-138002081D01*
X58517498Y-138117920D01*
X58612080Y-138212502D01*
X58727919Y-138279381D01*
X58788057Y-138295494D01*
X58096839Y-138986711D01*
X58096840Y-138986712D01*
X58133802Y-139015481D01*
X58133808Y-139015486D01*
X58343650Y-139129046D01*
X58343660Y-139129051D01*
X58569335Y-139206525D01*
X58804696Y-139245800D01*
X59043304Y-139245800D01*
X59278664Y-139206525D01*
X59504339Y-139129051D01*
X59504344Y-139129049D01*
X59714197Y-139015481D01*
X59714200Y-139015480D01*
X59751158Y-138986712D01*
X59751158Y-138986711D01*
X59059942Y-138295495D01*
X59120081Y-138279381D01*
X59235920Y-138212502D01*
X59330502Y-138117920D01*
X59397381Y-138002081D01*
X59413495Y-137941942D01*
X59987381Y-138515828D01*
X60020866Y-138577151D01*
X60023700Y-138603508D01*
X60023700Y-138793669D01*
X60023701Y-138793676D01*
X60030108Y-138853283D01*
X60080402Y-138988128D01*
X60080406Y-138988135D01*
X60166652Y-139103344D01*
X60166655Y-139103347D01*
X60281864Y-139189593D01*
X60281871Y-139189597D01*
X60416717Y-139239891D01*
X60416716Y-139239891D01*
X60423644Y-139240635D01*
X60476327Y-139246300D01*
X62451672Y-139246299D01*
X62511283Y-139239891D01*
X62646131Y-139189596D01*
X62761346Y-139103346D01*
X62847596Y-138988131D01*
X62897891Y-138853283D01*
X62904300Y-138793673D01*
X62904300Y-138039997D01*
X89744723Y-138039997D01*
X89744723Y-138040002D01*
X89763793Y-138257975D01*
X89763793Y-138257979D01*
X89820422Y-138469322D01*
X89820424Y-138469326D01*
X89820425Y-138469330D01*
X89842382Y-138516416D01*
X89912897Y-138667638D01*
X89937998Y-138703486D01*
X90038402Y-138846877D01*
X90193123Y-139001598D01*
X90372361Y-139127102D01*
X90570670Y-139219575D01*
X90782023Y-139276207D01*
X90964926Y-139292208D01*
X90999998Y-139295277D01*
X91000000Y-139295277D01*
X91000002Y-139295277D01*
X91028254Y-139292805D01*
X91217977Y-139276207D01*
X91429330Y-139219575D01*
X91627639Y-139127102D01*
X91806877Y-139001598D01*
X91961598Y-138846877D01*
X92087102Y-138667639D01*
X92157618Y-138516414D01*
X92203790Y-138463977D01*
X92270984Y-138444825D01*
X92337865Y-138465041D01*
X92382381Y-138516414D01*
X92452898Y-138667639D01*
X92578402Y-138846877D01*
X92733123Y-139001598D01*
X92912361Y-139127102D01*
X93110670Y-139219575D01*
X93322023Y-139276207D01*
X93504926Y-139292208D01*
X93539998Y-139295277D01*
X93540000Y-139295277D01*
X93540002Y-139295277D01*
X93568254Y-139292805D01*
X93757977Y-139276207D01*
X93969330Y-139219575D01*
X94167639Y-139127102D01*
X94346877Y-139001598D01*
X94501598Y-138846877D01*
X94627102Y-138667639D01*
X94697618Y-138516414D01*
X94743790Y-138463977D01*
X94810984Y-138444825D01*
X94877865Y-138465041D01*
X94922381Y-138516414D01*
X94992898Y-138667639D01*
X95118402Y-138846877D01*
X95273123Y-139001598D01*
X95452361Y-139127102D01*
X95650670Y-139219575D01*
X95862023Y-139276207D01*
X96044926Y-139292208D01*
X96079998Y-139295277D01*
X96080000Y-139295277D01*
X96080002Y-139295277D01*
X96108254Y-139292805D01*
X96297977Y-139276207D01*
X96509330Y-139219575D01*
X96707639Y-139127102D01*
X96886877Y-139001598D01*
X97041598Y-138846877D01*
X97143928Y-138700734D01*
X97198502Y-138657112D01*
X97268000Y-138649918D01*
X97330355Y-138681441D01*
X97365769Y-138741670D01*
X97369500Y-138771858D01*
X97369500Y-138837869D01*
X97369501Y-138837876D01*
X97375908Y-138897483D01*
X97426202Y-139032328D01*
X97426206Y-139032335D01*
X97512452Y-139147544D01*
X97512455Y-139147547D01*
X97627664Y-139233793D01*
X97627671Y-139233797D01*
X97762517Y-139284091D01*
X97762516Y-139284091D01*
X97769444Y-139284835D01*
X97822127Y-139290500D01*
X99417872Y-139290499D01*
X99477483Y-139284091D01*
X99612331Y-139233796D01*
X99727546Y-139147546D01*
X99813796Y-139032331D01*
X99864091Y-138897483D01*
X99870500Y-138837873D01*
X99870499Y-137242128D01*
X99864091Y-137182517D01*
X99840081Y-137118144D01*
X99813797Y-137047671D01*
X99813793Y-137047664D01*
X99727547Y-136932455D01*
X99727544Y-136932452D01*
X99612335Y-136846206D01*
X99612328Y-136846202D01*
X99477482Y-136795908D01*
X99477483Y-136795908D01*
X99417883Y-136789501D01*
X99417881Y-136789500D01*
X99417873Y-136789500D01*
X99417865Y-136789500D01*
X99350989Y-136789500D01*
X99283950Y-136769815D01*
X99238195Y-136717011D01*
X99228251Y-136647853D01*
X99257276Y-136584297D01*
X99279864Y-136563926D01*
X99309571Y-136543124D01*
X98749410Y-135982962D01*
X98812993Y-135965925D01*
X98927007Y-135900099D01*
X99020099Y-135807007D01*
X99085925Y-135692993D01*
X99102962Y-135629409D01*
X99663124Y-136189570D01*
X99706668Y-136127385D01*
X99706669Y-136127383D01*
X99799100Y-135929164D01*
X99799105Y-135929150D01*
X99855710Y-135717894D01*
X99855712Y-135717884D01*
X99874775Y-135500000D01*
X99874775Y-135499999D01*
X99855712Y-135282115D01*
X99855710Y-135282105D01*
X99851393Y-135265994D01*
X100658764Y-135265994D01*
X100658764Y-135266005D01*
X100678473Y-135503869D01*
X100678475Y-135503881D01*
X100737070Y-135735267D01*
X100822116Y-135929150D01*
X100832953Y-135953856D01*
X100963506Y-136153682D01*
X101125168Y-136329295D01*
X101125171Y-136329297D01*
X101125174Y-136329300D01*
X101265020Y-136438147D01*
X101305833Y-136494857D01*
X101309508Y-136564630D01*
X101274876Y-136625313D01*
X101265020Y-136633853D01*
X101125174Y-136742699D01*
X101125171Y-136742702D01*
X101125168Y-136742704D01*
X101125168Y-136742705D01*
X101091924Y-136778817D01*
X100963506Y-136918317D01*
X100832951Y-137118147D01*
X100737070Y-137336732D01*
X100678475Y-137568118D01*
X100678473Y-137568130D01*
X100658764Y-137805994D01*
X100658764Y-137806005D01*
X100678473Y-138043869D01*
X100678475Y-138043881D01*
X100737070Y-138275267D01*
X100822191Y-138469322D01*
X100832953Y-138493856D01*
X100963506Y-138693682D01*
X101125168Y-138869295D01*
X101313531Y-139015903D01*
X101523455Y-139129509D01*
X101749216Y-139207012D01*
X101984653Y-139246300D01*
X101984654Y-139246300D01*
X102223346Y-139246300D01*
X102223347Y-139246300D01*
X102458784Y-139207012D01*
X102684545Y-139129509D01*
X102894469Y-139015903D01*
X103082832Y-138869295D01*
X103244494Y-138693682D01*
X103270191Y-138654350D01*
X103323337Y-138608993D01*
X103392568Y-138599569D01*
X103455904Y-138629071D01*
X103477809Y-138654350D01*
X103503504Y-138693679D01*
X103503506Y-138693682D01*
X103665168Y-138869295D01*
X103853531Y-139015903D01*
X104063455Y-139129509D01*
X104289216Y-139207012D01*
X104524653Y-139246300D01*
X104524654Y-139246300D01*
X104763346Y-139246300D01*
X104763347Y-139246300D01*
X104998784Y-139207012D01*
X105224545Y-139129509D01*
X105434469Y-139015903D01*
X105622832Y-138869295D01*
X105784494Y-138693682D01*
X105810191Y-138654350D01*
X105863337Y-138608993D01*
X105932568Y-138599569D01*
X105995904Y-138629071D01*
X106017809Y-138654350D01*
X106043504Y-138693679D01*
X106043506Y-138693682D01*
X106205168Y-138869295D01*
X106393531Y-139015903D01*
X106603455Y-139129509D01*
X106829216Y-139207012D01*
X107064653Y-139246300D01*
X107064654Y-139246300D01*
X107303346Y-139246300D01*
X107303347Y-139246300D01*
X107538784Y-139207012D01*
X107764545Y-139129509D01*
X107974469Y-139015903D01*
X108162832Y-138869295D01*
X108324494Y-138693682D01*
X108350191Y-138654350D01*
X108403337Y-138608993D01*
X108472568Y-138599569D01*
X108535904Y-138629071D01*
X108557809Y-138654350D01*
X108583504Y-138693679D01*
X108583506Y-138693682D01*
X108745168Y-138869295D01*
X108933531Y-139015903D01*
X109143455Y-139129509D01*
X109369216Y-139207012D01*
X109604653Y-139246300D01*
X109604654Y-139246300D01*
X109843346Y-139246300D01*
X109843347Y-139246300D01*
X110078784Y-139207012D01*
X110304545Y-139129509D01*
X110514469Y-139015903D01*
X110702832Y-138869295D01*
X110864494Y-138693682D01*
X110890191Y-138654350D01*
X110943337Y-138608993D01*
X111012568Y-138599569D01*
X111075904Y-138629071D01*
X111097809Y-138654350D01*
X111123504Y-138693679D01*
X111123506Y-138693682D01*
X111285168Y-138869295D01*
X111473531Y-139015903D01*
X111683455Y-139129509D01*
X111909216Y-139207012D01*
X112144653Y-139246300D01*
X112144654Y-139246300D01*
X112383346Y-139246300D01*
X112383347Y-139246300D01*
X112618784Y-139207012D01*
X112844545Y-139129509D01*
X113054469Y-139015903D01*
X113242832Y-138869295D01*
X113404494Y-138693682D01*
X113430191Y-138654350D01*
X113483337Y-138608993D01*
X113552568Y-138599569D01*
X113615904Y-138629071D01*
X113637809Y-138654350D01*
X113663504Y-138693679D01*
X113663506Y-138693682D01*
X113825168Y-138869295D01*
X114013531Y-139015903D01*
X114223455Y-139129509D01*
X114449216Y-139207012D01*
X114684653Y-139246300D01*
X114684654Y-139246300D01*
X114923346Y-139246300D01*
X114923347Y-139246300D01*
X115158784Y-139207012D01*
X115384545Y-139129509D01*
X115594469Y-139015903D01*
X115782832Y-138869295D01*
X115944494Y-138693682D01*
X115970191Y-138654350D01*
X116023337Y-138608993D01*
X116092568Y-138599569D01*
X116155904Y-138629071D01*
X116177809Y-138654350D01*
X116203504Y-138693679D01*
X116203506Y-138693682D01*
X116365168Y-138869295D01*
X116553531Y-139015903D01*
X116763455Y-139129509D01*
X116989216Y-139207012D01*
X117224653Y-139246300D01*
X117224654Y-139246300D01*
X117463346Y-139246300D01*
X117463347Y-139246300D01*
X117698784Y-139207012D01*
X117924545Y-139129509D01*
X118134469Y-139015903D01*
X118322832Y-138869295D01*
X118484494Y-138693682D01*
X118510191Y-138654350D01*
X118563337Y-138608993D01*
X118632568Y-138599569D01*
X118695904Y-138629071D01*
X118717809Y-138654350D01*
X118743504Y-138693679D01*
X118743506Y-138693682D01*
X118905168Y-138869295D01*
X119093531Y-139015903D01*
X119303455Y-139129509D01*
X119529216Y-139207012D01*
X119764653Y-139246300D01*
X119764654Y-139246300D01*
X120003346Y-139246300D01*
X120003347Y-139246300D01*
X120238784Y-139207012D01*
X120464545Y-139129509D01*
X120674469Y-139015903D01*
X120862832Y-138869295D01*
X121024494Y-138693682D01*
X121050489Y-138653892D01*
X121103634Y-138608536D01*
X121172865Y-138599112D01*
X121236201Y-138628613D01*
X121239020Y-138631867D01*
X121244057Y-138632389D01*
X121934504Y-137941941D01*
X121950619Y-138002081D01*
X122017498Y-138117920D01*
X122112080Y-138212502D01*
X122227919Y-138279381D01*
X122288057Y-138295494D01*
X121596839Y-138986711D01*
X121596840Y-138986712D01*
X121633802Y-139015481D01*
X121633808Y-139015486D01*
X121843650Y-139129046D01*
X121843660Y-139129051D01*
X122069335Y-139206525D01*
X122304696Y-139245800D01*
X122543304Y-139245800D01*
X122778664Y-139206525D01*
X123004339Y-139129051D01*
X123004344Y-139129049D01*
X123214197Y-139015481D01*
X123214200Y-139015480D01*
X123251158Y-138986712D01*
X123251158Y-138986711D01*
X122559942Y-138295495D01*
X122620081Y-138279381D01*
X122735920Y-138212502D01*
X122830502Y-138117920D01*
X122897381Y-138002081D01*
X122913495Y-137941942D01*
X123487381Y-138515828D01*
X123520866Y-138577151D01*
X123523700Y-138603508D01*
X123523700Y-138793669D01*
X123523701Y-138793676D01*
X123530108Y-138853283D01*
X123580402Y-138988128D01*
X123580406Y-138988135D01*
X123666652Y-139103344D01*
X123666655Y-139103347D01*
X123781864Y-139189593D01*
X123781871Y-139189597D01*
X123916717Y-139239891D01*
X123916716Y-139239891D01*
X123923644Y-139240635D01*
X123976327Y-139246300D01*
X125951672Y-139246299D01*
X126011283Y-139239891D01*
X126146131Y-139189596D01*
X126261346Y-139103346D01*
X126347596Y-138988131D01*
X126397891Y-138853283D01*
X126404300Y-138793673D01*
X126404299Y-136818328D01*
X126397891Y-136758717D01*
X126394772Y-136750355D01*
X126347597Y-136623871D01*
X126347595Y-136623868D01*
X126346653Y-136622610D01*
X126337446Y-136610311D01*
X126313029Y-136544848D01*
X126327880Y-136476575D01*
X126337447Y-136461688D01*
X126347596Y-136448131D01*
X126397891Y-136313283D01*
X126404300Y-136253673D01*
X126404299Y-134278328D01*
X126397891Y-134218717D01*
X126392832Y-134205154D01*
X126347597Y-134083871D01*
X126347593Y-134083864D01*
X126261347Y-133968655D01*
X126261344Y-133968652D01*
X126146135Y-133882406D01*
X126146128Y-133882402D01*
X126011282Y-133832108D01*
X126011283Y-133832108D01*
X125951683Y-133825701D01*
X125951681Y-133825700D01*
X125951673Y-133825700D01*
X125951664Y-133825700D01*
X123976329Y-133825700D01*
X123976323Y-133825701D01*
X123916716Y-133832108D01*
X123781871Y-133882402D01*
X123781864Y-133882406D01*
X123666655Y-133968652D01*
X123666652Y-133968655D01*
X123580406Y-134083864D01*
X123580402Y-134083872D01*
X123565134Y-134124806D01*
X123523262Y-134180738D01*
X123457797Y-134205154D01*
X123389524Y-134190301D01*
X123372791Y-134179323D01*
X123214477Y-134056102D01*
X123214471Y-134056098D01*
X123004546Y-133942491D01*
X123004541Y-133942489D01*
X122778786Y-133864988D01*
X122621826Y-133838796D01*
X122543347Y-133825700D01*
X122304653Y-133825700D01*
X122245793Y-133835522D01*
X122069213Y-133864988D01*
X121843458Y-133942489D01*
X121843453Y-133942491D01*
X121633529Y-134056098D01*
X121445169Y-134202704D01*
X121283508Y-134378315D01*
X121283506Y-134378317D01*
X121283506Y-134378318D01*
X121260630Y-134413333D01*
X121257808Y-134417652D01*
X121204661Y-134463008D01*
X121135430Y-134472431D01*
X121072094Y-134442928D01*
X121050192Y-134417652D01*
X121024494Y-134378318D01*
X120862832Y-134202705D01*
X120674469Y-134056097D01*
X120569295Y-133999179D01*
X120464546Y-133942491D01*
X120464541Y-133942489D01*
X120238786Y-133864988D01*
X120081826Y-133838796D01*
X120003347Y-133825700D01*
X119764653Y-133825700D01*
X119705793Y-133835522D01*
X119529213Y-133864988D01*
X119303458Y-133942489D01*
X119303453Y-133942491D01*
X119093529Y-134056098D01*
X118905169Y-134202704D01*
X118743508Y-134378315D01*
X118743506Y-134378317D01*
X118743506Y-134378318D01*
X118720630Y-134413333D01*
X118717808Y-134417652D01*
X118664661Y-134463008D01*
X118595430Y-134472431D01*
X118532094Y-134442928D01*
X118510192Y-134417652D01*
X118484494Y-134378318D01*
X118322832Y-134202705D01*
X118134469Y-134056097D01*
X118029295Y-133999179D01*
X117924546Y-133942491D01*
X117924541Y-133942489D01*
X117698786Y-133864988D01*
X117541826Y-133838796D01*
X117463347Y-133825700D01*
X117224653Y-133825700D01*
X117165793Y-133835522D01*
X116989213Y-133864988D01*
X116763458Y-133942489D01*
X116763453Y-133942491D01*
X116553529Y-134056098D01*
X116365169Y-134202704D01*
X116203508Y-134378315D01*
X116203506Y-134378317D01*
X116203506Y-134378318D01*
X116180630Y-134413333D01*
X116177808Y-134417652D01*
X116124661Y-134463008D01*
X116055430Y-134472431D01*
X115992094Y-134442928D01*
X115970192Y-134417652D01*
X115944494Y-134378318D01*
X115782832Y-134202705D01*
X115594469Y-134056097D01*
X115489295Y-133999179D01*
X115384546Y-133942491D01*
X115384541Y-133942489D01*
X115158786Y-133864988D01*
X115001826Y-133838796D01*
X114923347Y-133825700D01*
X114684653Y-133825700D01*
X114625793Y-133835522D01*
X114449213Y-133864988D01*
X114223458Y-133942489D01*
X114223453Y-133942491D01*
X114013529Y-134056098D01*
X113825169Y-134202704D01*
X113663508Y-134378315D01*
X113663506Y-134378317D01*
X113663506Y-134378318D01*
X113640630Y-134413333D01*
X113637808Y-134417652D01*
X113584661Y-134463008D01*
X113515430Y-134472431D01*
X113452094Y-134442928D01*
X113430192Y-134417652D01*
X113404494Y-134378318D01*
X113242832Y-134202705D01*
X113054469Y-134056097D01*
X112949295Y-133999179D01*
X112844546Y-133942491D01*
X112844541Y-133942489D01*
X112618786Y-133864988D01*
X112461826Y-133838796D01*
X112383347Y-133825700D01*
X112144653Y-133825700D01*
X112085793Y-133835522D01*
X111909213Y-133864988D01*
X111683458Y-133942489D01*
X111683453Y-133942491D01*
X111473529Y-134056098D01*
X111285169Y-134202704D01*
X111123508Y-134378315D01*
X111123506Y-134378317D01*
X111123506Y-134378318D01*
X111100630Y-134413333D01*
X111097808Y-134417652D01*
X111044661Y-134463008D01*
X110975430Y-134472431D01*
X110912094Y-134442928D01*
X110890192Y-134417652D01*
X110864494Y-134378318D01*
X110702832Y-134202705D01*
X110514469Y-134056097D01*
X110409295Y-133999179D01*
X110304546Y-133942491D01*
X110304541Y-133942489D01*
X110078786Y-133864988D01*
X109921826Y-133838796D01*
X109843347Y-133825700D01*
X109604653Y-133825700D01*
X109545793Y-133835522D01*
X109369213Y-133864988D01*
X109143458Y-133942489D01*
X109143453Y-133942491D01*
X108933529Y-134056098D01*
X108745169Y-134202704D01*
X108583508Y-134378315D01*
X108583506Y-134378317D01*
X108583506Y-134378318D01*
X108560630Y-134413333D01*
X108557808Y-134417652D01*
X108504661Y-134463008D01*
X108435430Y-134472431D01*
X108372094Y-134442928D01*
X108350192Y-134417652D01*
X108324494Y-134378318D01*
X108162832Y-134202705D01*
X107974469Y-134056097D01*
X107869295Y-133999179D01*
X107764546Y-133942491D01*
X107764541Y-133942489D01*
X107538786Y-133864988D01*
X107381826Y-133838796D01*
X107303347Y-133825700D01*
X107064653Y-133825700D01*
X107005793Y-133835522D01*
X106829213Y-133864988D01*
X106603458Y-133942489D01*
X106603453Y-133942491D01*
X106393529Y-134056098D01*
X106205169Y-134202704D01*
X106043508Y-134378315D01*
X106043506Y-134378317D01*
X106043506Y-134378318D01*
X106020630Y-134413333D01*
X106017808Y-134417652D01*
X105964661Y-134463008D01*
X105895430Y-134472431D01*
X105832094Y-134442928D01*
X105810192Y-134417652D01*
X105784494Y-134378318D01*
X105622832Y-134202705D01*
X105434469Y-134056097D01*
X105329295Y-133999179D01*
X105224546Y-133942491D01*
X105224541Y-133942489D01*
X104998786Y-133864988D01*
X104841826Y-133838796D01*
X104763347Y-133825700D01*
X104524653Y-133825700D01*
X104465793Y-133835522D01*
X104289213Y-133864988D01*
X104063458Y-133942489D01*
X104063453Y-133942491D01*
X103853529Y-134056098D01*
X103665169Y-134202704D01*
X103503508Y-134378315D01*
X103503506Y-134378317D01*
X103503506Y-134378318D01*
X103480630Y-134413333D01*
X103477808Y-134417652D01*
X103424661Y-134463008D01*
X103355430Y-134472431D01*
X103292094Y-134442928D01*
X103270192Y-134417652D01*
X103244494Y-134378318D01*
X103082832Y-134202705D01*
X102894469Y-134056097D01*
X102789295Y-133999179D01*
X102684546Y-133942491D01*
X102684541Y-133942489D01*
X102458786Y-133864988D01*
X102301826Y-133838796D01*
X102223347Y-133825700D01*
X101984653Y-133825700D01*
X101925793Y-133835522D01*
X101749213Y-133864988D01*
X101523458Y-133942489D01*
X101523453Y-133942491D01*
X101313529Y-134056098D01*
X101125169Y-134202704D01*
X100963506Y-134378317D01*
X100832951Y-134578147D01*
X100737070Y-134796732D01*
X100678475Y-135028118D01*
X100678473Y-135028130D01*
X100658764Y-135265994D01*
X99851393Y-135265994D01*
X99799105Y-135070849D01*
X99799101Y-135070840D01*
X99706668Y-134872615D01*
X99663123Y-134810428D01*
X99102962Y-135370589D01*
X99085925Y-135307007D01*
X99020099Y-135192993D01*
X98927007Y-135099901D01*
X98812993Y-135034075D01*
X98749409Y-135017037D01*
X99309571Y-134456874D01*
X99247387Y-134413333D01*
X99049159Y-134320898D01*
X99049150Y-134320894D01*
X98837894Y-134264289D01*
X98837884Y-134264287D01*
X98620001Y-134245225D01*
X98619999Y-134245225D01*
X98402115Y-134264287D01*
X98402105Y-134264289D01*
X98190849Y-134320894D01*
X98190840Y-134320898D01*
X97992614Y-134413332D01*
X97992612Y-134413333D01*
X97930428Y-134456875D01*
X97930427Y-134456875D01*
X98490590Y-135017037D01*
X98427007Y-135034075D01*
X98312993Y-135099901D01*
X98219901Y-135192993D01*
X98154075Y-135307007D01*
X98137037Y-135370590D01*
X97576875Y-134810427D01*
X97576875Y-134810428D01*
X97533333Y-134872612D01*
X97533332Y-134872614D01*
X97462382Y-135024767D01*
X97416209Y-135077206D01*
X97349016Y-135096358D01*
X97282135Y-135076142D01*
X97237618Y-135024767D01*
X97166668Y-134872615D01*
X97123123Y-134810428D01*
X96562962Y-135370589D01*
X96545925Y-135307007D01*
X96480099Y-135192993D01*
X96387007Y-135099901D01*
X96272993Y-135034075D01*
X96209409Y-135017037D01*
X96769571Y-134456874D01*
X96707387Y-134413333D01*
X96509159Y-134320898D01*
X96509150Y-134320894D01*
X96297894Y-134264289D01*
X96297884Y-134264287D01*
X96080001Y-134245225D01*
X96079999Y-134245225D01*
X95862115Y-134264287D01*
X95862105Y-134264289D01*
X95650849Y-134320894D01*
X95650840Y-134320898D01*
X95452614Y-134413332D01*
X95452612Y-134413333D01*
X95390428Y-134456875D01*
X95390427Y-134456875D01*
X95950590Y-135017037D01*
X95887007Y-135034075D01*
X95772993Y-135099901D01*
X95679901Y-135192993D01*
X95614075Y-135307007D01*
X95597037Y-135370590D01*
X95036875Y-134810427D01*
X95036875Y-134810428D01*
X94993333Y-134872612D01*
X94993332Y-134872614D01*
X94922382Y-135024767D01*
X94876209Y-135077206D01*
X94809016Y-135096358D01*
X94742135Y-135076142D01*
X94697618Y-135024767D01*
X94626668Y-134872615D01*
X94583123Y-134810428D01*
X94022962Y-135370589D01*
X94005925Y-135307007D01*
X93940099Y-135192993D01*
X93847007Y-135099901D01*
X93732993Y-135034075D01*
X93669409Y-135017037D01*
X94229571Y-134456874D01*
X94167387Y-134413333D01*
X93969159Y-134320898D01*
X93969150Y-134320894D01*
X93757894Y-134264289D01*
X93757884Y-134264287D01*
X93540001Y-134245225D01*
X93539999Y-134245225D01*
X93322115Y-134264287D01*
X93322105Y-134264289D01*
X93110849Y-134320894D01*
X93110840Y-134320898D01*
X92912614Y-134413332D01*
X92912612Y-134413333D01*
X92850428Y-134456875D01*
X92850427Y-134456875D01*
X93410590Y-135017037D01*
X93347007Y-135034075D01*
X93232993Y-135099901D01*
X93139901Y-135192993D01*
X93074075Y-135307007D01*
X93057037Y-135370590D01*
X92496875Y-134810427D01*
X92496875Y-134810428D01*
X92453333Y-134872612D01*
X92453332Y-134872614D01*
X92382382Y-135024767D01*
X92336209Y-135077206D01*
X92269016Y-135096358D01*
X92202135Y-135076142D01*
X92157618Y-135024767D01*
X92086668Y-134872615D01*
X92043123Y-134810428D01*
X91482962Y-135370589D01*
X91465925Y-135307007D01*
X91400099Y-135192993D01*
X91307007Y-135099901D01*
X91192993Y-135034075D01*
X91129409Y-135017037D01*
X91689571Y-134456874D01*
X91627387Y-134413333D01*
X91429159Y-134320898D01*
X91429150Y-134320894D01*
X91217894Y-134264289D01*
X91217884Y-134264287D01*
X91000001Y-134245225D01*
X90999999Y-134245225D01*
X90782115Y-134264287D01*
X90782105Y-134264289D01*
X90570849Y-134320894D01*
X90570840Y-134320898D01*
X90372614Y-134413332D01*
X90372612Y-134413333D01*
X90310428Y-134456875D01*
X90310427Y-134456875D01*
X90870590Y-135017037D01*
X90807007Y-135034075D01*
X90692993Y-135099901D01*
X90599901Y-135192993D01*
X90534075Y-135307007D01*
X90517037Y-135370590D01*
X89956875Y-134810427D01*
X89956875Y-134810428D01*
X89913333Y-134872612D01*
X89913332Y-134872614D01*
X89820898Y-135070840D01*
X89820894Y-135070849D01*
X89764289Y-135282105D01*
X89764287Y-135282115D01*
X89745225Y-135499999D01*
X89745225Y-135500000D01*
X89764287Y-135717884D01*
X89764289Y-135717894D01*
X89820894Y-135929150D01*
X89820898Y-135929159D01*
X89913333Y-136127387D01*
X89956874Y-136189571D01*
X90517037Y-135629408D01*
X90534075Y-135692993D01*
X90599901Y-135807007D01*
X90692993Y-135900099D01*
X90807007Y-135965925D01*
X90870590Y-135982962D01*
X90310427Y-136543124D01*
X90372613Y-136586667D01*
X90372615Y-136586668D01*
X90524174Y-136657341D01*
X90576614Y-136703513D01*
X90595766Y-136770706D01*
X90575551Y-136837588D01*
X90524176Y-136882105D01*
X90372358Y-136952900D01*
X90372357Y-136952900D01*
X90193121Y-137078402D01*
X90038402Y-137233121D01*
X89912900Y-137412357D01*
X89912898Y-137412361D01*
X89820426Y-137610668D01*
X89820422Y-137610677D01*
X89763793Y-137822020D01*
X89763793Y-137822024D01*
X89744723Y-138039997D01*
X62904300Y-138039997D01*
X62904299Y-136818328D01*
X62897891Y-136758717D01*
X62894772Y-136750355D01*
X62847597Y-136623871D01*
X62847595Y-136623868D01*
X62846653Y-136622610D01*
X62837446Y-136610311D01*
X62813029Y-136544848D01*
X62827880Y-136476575D01*
X62837447Y-136461688D01*
X62847596Y-136448131D01*
X62897891Y-136313283D01*
X62904300Y-136253673D01*
X62904299Y-134278328D01*
X62897891Y-134218717D01*
X62892832Y-134205154D01*
X62847597Y-134083871D01*
X62847593Y-134083864D01*
X62761347Y-133968655D01*
X62761344Y-133968652D01*
X62646135Y-133882406D01*
X62646128Y-133882402D01*
X62511282Y-133832108D01*
X62511283Y-133832108D01*
X62451683Y-133825701D01*
X62451681Y-133825700D01*
X62451673Y-133825700D01*
X62451664Y-133825700D01*
X60476329Y-133825700D01*
X60476323Y-133825701D01*
X60416716Y-133832108D01*
X60281871Y-133882402D01*
X60281864Y-133882406D01*
X60166655Y-133968652D01*
X60166652Y-133968655D01*
X60080406Y-134083864D01*
X60080402Y-134083872D01*
X60065134Y-134124806D01*
X60023262Y-134180738D01*
X59957797Y-134205154D01*
X59889524Y-134190301D01*
X59872791Y-134179323D01*
X59714477Y-134056102D01*
X59714471Y-134056098D01*
X59504546Y-133942491D01*
X59504541Y-133942489D01*
X59278786Y-133864988D01*
X59121826Y-133838796D01*
X59043347Y-133825700D01*
X58804653Y-133825700D01*
X58745793Y-133835522D01*
X58569213Y-133864988D01*
X58343458Y-133942489D01*
X58343453Y-133942491D01*
X58133529Y-134056098D01*
X57945169Y-134202704D01*
X57783508Y-134378315D01*
X57783506Y-134378317D01*
X57783506Y-134378318D01*
X57760630Y-134413333D01*
X57757808Y-134417652D01*
X57704661Y-134463008D01*
X57635430Y-134472431D01*
X57572094Y-134442928D01*
X57550192Y-134417652D01*
X57524494Y-134378318D01*
X57362832Y-134202705D01*
X57174469Y-134056097D01*
X57069295Y-133999179D01*
X56964546Y-133942491D01*
X56964541Y-133942489D01*
X56738786Y-133864988D01*
X56581826Y-133838796D01*
X56503347Y-133825700D01*
X56264653Y-133825700D01*
X56205793Y-133835522D01*
X56029213Y-133864988D01*
X55803458Y-133942489D01*
X55803453Y-133942491D01*
X55593529Y-134056098D01*
X55405169Y-134202704D01*
X55243508Y-134378315D01*
X55243506Y-134378317D01*
X55243506Y-134378318D01*
X55220630Y-134413333D01*
X55217808Y-134417652D01*
X55164661Y-134463008D01*
X55095430Y-134472431D01*
X55032094Y-134442928D01*
X55010192Y-134417652D01*
X54984494Y-134378318D01*
X54822832Y-134202705D01*
X54634469Y-134056097D01*
X54529295Y-133999179D01*
X54424546Y-133942491D01*
X54424541Y-133942489D01*
X54198786Y-133864988D01*
X54041826Y-133838796D01*
X53963347Y-133825700D01*
X53724653Y-133825700D01*
X53665793Y-133835522D01*
X53489213Y-133864988D01*
X53263458Y-133942489D01*
X53263453Y-133942491D01*
X53053529Y-134056098D01*
X52865169Y-134202704D01*
X52703508Y-134378315D01*
X52703506Y-134378317D01*
X52703506Y-134378318D01*
X52680630Y-134413333D01*
X52677808Y-134417652D01*
X52624661Y-134463008D01*
X52555430Y-134472431D01*
X52492094Y-134442928D01*
X52470192Y-134417652D01*
X52444494Y-134378318D01*
X52282832Y-134202705D01*
X52094469Y-134056097D01*
X51989295Y-133999179D01*
X51884546Y-133942491D01*
X51884541Y-133942489D01*
X51658786Y-133864988D01*
X51501826Y-133838796D01*
X51423347Y-133825700D01*
X51184653Y-133825700D01*
X51125793Y-133835522D01*
X50949213Y-133864988D01*
X50723458Y-133942489D01*
X50723453Y-133942491D01*
X50513529Y-134056098D01*
X50325169Y-134202704D01*
X50163508Y-134378315D01*
X50163506Y-134378317D01*
X50163506Y-134378318D01*
X50140630Y-134413333D01*
X50137808Y-134417652D01*
X50084661Y-134463008D01*
X50015430Y-134472431D01*
X49952094Y-134442928D01*
X49930192Y-134417652D01*
X49904494Y-134378318D01*
X49742832Y-134202705D01*
X49554469Y-134056097D01*
X49449295Y-133999179D01*
X49344546Y-133942491D01*
X49344541Y-133942489D01*
X49118786Y-133864988D01*
X48961826Y-133838796D01*
X48883347Y-133825700D01*
X48644653Y-133825700D01*
X48585793Y-133835522D01*
X48409213Y-133864988D01*
X48183458Y-133942489D01*
X48183453Y-133942491D01*
X47973529Y-134056098D01*
X47785169Y-134202704D01*
X47623508Y-134378315D01*
X47623506Y-134378317D01*
X47623506Y-134378318D01*
X47600630Y-134413333D01*
X47597808Y-134417652D01*
X47544661Y-134463008D01*
X47475430Y-134472431D01*
X47412094Y-134442928D01*
X47390192Y-134417652D01*
X47364494Y-134378318D01*
X47202832Y-134202705D01*
X47014469Y-134056097D01*
X46909295Y-133999179D01*
X46804546Y-133942491D01*
X46804541Y-133942489D01*
X46578786Y-133864988D01*
X46421826Y-133838796D01*
X46343347Y-133825700D01*
X46104653Y-133825700D01*
X46045793Y-133835522D01*
X45869213Y-133864988D01*
X45643458Y-133942489D01*
X45643453Y-133942491D01*
X45433529Y-134056098D01*
X45245169Y-134202704D01*
X45083508Y-134378315D01*
X45083506Y-134378317D01*
X45083506Y-134378318D01*
X45060630Y-134413333D01*
X45057808Y-134417652D01*
X45004661Y-134463008D01*
X44935430Y-134472431D01*
X44872094Y-134442928D01*
X44850192Y-134417652D01*
X44824494Y-134378318D01*
X44662832Y-134202705D01*
X44474469Y-134056097D01*
X44369295Y-133999179D01*
X44264546Y-133942491D01*
X44264541Y-133942489D01*
X44038786Y-133864988D01*
X43881826Y-133838796D01*
X43803347Y-133825700D01*
X43564653Y-133825700D01*
X43505793Y-133835522D01*
X43329213Y-133864988D01*
X43103458Y-133942489D01*
X43103453Y-133942491D01*
X42893529Y-134056098D01*
X42705169Y-134202704D01*
X42543508Y-134378315D01*
X42543506Y-134378317D01*
X42543506Y-134378318D01*
X42520630Y-134413333D01*
X42517808Y-134417652D01*
X42464661Y-134463008D01*
X42395430Y-134472431D01*
X42332094Y-134442928D01*
X42310192Y-134417652D01*
X42284494Y-134378318D01*
X42122832Y-134202705D01*
X41934469Y-134056097D01*
X41829295Y-133999179D01*
X41724546Y-133942491D01*
X41724541Y-133942489D01*
X41498786Y-133864988D01*
X41341826Y-133838796D01*
X41263347Y-133825700D01*
X41024653Y-133825700D01*
X40965793Y-133835522D01*
X40789213Y-133864988D01*
X40563458Y-133942489D01*
X40563453Y-133942491D01*
X40353529Y-134056098D01*
X40165169Y-134202704D01*
X40003508Y-134378315D01*
X40003506Y-134378317D01*
X40003506Y-134378318D01*
X39980630Y-134413333D01*
X39977808Y-134417652D01*
X39924661Y-134463008D01*
X39855430Y-134472431D01*
X39792094Y-134442928D01*
X39770192Y-134417652D01*
X39744494Y-134378318D01*
X39582832Y-134202705D01*
X39394469Y-134056097D01*
X39289295Y-133999179D01*
X39184546Y-133942491D01*
X39184541Y-133942489D01*
X38958786Y-133864988D01*
X38801826Y-133838796D01*
X38723347Y-133825700D01*
X38484653Y-133825700D01*
X38425793Y-133835522D01*
X38249213Y-133864988D01*
X38023458Y-133942489D01*
X38023453Y-133942491D01*
X37813529Y-134056098D01*
X37625169Y-134202704D01*
X37463506Y-134378317D01*
X37332951Y-134578147D01*
X37237070Y-134796732D01*
X37178475Y-135028118D01*
X37178473Y-135028130D01*
X37158764Y-135265994D01*
X36750500Y-135265994D01*
X36750500Y-131999996D01*
X67694435Y-131999996D01*
X67694435Y-132000003D01*
X67714630Y-132179249D01*
X67714631Y-132179254D01*
X67774211Y-132349523D01*
X67855774Y-132479329D01*
X67870184Y-132502262D01*
X67997738Y-132629816D01*
X68150478Y-132725789D01*
X68320745Y-132785368D01*
X68320750Y-132785369D01*
X68499996Y-132805565D01*
X68500000Y-132805565D01*
X68500004Y-132805565D01*
X68679249Y-132785369D01*
X68679252Y-132785368D01*
X68679255Y-132785368D01*
X68759017Y-132757457D01*
X68799972Y-132750500D01*
X76637770Y-132750500D01*
X76704809Y-132770185D01*
X76725451Y-132786819D01*
X76746692Y-132808060D01*
X76769356Y-132844129D01*
X76771188Y-132843247D01*
X76774207Y-132849516D01*
X76860917Y-132987514D01*
X76870184Y-133002262D01*
X76997738Y-133129816D01*
X77150478Y-133225789D01*
X77255541Y-133262552D01*
X77320745Y-133285368D01*
X77320750Y-133285369D01*
X77499996Y-133305565D01*
X77500000Y-133305565D01*
X77500004Y-133305565D01*
X77679249Y-133285369D01*
X77679252Y-133285368D01*
X77679255Y-133285368D01*
X77849522Y-133225789D01*
X78002262Y-133129816D01*
X78129816Y-133002262D01*
X78225789Y-132849522D01*
X78285368Y-132679255D01*
X78285369Y-132679249D01*
X78305565Y-132500003D01*
X78305565Y-132499996D01*
X78285369Y-132320750D01*
X78285368Y-132320745D01*
X78267843Y-132270662D01*
X78225789Y-132150478D01*
X78129816Y-131997738D01*
X78002262Y-131870184D01*
X77849516Y-131774207D01*
X77843247Y-131771188D01*
X77844129Y-131769356D01*
X77808060Y-131746692D01*
X77478421Y-131417052D01*
X77478414Y-131417046D01*
X77404729Y-131367812D01*
X77404729Y-131367813D01*
X77356414Y-131335530D01*
X152336000Y-131335530D01*
X152336000Y-131576469D01*
X152367447Y-131815341D01*
X152429808Y-132048073D01*
X152522006Y-132270662D01*
X152522011Y-132270671D01*
X152642480Y-132479329D01*
X152642483Y-132479334D01*
X152642485Y-132479336D01*
X152789151Y-132670476D01*
X152789157Y-132670483D01*
X152959516Y-132840842D01*
X152959523Y-132840848D01*
X152970829Y-132849523D01*
X153150671Y-132987520D01*
X153359329Y-133107989D01*
X153359332Y-133107990D01*
X153359337Y-133107993D01*
X153479424Y-133157734D01*
X153581927Y-133200192D01*
X153814655Y-133262552D01*
X153987963Y-133285368D01*
X154053530Y-133294000D01*
X154053531Y-133294000D01*
X154294470Y-133294000D01*
X154360029Y-133285369D01*
X154533345Y-133262552D01*
X154766073Y-133200192D01*
X154941053Y-133127712D01*
X154988662Y-133107993D01*
X154988663Y-133107991D01*
X154988671Y-133107989D01*
X155197329Y-132987520D01*
X155388478Y-132840847D01*
X155558847Y-132670478D01*
X155705520Y-132479329D01*
X155825989Y-132270671D01*
X155918192Y-132048073D01*
X155980552Y-131815345D01*
X156012000Y-131576469D01*
X156012000Y-131335531D01*
X155980552Y-131096655D01*
X155918192Y-130863927D01*
X155875734Y-130761424D01*
X155825993Y-130641337D01*
X155825988Y-130641328D01*
X155705520Y-130432671D01*
X155558847Y-130241522D01*
X155558842Y-130241516D01*
X155388483Y-130071157D01*
X155388476Y-130071151D01*
X155197336Y-129924485D01*
X155197334Y-129924483D01*
X155197329Y-129924480D01*
X154988671Y-129804011D01*
X154988662Y-129804006D01*
X154766073Y-129711808D01*
X154533341Y-129649447D01*
X154294470Y-129618000D01*
X154294469Y-129618000D01*
X154053531Y-129618000D01*
X154053530Y-129618000D01*
X153814658Y-129649447D01*
X153581926Y-129711808D01*
X153359337Y-129804006D01*
X153359328Y-129804011D01*
X153233644Y-129876575D01*
X153150671Y-129924480D01*
X153150668Y-129924481D01*
X153150663Y-129924485D01*
X152959523Y-130071151D01*
X152959516Y-130071157D01*
X152789157Y-130241516D01*
X152789151Y-130241523D01*
X152642485Y-130432663D01*
X152522011Y-130641328D01*
X152522006Y-130641337D01*
X152429808Y-130863926D01*
X152367447Y-131096658D01*
X152336000Y-131335530D01*
X77356414Y-131335530D01*
X77355491Y-131334913D01*
X77218917Y-131278343D01*
X77218907Y-131278340D01*
X77073920Y-131249500D01*
X77073918Y-131249500D01*
X68799972Y-131249500D01*
X68759017Y-131242542D01*
X68679254Y-131214631D01*
X68679249Y-131214630D01*
X68500004Y-131194435D01*
X68499996Y-131194435D01*
X68320750Y-131214630D01*
X68320745Y-131214631D01*
X68150476Y-131274211D01*
X67997737Y-131370184D01*
X67870184Y-131497737D01*
X67774211Y-131650476D01*
X67714631Y-131820745D01*
X67714630Y-131820750D01*
X67694435Y-131999996D01*
X36750500Y-131999996D01*
X36750500Y-126874500D01*
X36770185Y-126807461D01*
X36822989Y-126761706D01*
X36874500Y-126750500D01*
X45073920Y-126750500D01*
X45171462Y-126731096D01*
X45218913Y-126721658D01*
X45355495Y-126665084D01*
X45408277Y-126629816D01*
X45478416Y-126582952D01*
X45981368Y-126080000D01*
X137489345Y-126080000D01*
X137509917Y-126288876D01*
X137570844Y-126489723D01*
X137669779Y-126674818D01*
X137669783Y-126674825D01*
X137802932Y-126837067D01*
X137965174Y-126970216D01*
X137965181Y-126970220D01*
X138025659Y-127002546D01*
X138150278Y-127069156D01*
X138351126Y-127130083D01*
X138560000Y-127150655D01*
X138768874Y-127130083D01*
X138969722Y-127069156D01*
X139154824Y-126970217D01*
X139317067Y-126837067D01*
X139450217Y-126674824D01*
X139549156Y-126489722D01*
X139610083Y-126288874D01*
X139630655Y-126080000D01*
X139610083Y-125871126D01*
X139549156Y-125670278D01*
X139531786Y-125637781D01*
X139450220Y-125485181D01*
X139450216Y-125485174D01*
X139435412Y-125467135D01*
X145434500Y-125467135D01*
X145434500Y-126692870D01*
X145434501Y-126692876D01*
X145440908Y-126752483D01*
X145491202Y-126887328D01*
X145491206Y-126887335D01*
X145577452Y-127002544D01*
X145577455Y-127002547D01*
X145692664Y-127088793D01*
X145692671Y-127088797D01*
X145827517Y-127139091D01*
X145827516Y-127139091D01*
X145834444Y-127139835D01*
X145887127Y-127145500D01*
X147112872Y-127145499D01*
X147172483Y-127139091D01*
X147307331Y-127088796D01*
X147422546Y-127002546D01*
X147508796Y-126887331D01*
X147559091Y-126752483D01*
X147565500Y-126692873D01*
X147565499Y-125467128D01*
X147559091Y-125407517D01*
X147527543Y-125322933D01*
X147508797Y-125272671D01*
X147508793Y-125272664D01*
X147422547Y-125157455D01*
X147422544Y-125157452D01*
X147307335Y-125071206D01*
X147307328Y-125071202D01*
X147172482Y-125020908D01*
X147172483Y-125020908D01*
X147112883Y-125014501D01*
X147112881Y-125014500D01*
X147112873Y-125014500D01*
X147112864Y-125014500D01*
X145887129Y-125014500D01*
X145887123Y-125014501D01*
X145827516Y-125020908D01*
X145692671Y-125071202D01*
X145692664Y-125071206D01*
X145577455Y-125157452D01*
X145577452Y-125157455D01*
X145491206Y-125272664D01*
X145491202Y-125272671D01*
X145440908Y-125407517D01*
X145434501Y-125467116D01*
X145434501Y-125467123D01*
X145434500Y-125467135D01*
X139435412Y-125467135D01*
X139317067Y-125322932D01*
X139154825Y-125189783D01*
X139154818Y-125189779D01*
X138969723Y-125090844D01*
X138768876Y-125029917D01*
X138560000Y-125009345D01*
X138351123Y-125029917D01*
X138150276Y-125090844D01*
X137965181Y-125189779D01*
X137965174Y-125189783D01*
X137802932Y-125322932D01*
X137669783Y-125485174D01*
X137669779Y-125485181D01*
X137570844Y-125670276D01*
X137509917Y-125871123D01*
X137489345Y-126080000D01*
X45981368Y-126080000D01*
X46962824Y-125098543D01*
X57499499Y-125098543D01*
X57537947Y-125291829D01*
X57537950Y-125291839D01*
X57613364Y-125473907D01*
X57613371Y-125473920D01*
X57722860Y-125637781D01*
X57722863Y-125637785D01*
X57862214Y-125777136D01*
X57862218Y-125777139D01*
X58026079Y-125886628D01*
X58026092Y-125886635D01*
X58208160Y-125962049D01*
X58208165Y-125962051D01*
X58208169Y-125962051D01*
X58208170Y-125962052D01*
X58401456Y-126000500D01*
X58401459Y-126000500D01*
X78688542Y-126000500D01*
X78707870Y-125996655D01*
X78785188Y-125981275D01*
X78881836Y-125962051D01*
X78935165Y-125939961D01*
X79063914Y-125886632D01*
X79227782Y-125777139D01*
X79367139Y-125637782D01*
X79367140Y-125637779D01*
X79374206Y-125630714D01*
X79374209Y-125630710D01*
X81464918Y-123540000D01*
X137489345Y-123540000D01*
X137509917Y-123748876D01*
X137570844Y-123949723D01*
X137669779Y-124134818D01*
X137669783Y-124134825D01*
X137802932Y-124297067D01*
X137965174Y-124430216D01*
X137965181Y-124430220D01*
X138144521Y-124526079D01*
X138150278Y-124529156D01*
X138351126Y-124590083D01*
X138560000Y-124610655D01*
X138768874Y-124590083D01*
X138969722Y-124529156D01*
X139154824Y-124430217D01*
X139317067Y-124297067D01*
X139450217Y-124134824D01*
X139549156Y-123949722D01*
X139610083Y-123748874D01*
X139630655Y-123540000D01*
X145429345Y-123540000D01*
X145449917Y-123748876D01*
X145510844Y-123949723D01*
X145609779Y-124134818D01*
X145609783Y-124134825D01*
X145742932Y-124297067D01*
X145905174Y-124430216D01*
X145905181Y-124430220D01*
X146084521Y-124526079D01*
X146090278Y-124529156D01*
X146291126Y-124590083D01*
X146500000Y-124610655D01*
X146708874Y-124590083D01*
X146909722Y-124529156D01*
X147094824Y-124430217D01*
X147257067Y-124297067D01*
X147390217Y-124134824D01*
X147489156Y-123949722D01*
X147550083Y-123748874D01*
X147570655Y-123540000D01*
X147550083Y-123331126D01*
X147489156Y-123130278D01*
X147390217Y-122945176D01*
X147390216Y-122945174D01*
X147257067Y-122782932D01*
X147094825Y-122649783D01*
X147094818Y-122649779D01*
X146909723Y-122550844D01*
X146708876Y-122489917D01*
X146500000Y-122469345D01*
X146291123Y-122489917D01*
X146090276Y-122550844D01*
X145905181Y-122649779D01*
X145905174Y-122649783D01*
X145742932Y-122782932D01*
X145609783Y-122945174D01*
X145609779Y-122945181D01*
X145510844Y-123130276D01*
X145449917Y-123331123D01*
X145429345Y-123540000D01*
X139630655Y-123540000D01*
X139610083Y-123331126D01*
X139549156Y-123130278D01*
X139450217Y-122945176D01*
X139450216Y-122945174D01*
X139317067Y-122782932D01*
X139154825Y-122649783D01*
X139154818Y-122649779D01*
X138969723Y-122550844D01*
X138768876Y-122489917D01*
X138560000Y-122469345D01*
X138351123Y-122489917D01*
X138150276Y-122550844D01*
X137965181Y-122649779D01*
X137965174Y-122649783D01*
X137802932Y-122782932D01*
X137669783Y-122945174D01*
X137669779Y-122945181D01*
X137570844Y-123130276D01*
X137509917Y-123331123D01*
X137489345Y-123540000D01*
X81464918Y-123540000D01*
X83393393Y-121611525D01*
X83436277Y-121583581D01*
X83598304Y-121520813D01*
X83777223Y-121410031D01*
X83932740Y-121268259D01*
X84059558Y-121100325D01*
X84109514Y-121000000D01*
X137489345Y-121000000D01*
X137509917Y-121208876D01*
X137570844Y-121409723D01*
X137669779Y-121594818D01*
X137669783Y-121594825D01*
X137802932Y-121757067D01*
X137965174Y-121890216D01*
X137965181Y-121890220D01*
X138150276Y-121989155D01*
X138150278Y-121989156D01*
X138351126Y-122050083D01*
X138560000Y-122070655D01*
X138768874Y-122050083D01*
X138969722Y-121989156D01*
X139154824Y-121890217D01*
X139317067Y-121757067D01*
X139450217Y-121594824D01*
X139549156Y-121409722D01*
X139610083Y-121208874D01*
X139630655Y-121000000D01*
X145429345Y-121000000D01*
X145449917Y-121208876D01*
X145510844Y-121409723D01*
X145609779Y-121594818D01*
X145609783Y-121594825D01*
X145742932Y-121757067D01*
X145905174Y-121890216D01*
X145905181Y-121890220D01*
X146090276Y-121989155D01*
X146090278Y-121989156D01*
X146291126Y-122050083D01*
X146500000Y-122070655D01*
X146708874Y-122050083D01*
X146909722Y-121989156D01*
X147094824Y-121890217D01*
X147257067Y-121757067D01*
X147390217Y-121594824D01*
X147489156Y-121409722D01*
X147550083Y-121208874D01*
X147570655Y-121000000D01*
X147550083Y-120791126D01*
X147489156Y-120590278D01*
X147489155Y-120590276D01*
X147390220Y-120405181D01*
X147390216Y-120405174D01*
X147257067Y-120242932D01*
X147094825Y-120109783D01*
X147094818Y-120109779D01*
X146909723Y-120010844D01*
X146708876Y-119949917D01*
X146500000Y-119929345D01*
X146291123Y-119949917D01*
X146090276Y-120010844D01*
X145905181Y-120109779D01*
X145905174Y-120109783D01*
X145742932Y-120242932D01*
X145609783Y-120405174D01*
X145609779Y-120405181D01*
X145510844Y-120590276D01*
X145449917Y-120791123D01*
X145429345Y-121000000D01*
X139630655Y-121000000D01*
X139610083Y-120791126D01*
X139549156Y-120590278D01*
X139549155Y-120590276D01*
X139450220Y-120405181D01*
X139450216Y-120405174D01*
X139317067Y-120242932D01*
X139154825Y-120109783D01*
X139154818Y-120109779D01*
X138969723Y-120010844D01*
X138768876Y-119949917D01*
X138560000Y-119929345D01*
X138351123Y-119949917D01*
X138150276Y-120010844D01*
X137965181Y-120109779D01*
X137965174Y-120109783D01*
X137802932Y-120242932D01*
X137669783Y-120405174D01*
X137669779Y-120405181D01*
X137570844Y-120590276D01*
X137509917Y-120791123D01*
X137489345Y-121000000D01*
X84109514Y-121000000D01*
X84153359Y-120911947D01*
X84210948Y-120709542D01*
X84230365Y-120500000D01*
X84210948Y-120290458D01*
X84153359Y-120088053D01*
X84059558Y-119899675D01*
X83932740Y-119731741D01*
X83777223Y-119589969D01*
X83777221Y-119589967D01*
X83598307Y-119479188D01*
X83598301Y-119479185D01*
X83443648Y-119419273D01*
X83402076Y-119403168D01*
X83195220Y-119364500D01*
X82984780Y-119364500D01*
X82777924Y-119403168D01*
X82777921Y-119403168D01*
X82777921Y-119403169D01*
X82581698Y-119479185D01*
X82581692Y-119479188D01*
X82402778Y-119589967D01*
X82402776Y-119589969D01*
X82247261Y-119731739D01*
X82120442Y-119899674D01*
X82026642Y-120088048D01*
X82011440Y-120141478D01*
X81979855Y-120195223D01*
X78211899Y-123963181D01*
X78150576Y-123996666D01*
X78124218Y-123999500D01*
X75624500Y-123999500D01*
X75557461Y-123979815D01*
X75511706Y-123927011D01*
X75500500Y-123875500D01*
X75500500Y-120499999D01*
X76869635Y-120499999D01*
X76869635Y-120500000D01*
X76889051Y-120709537D01*
X76889051Y-120709539D01*
X76889052Y-120709542D01*
X76946641Y-120911947D01*
X76946642Y-120911950D01*
X77040310Y-121100059D01*
X77040442Y-121100325D01*
X77122414Y-121208874D01*
X77167261Y-121268260D01*
X77322776Y-121410030D01*
X77322778Y-121410032D01*
X77501692Y-121520811D01*
X77501698Y-121520814D01*
X77543268Y-121536918D01*
X77697924Y-121596832D01*
X77904780Y-121635500D01*
X77904782Y-121635500D01*
X78115218Y-121635500D01*
X78115220Y-121635500D01*
X78322076Y-121596832D01*
X78518304Y-121520813D01*
X78697223Y-121410031D01*
X78852740Y-121268259D01*
X78979558Y-121100325D01*
X79073359Y-120911947D01*
X79130948Y-120709542D01*
X79150365Y-120500000D01*
X79130948Y-120290458D01*
X79073359Y-120088053D01*
X78979558Y-119899675D01*
X78852740Y-119731741D01*
X78697223Y-119589969D01*
X78697221Y-119589967D01*
X78518307Y-119479188D01*
X78518301Y-119479185D01*
X78363648Y-119419273D01*
X78322076Y-119403168D01*
X78115220Y-119364500D01*
X77904780Y-119364500D01*
X77697924Y-119403168D01*
X77697921Y-119403168D01*
X77697921Y-119403169D01*
X77501698Y-119479185D01*
X77501692Y-119479188D01*
X77322778Y-119589967D01*
X77322776Y-119589969D01*
X77167261Y-119731739D01*
X77040442Y-119899674D01*
X76946642Y-120088049D01*
X76889051Y-120290462D01*
X76869635Y-120499999D01*
X75500500Y-120499999D01*
X75500500Y-118460000D01*
X137489345Y-118460000D01*
X137509917Y-118668876D01*
X137570844Y-118869723D01*
X137669779Y-119054818D01*
X137669783Y-119054825D01*
X137802932Y-119217067D01*
X137965174Y-119350216D01*
X137965181Y-119350220D01*
X138097983Y-119421204D01*
X138150278Y-119449156D01*
X138351126Y-119510083D01*
X138560000Y-119530655D01*
X138768874Y-119510083D01*
X138969722Y-119449156D01*
X139154824Y-119350217D01*
X139317067Y-119217067D01*
X139450217Y-119054824D01*
X139549156Y-118869722D01*
X139610083Y-118668874D01*
X139630655Y-118460000D01*
X145429847Y-118460000D01*
X145450409Y-118668774D01*
X145511309Y-118869534D01*
X145589892Y-119016552D01*
X145589893Y-119016552D01*
X146110000Y-118496445D01*
X146110000Y-118511344D01*
X146136578Y-118610534D01*
X146187923Y-118699465D01*
X146260535Y-118772077D01*
X146349466Y-118823422D01*
X146448656Y-118850000D01*
X146463553Y-118850000D01*
X145943445Y-119370106D01*
X146090465Y-119448690D01*
X146291227Y-119509590D01*
X146291223Y-119509590D01*
X146500000Y-119530152D01*
X146708774Y-119509590D01*
X146909532Y-119448690D01*
X147056553Y-119370105D01*
X146536448Y-118850000D01*
X146551344Y-118850000D01*
X146650534Y-118823422D01*
X146739465Y-118772077D01*
X146812077Y-118699465D01*
X146863422Y-118610534D01*
X146890000Y-118511344D01*
X146890000Y-118496447D01*
X147410105Y-119016552D01*
X147488690Y-118869532D01*
X147549590Y-118668774D01*
X147570152Y-118460000D01*
X147549590Y-118251225D01*
X147488690Y-118050465D01*
X147410106Y-117903445D01*
X146890000Y-118423551D01*
X146890000Y-118408656D01*
X146863422Y-118309466D01*
X146812077Y-118220535D01*
X146739465Y-118147923D01*
X146650534Y-118096578D01*
X146551344Y-118070000D01*
X146536447Y-118070000D01*
X147056552Y-117549893D01*
X147056552Y-117549892D01*
X146909534Y-117471309D01*
X146708772Y-117410409D01*
X146708776Y-117410409D01*
X146500000Y-117389847D01*
X146291225Y-117410409D01*
X146090471Y-117471307D01*
X145943446Y-117549893D01*
X146463554Y-118070000D01*
X146448656Y-118070000D01*
X146349466Y-118096578D01*
X146260535Y-118147923D01*
X146187923Y-118220535D01*
X146136578Y-118309466D01*
X146110000Y-118408656D01*
X146110000Y-118423553D01*
X145589893Y-117903446D01*
X145511307Y-118050471D01*
X145450409Y-118251225D01*
X145429847Y-118460000D01*
X139630655Y-118460000D01*
X139610083Y-118251126D01*
X139549156Y-118050278D01*
X139450217Y-117865176D01*
X139450216Y-117865174D01*
X139317067Y-117702932D01*
X139154825Y-117569783D01*
X139154818Y-117569779D01*
X138969723Y-117470844D01*
X138768876Y-117409917D01*
X138560000Y-117389345D01*
X138351123Y-117409917D01*
X138150276Y-117470844D01*
X137965181Y-117569779D01*
X137965174Y-117569783D01*
X137802932Y-117702932D01*
X137669783Y-117865174D01*
X137669779Y-117865181D01*
X137570844Y-118050276D01*
X137509917Y-118251123D01*
X137489345Y-118460000D01*
X75500500Y-118460000D01*
X75500500Y-109598543D01*
X78999499Y-109598543D01*
X79037947Y-109791829D01*
X79037950Y-109791839D01*
X79113364Y-109973907D01*
X79113371Y-109973920D01*
X79222860Y-110137781D01*
X79222863Y-110137785D01*
X79362214Y-110277136D01*
X79362218Y-110277139D01*
X79526079Y-110386628D01*
X79526092Y-110386635D01*
X79708160Y-110462049D01*
X79708165Y-110462051D01*
X79708169Y-110462051D01*
X79708170Y-110462052D01*
X79901456Y-110500500D01*
X79901459Y-110500500D01*
X86034218Y-110500500D01*
X86101257Y-110520185D01*
X86121899Y-110536819D01*
X86362215Y-110777136D01*
X86362219Y-110777139D01*
X86526079Y-110886627D01*
X86526083Y-110886629D01*
X86526086Y-110886631D01*
X86708164Y-110962051D01*
X86901455Y-111000499D01*
X86901458Y-111000500D01*
X86901460Y-111000500D01*
X87098542Y-111000500D01*
X87098543Y-111000499D01*
X87291836Y-110962051D01*
X87473914Y-110886631D01*
X87637781Y-110777139D01*
X87777139Y-110637781D01*
X87886631Y-110473914D01*
X87962051Y-110291836D01*
X88000500Y-110098540D01*
X88000500Y-109901460D01*
X88000500Y-109901457D01*
X88000499Y-109901455D01*
X87962052Y-109708171D01*
X87962051Y-109708164D01*
X87886631Y-109526086D01*
X87886629Y-109526083D01*
X87886627Y-109526079D01*
X87777139Y-109362219D01*
X87777136Y-109362215D01*
X87281479Y-108866559D01*
X87281459Y-108866537D01*
X87137785Y-108722863D01*
X87137781Y-108722860D01*
X86973920Y-108613371D01*
X86973911Y-108613366D01*
X86901315Y-108583296D01*
X86845165Y-108560038D01*
X86791836Y-108537949D01*
X86791832Y-108537948D01*
X86791828Y-108537946D01*
X86695188Y-108518724D01*
X86598544Y-108499500D01*
X86598541Y-108499500D01*
X79901459Y-108499500D01*
X79901457Y-108499500D01*
X79708170Y-108537947D01*
X79708160Y-108537950D01*
X79526092Y-108613364D01*
X79526079Y-108613371D01*
X79362218Y-108722860D01*
X79362214Y-108722863D01*
X79222863Y-108862214D01*
X79222860Y-108862218D01*
X79113371Y-109026079D01*
X79113364Y-109026092D01*
X79037950Y-109208160D01*
X79037947Y-109208170D01*
X78999500Y-109401456D01*
X78999500Y-109401459D01*
X78999500Y-109598541D01*
X78999500Y-109598543D01*
X78999499Y-109598543D01*
X75500500Y-109598543D01*
X75500500Y-105999998D01*
X103489645Y-105999998D01*
X103489645Y-106000001D01*
X103509039Y-106271160D01*
X103509040Y-106271167D01*
X103555997Y-106487025D01*
X103566825Y-106536801D01*
X103621089Y-106682288D01*
X103661830Y-106791519D01*
X103792109Y-107030107D01*
X103792110Y-107030108D01*
X103792113Y-107030113D01*
X103955029Y-107247742D01*
X103955033Y-107247746D01*
X103955038Y-107247752D01*
X104147247Y-107439961D01*
X104147253Y-107439966D01*
X104147258Y-107439971D01*
X104364887Y-107602887D01*
X104364891Y-107602889D01*
X104364892Y-107602890D01*
X104603481Y-107733169D01*
X104603480Y-107733169D01*
X104603484Y-107733170D01*
X104603487Y-107733172D01*
X104858199Y-107828175D01*
X105123840Y-107885961D01*
X105375605Y-107903967D01*
X105394999Y-107905355D01*
X105395000Y-107905355D01*
X105395001Y-107905355D01*
X105413100Y-107904060D01*
X105666160Y-107885961D01*
X105931801Y-107828175D01*
X106186513Y-107733172D01*
X106186517Y-107733169D01*
X106186519Y-107733169D01*
X106305813Y-107668029D01*
X106425113Y-107602887D01*
X106642742Y-107439971D01*
X106834971Y-107247742D01*
X106997887Y-107030113D01*
X107063029Y-106910813D01*
X107128169Y-106791519D01*
X107128169Y-106791517D01*
X107128172Y-106791513D01*
X107223175Y-106536801D01*
X107280961Y-106271160D01*
X107300355Y-106000000D01*
X107300355Y-105999998D01*
X132699645Y-105999998D01*
X132699645Y-106000001D01*
X132719039Y-106271160D01*
X132719040Y-106271167D01*
X132765997Y-106487025D01*
X132776825Y-106536801D01*
X132831089Y-106682288D01*
X132871830Y-106791519D01*
X133002109Y-107030107D01*
X133002110Y-107030108D01*
X133002113Y-107030113D01*
X133165029Y-107247742D01*
X133165033Y-107247746D01*
X133165038Y-107247752D01*
X133357247Y-107439961D01*
X133357253Y-107439966D01*
X133357258Y-107439971D01*
X133574887Y-107602887D01*
X133574891Y-107602889D01*
X133574892Y-107602890D01*
X133813481Y-107733169D01*
X133813480Y-107733169D01*
X133813484Y-107733170D01*
X133813487Y-107733172D01*
X134068199Y-107828175D01*
X134333840Y-107885961D01*
X134585605Y-107903967D01*
X134604999Y-107905355D01*
X134605000Y-107905355D01*
X134605001Y-107905355D01*
X134623100Y-107904060D01*
X134876160Y-107885961D01*
X135141801Y-107828175D01*
X135396513Y-107733172D01*
X135396517Y-107733169D01*
X135396519Y-107733169D01*
X135515813Y-107668029D01*
X135635113Y-107602887D01*
X135852742Y-107439971D01*
X136044971Y-107247742D01*
X136207887Y-107030113D01*
X136273029Y-106910813D01*
X136338169Y-106791519D01*
X136338169Y-106791517D01*
X136338172Y-106791513D01*
X136433175Y-106536801D01*
X136490961Y-106271160D01*
X136510355Y-106000000D01*
X136490961Y-105728840D01*
X136433175Y-105463199D01*
X136338172Y-105208487D01*
X136338170Y-105208484D01*
X136338169Y-105208480D01*
X136207890Y-104969892D01*
X136207889Y-104969891D01*
X136207887Y-104969887D01*
X136044971Y-104752258D01*
X136044966Y-104752253D01*
X136044961Y-104752247D01*
X135852752Y-104560038D01*
X135852746Y-104560033D01*
X135852742Y-104560029D01*
X135635113Y-104397113D01*
X135635108Y-104397110D01*
X135635107Y-104397109D01*
X135396518Y-104266830D01*
X135396519Y-104266830D01*
X135346920Y-104248330D01*
X135141801Y-104171825D01*
X135141794Y-104171823D01*
X135141793Y-104171823D01*
X134876167Y-104114040D01*
X134876160Y-104114039D01*
X134605001Y-104094645D01*
X134604999Y-104094645D01*
X134333839Y-104114039D01*
X134333832Y-104114040D01*
X134068206Y-104171823D01*
X134068202Y-104171824D01*
X134068199Y-104171825D01*
X133940843Y-104219326D01*
X133813480Y-104266830D01*
X133574892Y-104397109D01*
X133574891Y-104397110D01*
X133357259Y-104560028D01*
X133357247Y-104560038D01*
X133165038Y-104752247D01*
X133165028Y-104752259D01*
X133002110Y-104969891D01*
X133002109Y-104969892D01*
X132871830Y-105208480D01*
X132850518Y-105265620D01*
X132776825Y-105463199D01*
X132776824Y-105463202D01*
X132776823Y-105463206D01*
X132719040Y-105728832D01*
X132719039Y-105728839D01*
X132699645Y-105999998D01*
X107300355Y-105999998D01*
X107280961Y-105728840D01*
X107223175Y-105463199D01*
X107128172Y-105208487D01*
X107128170Y-105208484D01*
X107128169Y-105208480D01*
X106997890Y-104969892D01*
X106997889Y-104969891D01*
X106997887Y-104969887D01*
X106834971Y-104752258D01*
X106834966Y-104752253D01*
X106834961Y-104752247D01*
X106642752Y-104560038D01*
X106642746Y-104560033D01*
X106642742Y-104560029D01*
X106425113Y-104397113D01*
X106425108Y-104397110D01*
X106425107Y-104397109D01*
X106186518Y-104266830D01*
X106186519Y-104266830D01*
X106136920Y-104248330D01*
X105931801Y-104171825D01*
X105931794Y-104171823D01*
X105931793Y-104171823D01*
X105666167Y-104114040D01*
X105666160Y-104114039D01*
X105395001Y-104094645D01*
X105394999Y-104094645D01*
X105123839Y-104114039D01*
X105123832Y-104114040D01*
X104858206Y-104171823D01*
X104858202Y-104171824D01*
X104858199Y-104171825D01*
X104730843Y-104219326D01*
X104603480Y-104266830D01*
X104364892Y-104397109D01*
X104364891Y-104397110D01*
X104147259Y-104560028D01*
X104147247Y-104560038D01*
X103955038Y-104752247D01*
X103955028Y-104752259D01*
X103792110Y-104969891D01*
X103792109Y-104969892D01*
X103661830Y-105208480D01*
X103640518Y-105265620D01*
X103566825Y-105463199D01*
X103566824Y-105463202D01*
X103566823Y-105463206D01*
X103509040Y-105728832D01*
X103509039Y-105728839D01*
X103489645Y-105999998D01*
X75500500Y-105999998D01*
X75500500Y-105401456D01*
X75462052Y-105208170D01*
X75462051Y-105208169D01*
X75462051Y-105208165D01*
X75432423Y-105136635D01*
X75386635Y-105026092D01*
X75386628Y-105026079D01*
X75277139Y-104862218D01*
X75277136Y-104862214D01*
X75137785Y-104722863D01*
X75137781Y-104722860D01*
X74973920Y-104613371D01*
X74973907Y-104613364D01*
X74791839Y-104537950D01*
X74791829Y-104537947D01*
X74598543Y-104499500D01*
X74598541Y-104499500D01*
X74401459Y-104499500D01*
X74401457Y-104499500D01*
X74208170Y-104537947D01*
X74208160Y-104537950D01*
X74026092Y-104613364D01*
X74026079Y-104613371D01*
X73862218Y-104722860D01*
X73862214Y-104722863D01*
X73722863Y-104862214D01*
X73722860Y-104862218D01*
X73613371Y-105026079D01*
X73613364Y-105026092D01*
X73537950Y-105208160D01*
X73537947Y-105208170D01*
X73499500Y-105401456D01*
X73499500Y-123875500D01*
X73479815Y-123942539D01*
X73427011Y-123988294D01*
X73375500Y-123999500D01*
X58401457Y-123999500D01*
X58208170Y-124037947D01*
X58208160Y-124037950D01*
X58026092Y-124113364D01*
X58026079Y-124113371D01*
X57862218Y-124222860D01*
X57862214Y-124222863D01*
X57722863Y-124362214D01*
X57722860Y-124362218D01*
X57613371Y-124526079D01*
X57613364Y-124526092D01*
X57537950Y-124708160D01*
X57537947Y-124708170D01*
X57499500Y-124901456D01*
X57499500Y-124901459D01*
X57499500Y-125098541D01*
X57499500Y-125098543D01*
X57499499Y-125098543D01*
X46962824Y-125098543D01*
X50308061Y-121753305D01*
X50344134Y-121730655D01*
X50343246Y-121728811D01*
X50349518Y-121725790D01*
X50349522Y-121725789D01*
X50502262Y-121629816D01*
X50629816Y-121502262D01*
X50725789Y-121349522D01*
X50785368Y-121179255D01*
X50793295Y-121108899D01*
X50805565Y-121000003D01*
X50805565Y-120999996D01*
X50785369Y-120820750D01*
X50785368Y-120820745D01*
X50775003Y-120791123D01*
X50725789Y-120650478D01*
X50629816Y-120497738D01*
X50502262Y-120370184D01*
X50474817Y-120352939D01*
X50349523Y-120274211D01*
X50179254Y-120214631D01*
X50179249Y-120214630D01*
X50000004Y-120194435D01*
X49999996Y-120194435D01*
X49820750Y-120214630D01*
X49820745Y-120214631D01*
X49650476Y-120274211D01*
X49497737Y-120370184D01*
X49370184Y-120497737D01*
X49274211Y-120650478D01*
X49271188Y-120656756D01*
X49269362Y-120655876D01*
X49246693Y-120691937D01*
X44725451Y-125213181D01*
X44664128Y-125246666D01*
X44637770Y-125249500D01*
X29799972Y-125249500D01*
X29759017Y-125242542D01*
X29679254Y-125214631D01*
X29679249Y-125214630D01*
X29500004Y-125194435D01*
X29499996Y-125194435D01*
X29320750Y-125214630D01*
X29320745Y-125214631D01*
X29150476Y-125274211D01*
X28997737Y-125370184D01*
X28870184Y-125497737D01*
X28774211Y-125650476D01*
X28714631Y-125820745D01*
X28714630Y-125820750D01*
X28694435Y-125999996D01*
X20500500Y-125999996D01*
X20500500Y-119817135D01*
X66714500Y-119817135D01*
X66714500Y-121182870D01*
X66714501Y-121182876D01*
X66720908Y-121242483D01*
X66771202Y-121377328D01*
X66771206Y-121377335D01*
X66857452Y-121492544D01*
X66857455Y-121492547D01*
X66972664Y-121578793D01*
X66972671Y-121578797D01*
X67107517Y-121629091D01*
X67107516Y-121629091D01*
X67114251Y-121629815D01*
X67167127Y-121635500D01*
X68532872Y-121635499D01*
X68592483Y-121629091D01*
X68727331Y-121578796D01*
X68842546Y-121492546D01*
X68928796Y-121377331D01*
X68979091Y-121242483D01*
X68985500Y-121182873D01*
X68985499Y-120499999D01*
X69250138Y-120499999D01*
X69250138Y-120500000D01*
X69269545Y-120709444D01*
X69327111Y-120911769D01*
X69420870Y-121100059D01*
X69427545Y-121108899D01*
X70009000Y-120527445D01*
X70009000Y-120550160D01*
X70034964Y-120647061D01*
X70085124Y-120733940D01*
X70156060Y-120804876D01*
X70242939Y-120855036D01*
X70339840Y-120881000D01*
X70362554Y-120881000D01*
X69783889Y-121459663D01*
X69783889Y-121459664D01*
X69881919Y-121520362D01*
X69881920Y-121520363D01*
X70078063Y-121596348D01*
X70284829Y-121635000D01*
X70495171Y-121635000D01*
X70701935Y-121596348D01*
X70701936Y-121596348D01*
X70898079Y-121520362D01*
X70898083Y-121520360D01*
X70996109Y-121459663D01*
X70417447Y-120881000D01*
X70440160Y-120881000D01*
X70537061Y-120855036D01*
X70623940Y-120804876D01*
X70694876Y-120733940D01*
X70745036Y-120647061D01*
X70771000Y-120550160D01*
X70771000Y-120527446D01*
X71352454Y-121108900D01*
X71359128Y-121100062D01*
X71452888Y-120911769D01*
X71510454Y-120709444D01*
X71529862Y-120500000D01*
X71529862Y-120499999D01*
X71510454Y-120290555D01*
X71452888Y-120088230D01*
X71359129Y-119899939D01*
X71352454Y-119891099D01*
X70771000Y-120472553D01*
X70771000Y-120449840D01*
X70745036Y-120352939D01*
X70694876Y-120266060D01*
X70623940Y-120195124D01*
X70537061Y-120144964D01*
X70440160Y-120119000D01*
X70417447Y-120119000D01*
X70996110Y-119540335D01*
X70898080Y-119479637D01*
X70898079Y-119479636D01*
X70701936Y-119403651D01*
X70495171Y-119365000D01*
X70284829Y-119365000D01*
X70078064Y-119403651D01*
X70078063Y-119403651D01*
X69881922Y-119479636D01*
X69881916Y-119479638D01*
X69783889Y-119540334D01*
X69783888Y-119540335D01*
X70362554Y-120119000D01*
X70339840Y-120119000D01*
X70242939Y-120144964D01*
X70156060Y-120195124D01*
X70085124Y-120266060D01*
X70034964Y-120352939D01*
X70009000Y-120449840D01*
X70009000Y-120472554D01*
X69427545Y-119891099D01*
X69427544Y-119891099D01*
X69420873Y-119899935D01*
X69420868Y-119899942D01*
X69327111Y-120088230D01*
X69269545Y-120290555D01*
X69250138Y-120499999D01*
X68985499Y-120499999D01*
X68985499Y-119817128D01*
X68979091Y-119757517D01*
X68969477Y-119731741D01*
X68928797Y-119622671D01*
X68928793Y-119622664D01*
X68842547Y-119507455D01*
X68842544Y-119507452D01*
X68727335Y-119421206D01*
X68727328Y-119421202D01*
X68592482Y-119370908D01*
X68592483Y-119370908D01*
X68532883Y-119364501D01*
X68532881Y-119364500D01*
X68532873Y-119364500D01*
X68532864Y-119364500D01*
X67167129Y-119364500D01*
X67167123Y-119364501D01*
X67107516Y-119370908D01*
X66972671Y-119421202D01*
X66972664Y-119421206D01*
X66857455Y-119507452D01*
X66857452Y-119507455D01*
X66771206Y-119622664D01*
X66771202Y-119622671D01*
X66720908Y-119757517D01*
X66714501Y-119817116D01*
X66714501Y-119817123D01*
X66714500Y-119817135D01*
X20500500Y-119817135D01*
X20500500Y-101499993D01*
X22914968Y-101499993D01*
X22914968Y-101500006D01*
X22935086Y-101973631D01*
X22995304Y-102443874D01*
X23095181Y-102907306D01*
X23095183Y-102907314D01*
X23233999Y-103360598D01*
X23234004Y-103360612D01*
X23410755Y-103800471D01*
X23410759Y-103800482D01*
X23624179Y-104223774D01*
X23624189Y-104223794D01*
X23872750Y-104627481D01*
X24154648Y-105008633D01*
X24154654Y-105008641D01*
X24380825Y-105265620D01*
X26172818Y-103473627D01*
X26222208Y-103535560D01*
X26464440Y-103777792D01*
X26526371Y-103827180D01*
X24733983Y-105619568D01*
X24810120Y-105692537D01*
X24810122Y-105692538D01*
X25178952Y-105990348D01*
X25178953Y-105990349D01*
X25571716Y-106255809D01*
X25571735Y-106255821D01*
X25985588Y-106487014D01*
X25985610Y-106487025D01*
X26417579Y-106682288D01*
X26417585Y-106682290D01*
X26864579Y-106840223D01*
X27323351Y-106959677D01*
X27790597Y-107039795D01*
X27790605Y-107039796D01*
X28262946Y-107079999D01*
X28262966Y-107080000D01*
X28737034Y-107080000D01*
X28737053Y-107079999D01*
X29209394Y-107039796D01*
X29209402Y-107039795D01*
X29676648Y-106959677D01*
X30135420Y-106840223D01*
X30582414Y-106682290D01*
X30582420Y-106682288D01*
X31014389Y-106487025D01*
X31014411Y-106487014D01*
X31428264Y-106255821D01*
X31428283Y-106255809D01*
X31821039Y-105990353D01*
X32189886Y-105692531D01*
X32266015Y-105619568D01*
X30473628Y-103827181D01*
X30535560Y-103777792D01*
X30777792Y-103535560D01*
X30827181Y-103473628D01*
X32619173Y-105265620D01*
X32845346Y-105008638D01*
X32845360Y-105008621D01*
X33127249Y-104627481D01*
X33298999Y-104348543D01*
X69749499Y-104348543D01*
X69787947Y-104541829D01*
X69787950Y-104541839D01*
X69863364Y-104723907D01*
X69863371Y-104723920D01*
X69972860Y-104887781D01*
X69972863Y-104887785D01*
X70112214Y-105027136D01*
X70112218Y-105027139D01*
X70276079Y-105136628D01*
X70276092Y-105136635D01*
X70458160Y-105212049D01*
X70458165Y-105212051D01*
X70458169Y-105212051D01*
X70458170Y-105212052D01*
X70651456Y-105250500D01*
X70651459Y-105250500D01*
X70848543Y-105250500D01*
X70978582Y-105224632D01*
X71041835Y-105212051D01*
X71223914Y-105136632D01*
X71387782Y-105027139D01*
X71527139Y-104887782D01*
X71636632Y-104723914D01*
X71712051Y-104541835D01*
X71733219Y-104435416D01*
X71750500Y-104348543D01*
X71750500Y-97401456D01*
X71712052Y-97208170D01*
X71712051Y-97208169D01*
X71712051Y-97208165D01*
X71679598Y-97129815D01*
X71636635Y-97026092D01*
X71636628Y-97026079D01*
X71527139Y-96862218D01*
X71527136Y-96862214D01*
X71387785Y-96722863D01*
X71387781Y-96722860D01*
X71223920Y-96613371D01*
X71223907Y-96613364D01*
X71041839Y-96537950D01*
X71041829Y-96537947D01*
X70848543Y-96499500D01*
X70848541Y-96499500D01*
X70651459Y-96499500D01*
X70651457Y-96499500D01*
X70458170Y-96537947D01*
X70458160Y-96537950D01*
X70276092Y-96613364D01*
X70276079Y-96613371D01*
X70112218Y-96722860D01*
X70112214Y-96722863D01*
X69972863Y-96862214D01*
X69972860Y-96862218D01*
X69863371Y-97026079D01*
X69863364Y-97026092D01*
X69787950Y-97208160D01*
X69787947Y-97208170D01*
X69749500Y-97401456D01*
X69749500Y-97401459D01*
X69749500Y-104348541D01*
X69749500Y-104348543D01*
X69749499Y-104348543D01*
X33298999Y-104348543D01*
X33375810Y-104223794D01*
X33375820Y-104223774D01*
X33589240Y-103800482D01*
X33589244Y-103800471D01*
X33765995Y-103360612D01*
X33766000Y-103360598D01*
X33904816Y-102907314D01*
X33904818Y-102907306D01*
X34004695Y-102443874D01*
X34064913Y-101973631D01*
X34085032Y-101500006D01*
X34085032Y-101499993D01*
X34064913Y-101026368D01*
X34004695Y-100556125D01*
X33904818Y-100092693D01*
X33904816Y-100092685D01*
X33766000Y-99639401D01*
X33765995Y-99639387D01*
X33589244Y-99199528D01*
X33589240Y-99199517D01*
X33375820Y-98776225D01*
X33375810Y-98776205D01*
X33127249Y-98372518D01*
X32845351Y-97991366D01*
X32845345Y-97991358D01*
X32619173Y-97734378D01*
X30827180Y-99526371D01*
X30777792Y-99464440D01*
X30535560Y-99222208D01*
X30473626Y-99172818D01*
X32266015Y-97380430D01*
X32189879Y-97307462D01*
X32189877Y-97307461D01*
X31821047Y-97009651D01*
X31821046Y-97009650D01*
X31428283Y-96744190D01*
X31428264Y-96744178D01*
X31014411Y-96512985D01*
X31014389Y-96512974D01*
X30582420Y-96317711D01*
X30582414Y-96317709D01*
X30135420Y-96159776D01*
X29676648Y-96040322D01*
X29209402Y-95960204D01*
X29209394Y-95960203D01*
X28737053Y-95920000D01*
X28262946Y-95920000D01*
X27790605Y-95960203D01*
X27790597Y-95960204D01*
X27323351Y-96040322D01*
X26864579Y-96159776D01*
X26417585Y-96317709D01*
X26417579Y-96317711D01*
X25985610Y-96512974D01*
X25985588Y-96512985D01*
X25571735Y-96744178D01*
X25571716Y-96744190D01*
X25178953Y-97009650D01*
X25178952Y-97009651D01*
X24810123Y-97307460D01*
X24810107Y-97307474D01*
X24733984Y-97380431D01*
X26526371Y-99172818D01*
X26464440Y-99222208D01*
X26222208Y-99464440D01*
X26172818Y-99526371D01*
X24380826Y-97734379D01*
X24154648Y-97991366D01*
X24154645Y-97991370D01*
X23872750Y-98372518D01*
X23624189Y-98776205D01*
X23624179Y-98776225D01*
X23410759Y-99199517D01*
X23410755Y-99199528D01*
X23234004Y-99639387D01*
X23233999Y-99639401D01*
X23095183Y-100092685D01*
X23095181Y-100092693D01*
X22995304Y-100556125D01*
X22935086Y-101026368D01*
X22914968Y-101499993D01*
X20500500Y-101499993D01*
X20500500Y-85499993D01*
X22914467Y-85499993D01*
X22914467Y-85500006D01*
X22934587Y-85973673D01*
X22994810Y-86443961D01*
X23094696Y-86907432D01*
X23094698Y-86907440D01*
X23233527Y-87360765D01*
X23233529Y-87360770D01*
X23410298Y-87800677D01*
X23410302Y-87800688D01*
X23623741Y-88224018D01*
X23623751Y-88224036D01*
X23872332Y-88627758D01*
X24154256Y-89008944D01*
X24154261Y-89008949D01*
X24154262Y-89008951D01*
X24467489Y-89364846D01*
X24809788Y-89692913D01*
X24809790Y-89692914D01*
X25178654Y-89990751D01*
X25178655Y-89990752D01*
X25329322Y-90092584D01*
X25571464Y-90256244D01*
X25755423Y-90359009D01*
X25985362Y-90487462D01*
X25985384Y-90487473D01*
X26361098Y-90657306D01*
X26417398Y-90682755D01*
X26864429Y-90840701D01*
X27323244Y-90960167D01*
X27790538Y-91040293D01*
X27936774Y-91052739D01*
X28262924Y-91080499D01*
X28262941Y-91080499D01*
X28262943Y-91080500D01*
X28262944Y-91080500D01*
X28737056Y-91080500D01*
X28737057Y-91080500D01*
X28737058Y-91080499D01*
X28737075Y-91080499D01*
X29018242Y-91056567D01*
X29209462Y-91040293D01*
X29676756Y-90960167D01*
X30135571Y-90840701D01*
X30582602Y-90682755D01*
X31014628Y-90487467D01*
X31428536Y-90256244D01*
X31821343Y-89990753D01*
X32190209Y-89692914D01*
X32190211Y-89692913D01*
X32190215Y-89692908D01*
X32190220Y-89692905D01*
X32532510Y-89364847D01*
X32845744Y-89008944D01*
X33127668Y-88627758D01*
X33376249Y-88224036D01*
X33589697Y-87800688D01*
X33766473Y-87360763D01*
X33905304Y-86907432D01*
X34005190Y-86443960D01*
X34065411Y-85973686D01*
X34075281Y-85741358D01*
X34085533Y-85500006D01*
X34085533Y-85499993D01*
X34065412Y-85026326D01*
X34065411Y-85026320D01*
X34065411Y-85026314D01*
X34005190Y-84556040D01*
X33993112Y-84499996D01*
X39194435Y-84499996D01*
X39194435Y-84500003D01*
X39214630Y-84679249D01*
X39214631Y-84679254D01*
X39242542Y-84759017D01*
X39249500Y-84799972D01*
X39249500Y-96200028D01*
X39242542Y-96240982D01*
X39214631Y-96320747D01*
X39194435Y-96499996D01*
X39194435Y-96500003D01*
X39214630Y-96679249D01*
X39214631Y-96679254D01*
X39274211Y-96849523D01*
X39282188Y-96862218D01*
X39370184Y-97002262D01*
X39497738Y-97129816D01*
X39588080Y-97186582D01*
X39622437Y-97208170D01*
X39650478Y-97225789D01*
X39820745Y-97285368D01*
X39820750Y-97285369D01*
X39999996Y-97305565D01*
X40000000Y-97305565D01*
X40000004Y-97305565D01*
X40179249Y-97285369D01*
X40179252Y-97285368D01*
X40179255Y-97285368D01*
X40349522Y-97225789D01*
X40502262Y-97129816D01*
X40629816Y-97002262D01*
X40725789Y-96849522D01*
X40785368Y-96679255D01*
X40785369Y-96679249D01*
X40805565Y-96500003D01*
X40805565Y-96499996D01*
X40785368Y-96320747D01*
X40785368Y-96320745D01*
X40757458Y-96240982D01*
X40750500Y-96200028D01*
X40750500Y-93452135D01*
X44944780Y-93452135D01*
X44944780Y-95547870D01*
X44944781Y-95547876D01*
X44951188Y-95607483D01*
X45001482Y-95742328D01*
X45001486Y-95742335D01*
X45087732Y-95857544D01*
X45087735Y-95857547D01*
X45202944Y-95943793D01*
X45202951Y-95943797D01*
X45337797Y-95994091D01*
X45337796Y-95994091D01*
X45344724Y-95994835D01*
X45397407Y-96000500D01*
X47398152Y-96000499D01*
X47457763Y-95994091D01*
X47592611Y-95943796D01*
X47707826Y-95857546D01*
X47794076Y-95742331D01*
X47804470Y-95714460D01*
X47846340Y-95658527D01*
X47911803Y-95634108D01*
X47980077Y-95648958D01*
X47993526Y-95657465D01*
X48176242Y-95790217D01*
X48308379Y-95857544D01*
X48380024Y-95894049D01*
X48597531Y-95964721D01*
X48597532Y-95964721D01*
X48597535Y-95964722D01*
X48823426Y-96000500D01*
X48823427Y-96000500D01*
X49052133Y-96000500D01*
X49052134Y-96000500D01*
X49278025Y-95964722D01*
X49278028Y-95964721D01*
X49278029Y-95964721D01*
X49495535Y-95894049D01*
X49495535Y-95894048D01*
X49495538Y-95894048D01*
X49699318Y-95790217D01*
X49884346Y-95655786D01*
X50046066Y-95494066D01*
X50107463Y-95409559D01*
X50162792Y-95366896D01*
X50232405Y-95360917D01*
X50294200Y-95393523D01*
X50308094Y-95409556D01*
X50369494Y-95494066D01*
X50531214Y-95655786D01*
X50716242Y-95790217D01*
X50848379Y-95857544D01*
X50920024Y-95894049D01*
X51137531Y-95964721D01*
X51137532Y-95964721D01*
X51137535Y-95964722D01*
X51363426Y-96000500D01*
X51363427Y-96000500D01*
X51592133Y-96000500D01*
X51592134Y-96000500D01*
X51818025Y-95964722D01*
X51818028Y-95964721D01*
X51818029Y-95964721D01*
X52035535Y-95894049D01*
X52035535Y-95894048D01*
X52035538Y-95894048D01*
X52239318Y-95790217D01*
X52424346Y-95655786D01*
X52586066Y-95494066D01*
X52720497Y-95309038D01*
X52824328Y-95105258D01*
X52895002Y-94887745D01*
X52930780Y-94661854D01*
X52930780Y-94338146D01*
X52895002Y-94112255D01*
X52895001Y-94112251D01*
X52895001Y-94112250D01*
X52824329Y-93894744D01*
X52824328Y-93894742D01*
X52720497Y-93690962D01*
X52586066Y-93505934D01*
X52424346Y-93344214D01*
X52239318Y-93209783D01*
X52035535Y-93105950D01*
X51818028Y-93035278D01*
X51632592Y-93005908D01*
X51592134Y-92999500D01*
X51363426Y-92999500D01*
X51322968Y-93005908D01*
X51137533Y-93035278D01*
X51137530Y-93035278D01*
X50920024Y-93105950D01*
X50716241Y-93209783D01*
X50650330Y-93257671D01*
X50531214Y-93344214D01*
X50531212Y-93344216D01*
X50531211Y-93344216D01*
X50369495Y-93505932D01*
X50308098Y-93590438D01*
X50252767Y-93633103D01*
X50183154Y-93639082D01*
X50121359Y-93606476D01*
X50107462Y-93590438D01*
X50096553Y-93575423D01*
X50046066Y-93505934D01*
X49884346Y-93344214D01*
X49699318Y-93209783D01*
X49495535Y-93105950D01*
X49278028Y-93035278D01*
X49092592Y-93005908D01*
X49052134Y-92999500D01*
X48823426Y-92999500D01*
X48782968Y-93005908D01*
X48597533Y-93035278D01*
X48597530Y-93035278D01*
X48380024Y-93105950D01*
X48176241Y-93209783D01*
X47993539Y-93342525D01*
X47927732Y-93366005D01*
X47859678Y-93350180D01*
X47810983Y-93300074D01*
X47804470Y-93285538D01*
X47794076Y-93257669D01*
X47794073Y-93257664D01*
X47707827Y-93142455D01*
X47707824Y-93142452D01*
X47592615Y-93056206D01*
X47592608Y-93056202D01*
X47457762Y-93005908D01*
X47457763Y-93005908D01*
X47398163Y-92999501D01*
X47398161Y-92999500D01*
X47398153Y-92999500D01*
X47398144Y-92999500D01*
X45397409Y-92999500D01*
X45397403Y-92999501D01*
X45337796Y-93005908D01*
X45202951Y-93056202D01*
X45202944Y-93056206D01*
X45087735Y-93142452D01*
X45087732Y-93142455D01*
X45001486Y-93257664D01*
X45001482Y-93257671D01*
X44951188Y-93392517D01*
X44944781Y-93452116D01*
X44944780Y-93452135D01*
X40750500Y-93452135D01*
X40750500Y-89249993D01*
X149914968Y-89249993D01*
X149914968Y-89250006D01*
X149935086Y-89723631D01*
X149995304Y-90193874D01*
X150095181Y-90657306D01*
X150095183Y-90657314D01*
X150233999Y-91110598D01*
X150234004Y-91110612D01*
X150410755Y-91550471D01*
X150410759Y-91550482D01*
X150624179Y-91973774D01*
X150624189Y-91973794D01*
X150872750Y-92377481D01*
X151154648Y-92758633D01*
X151154654Y-92758641D01*
X151380825Y-93015620D01*
X153172818Y-91223627D01*
X153222208Y-91285560D01*
X153464440Y-91527792D01*
X153526371Y-91577180D01*
X151733983Y-93369568D01*
X151810120Y-93442537D01*
X151810122Y-93442538D01*
X152178952Y-93740348D01*
X152178953Y-93740349D01*
X152571716Y-94005809D01*
X152571735Y-94005821D01*
X152985588Y-94237014D01*
X152985610Y-94237025D01*
X153417579Y-94432288D01*
X153417585Y-94432290D01*
X153864579Y-94590223D01*
X154323351Y-94709677D01*
X154790597Y-94789795D01*
X154790605Y-94789796D01*
X155262946Y-94829999D01*
X155262966Y-94830000D01*
X155737034Y-94830000D01*
X155737053Y-94829999D01*
X156209394Y-94789796D01*
X156209402Y-94789795D01*
X156676648Y-94709677D01*
X157135420Y-94590223D01*
X157582414Y-94432290D01*
X157582420Y-94432288D01*
X158014389Y-94237025D01*
X158014411Y-94237014D01*
X158428264Y-94005821D01*
X158428283Y-94005809D01*
X158821039Y-93740353D01*
X159189886Y-93442531D01*
X159266015Y-93369568D01*
X157473628Y-91577181D01*
X157535560Y-91527792D01*
X157777792Y-91285560D01*
X157827181Y-91223628D01*
X159619173Y-93015620D01*
X159845346Y-92758638D01*
X159845360Y-92758621D01*
X160127249Y-92377481D01*
X160375810Y-91973794D01*
X160375820Y-91973774D01*
X160589240Y-91550482D01*
X160589244Y-91550471D01*
X160765995Y-91110612D01*
X160766000Y-91110598D01*
X160904816Y-90657314D01*
X160904818Y-90657306D01*
X161004695Y-90193874D01*
X161064913Y-89723631D01*
X161085032Y-89250006D01*
X161085032Y-89249993D01*
X161064913Y-88776368D01*
X161004695Y-88306125D01*
X160904818Y-87842693D01*
X160904816Y-87842685D01*
X160766000Y-87389401D01*
X160765995Y-87389387D01*
X160589244Y-86949528D01*
X160589240Y-86949517D01*
X160375820Y-86526225D01*
X160375810Y-86526205D01*
X160127249Y-86122518D01*
X159845351Y-85741366D01*
X159845345Y-85741358D01*
X159619173Y-85484378D01*
X157827180Y-87276371D01*
X157777792Y-87214440D01*
X157535560Y-86972208D01*
X157473626Y-86922818D01*
X159266015Y-85130430D01*
X159189879Y-85057462D01*
X159189877Y-85057461D01*
X158821047Y-84759651D01*
X158821046Y-84759650D01*
X158428283Y-84494190D01*
X158428264Y-84494178D01*
X158014411Y-84262985D01*
X158014389Y-84262974D01*
X157582420Y-84067711D01*
X157582414Y-84067709D01*
X157135420Y-83909776D01*
X156676648Y-83790322D01*
X156209402Y-83710204D01*
X156209394Y-83710203D01*
X155737053Y-83670000D01*
X155262946Y-83670000D01*
X154790605Y-83710203D01*
X154790597Y-83710204D01*
X154323351Y-83790322D01*
X153864579Y-83909776D01*
X153417585Y-84067709D01*
X153417579Y-84067711D01*
X152985610Y-84262974D01*
X152985588Y-84262985D01*
X152571735Y-84494178D01*
X152571716Y-84494190D01*
X152178953Y-84759650D01*
X152178952Y-84759651D01*
X151810123Y-85057460D01*
X151810107Y-85057474D01*
X151733984Y-85130431D01*
X153526371Y-86922818D01*
X153464440Y-86972208D01*
X153222208Y-87214440D01*
X153172818Y-87276371D01*
X151380826Y-85484379D01*
X151154648Y-85741366D01*
X151154645Y-85741370D01*
X150872750Y-86122518D01*
X150624189Y-86526205D01*
X150624179Y-86526225D01*
X150410759Y-86949517D01*
X150410755Y-86949528D01*
X150234004Y-87389387D01*
X150233999Y-87389401D01*
X150095183Y-87842685D01*
X150095181Y-87842693D01*
X149995304Y-88306125D01*
X149935086Y-88776368D01*
X149914968Y-89249993D01*
X40750500Y-89249993D01*
X40750500Y-84799972D01*
X40757458Y-84759017D01*
X40785368Y-84679254D01*
X40785369Y-84679249D01*
X40805565Y-84500003D01*
X40805565Y-84499996D01*
X40785369Y-84320750D01*
X40785368Y-84320745D01*
X40725788Y-84150476D01*
X40629815Y-83997737D01*
X40502262Y-83870184D01*
X40349523Y-83774211D01*
X40179254Y-83714631D01*
X40179249Y-83714630D01*
X40000004Y-83694435D01*
X39999996Y-83694435D01*
X39820750Y-83714630D01*
X39820745Y-83714631D01*
X39650476Y-83774211D01*
X39497737Y-83870184D01*
X39370184Y-83997737D01*
X39274211Y-84150476D01*
X39214631Y-84320745D01*
X39214630Y-84320750D01*
X39194435Y-84499996D01*
X33993112Y-84499996D01*
X33905304Y-84092568D01*
X33766473Y-83639237D01*
X33589697Y-83199312D01*
X33504684Y-83030700D01*
X33492079Y-82961977D01*
X33518629Y-82897348D01*
X33527716Y-82887202D01*
X36914921Y-79499998D01*
X68884645Y-79499998D01*
X68884645Y-79500001D01*
X68904039Y-79771160D01*
X68904040Y-79771167D01*
X68961823Y-80036793D01*
X68961825Y-80036801D01*
X69007514Y-80159297D01*
X69056830Y-80291519D01*
X69187109Y-80530107D01*
X69187110Y-80530108D01*
X69187113Y-80530113D01*
X69350029Y-80747742D01*
X69350033Y-80747746D01*
X69350038Y-80747752D01*
X69542247Y-80939961D01*
X69542253Y-80939966D01*
X69542258Y-80939971D01*
X69759887Y-81102887D01*
X69759891Y-81102889D01*
X69759892Y-81102890D01*
X69998481Y-81233169D01*
X69998480Y-81233169D01*
X69998484Y-81233170D01*
X69998487Y-81233172D01*
X70253199Y-81328175D01*
X70518840Y-81385961D01*
X70770605Y-81403967D01*
X70789999Y-81405355D01*
X70790000Y-81405355D01*
X70790001Y-81405355D01*
X70808100Y-81404060D01*
X71061160Y-81385961D01*
X71326801Y-81328175D01*
X71581513Y-81233172D01*
X71581517Y-81233169D01*
X71581519Y-81233169D01*
X71700813Y-81168029D01*
X71820113Y-81102887D01*
X72037742Y-80939971D01*
X72229971Y-80747742D01*
X72392887Y-80530113D01*
X72509120Y-80317247D01*
X72523169Y-80291519D01*
X72523169Y-80291517D01*
X72523172Y-80291513D01*
X72618175Y-80036801D01*
X72675961Y-79771160D01*
X72695355Y-79500000D01*
X72695355Y-79499998D01*
X98094645Y-79499998D01*
X98094645Y-79500001D01*
X98114039Y-79771160D01*
X98114040Y-79771167D01*
X98171823Y-80036793D01*
X98171825Y-80036801D01*
X98217514Y-80159297D01*
X98266830Y-80291519D01*
X98397109Y-80530107D01*
X98397110Y-80530108D01*
X98397113Y-80530113D01*
X98560029Y-80747742D01*
X98560033Y-80747746D01*
X98560038Y-80747752D01*
X98752247Y-80939961D01*
X98752253Y-80939966D01*
X98752258Y-80939971D01*
X98969887Y-81102887D01*
X98969891Y-81102889D01*
X98969892Y-81102890D01*
X99208481Y-81233169D01*
X99208480Y-81233169D01*
X99208484Y-81233170D01*
X99208487Y-81233172D01*
X99463199Y-81328175D01*
X99728840Y-81385961D01*
X99980605Y-81403967D01*
X99999999Y-81405355D01*
X100000000Y-81405355D01*
X100000001Y-81405355D01*
X100018100Y-81404060D01*
X100271160Y-81385961D01*
X100536801Y-81328175D01*
X100791513Y-81233172D01*
X100791517Y-81233169D01*
X100791519Y-81233169D01*
X100910813Y-81168029D01*
X101030113Y-81102887D01*
X101247742Y-80939971D01*
X101439971Y-80747742D01*
X101602887Y-80530113D01*
X101719120Y-80317247D01*
X101733169Y-80291519D01*
X101733169Y-80291517D01*
X101733172Y-80291513D01*
X101828175Y-80036801D01*
X101885961Y-79771160D01*
X101905355Y-79500000D01*
X101885961Y-79228840D01*
X101828175Y-78963199D01*
X101733172Y-78708487D01*
X101733170Y-78708484D01*
X101733169Y-78708480D01*
X101602890Y-78469892D01*
X101602889Y-78469891D01*
X101602887Y-78469887D01*
X101439971Y-78252258D01*
X101439966Y-78252253D01*
X101439961Y-78252247D01*
X101247752Y-78060038D01*
X101247746Y-78060033D01*
X101247742Y-78060029D01*
X101030113Y-77897113D01*
X101030108Y-77897110D01*
X101030107Y-77897109D01*
X100791518Y-77766830D01*
X100791519Y-77766830D01*
X100721598Y-77740751D01*
X100536801Y-77671825D01*
X100536794Y-77671823D01*
X100536793Y-77671823D01*
X100271167Y-77614040D01*
X100271160Y-77614039D01*
X100000001Y-77594645D01*
X99999999Y-77594645D01*
X99728839Y-77614039D01*
X99728832Y-77614040D01*
X99463206Y-77671823D01*
X99463202Y-77671824D01*
X99463199Y-77671825D01*
X99335843Y-77719326D01*
X99208480Y-77766830D01*
X98969892Y-77897109D01*
X98969891Y-77897110D01*
X98752259Y-78060028D01*
X98752247Y-78060038D01*
X98560038Y-78252247D01*
X98560028Y-78252259D01*
X98397110Y-78469891D01*
X98397109Y-78469892D01*
X98266830Y-78708480D01*
X98236316Y-78790293D01*
X98171825Y-78963199D01*
X98171824Y-78963202D01*
X98171823Y-78963206D01*
X98114040Y-79228832D01*
X98114039Y-79228839D01*
X98094645Y-79499998D01*
X72695355Y-79499998D01*
X72675961Y-79228840D01*
X72618175Y-78963199D01*
X72523172Y-78708487D01*
X72523170Y-78708484D01*
X72523169Y-78708480D01*
X72392890Y-78469892D01*
X72392889Y-78469891D01*
X72392887Y-78469887D01*
X72229971Y-78252258D01*
X72229966Y-78252253D01*
X72229961Y-78252247D01*
X72037752Y-78060038D01*
X72037746Y-78060033D01*
X72037742Y-78060029D01*
X71820113Y-77897113D01*
X71820108Y-77897110D01*
X71820107Y-77897109D01*
X71581518Y-77766830D01*
X71581519Y-77766830D01*
X71511598Y-77740751D01*
X71326801Y-77671825D01*
X71326794Y-77671823D01*
X71326793Y-77671823D01*
X71061167Y-77614040D01*
X71061160Y-77614039D01*
X70790001Y-77594645D01*
X70789999Y-77594645D01*
X70518839Y-77614039D01*
X70518832Y-77614040D01*
X70253206Y-77671823D01*
X70253202Y-77671824D01*
X70253199Y-77671825D01*
X70125843Y-77719326D01*
X69998480Y-77766830D01*
X69759892Y-77897109D01*
X69759891Y-77897110D01*
X69542259Y-78060028D01*
X69542247Y-78060038D01*
X69350038Y-78252247D01*
X69350028Y-78252259D01*
X69187110Y-78469891D01*
X69187109Y-78469892D01*
X69056830Y-78708480D01*
X69026316Y-78790293D01*
X68961825Y-78963199D01*
X68961824Y-78963202D01*
X68961823Y-78963206D01*
X68904040Y-79228832D01*
X68904039Y-79228839D01*
X68884645Y-79499998D01*
X36914921Y-79499998D01*
X43164928Y-73249993D01*
X149914467Y-73249993D01*
X149914467Y-73250006D01*
X149934587Y-73723673D01*
X149994810Y-74193961D01*
X150094696Y-74657432D01*
X150094698Y-74657440D01*
X150233527Y-75110765D01*
X150233529Y-75110770D01*
X150410298Y-75550677D01*
X150410302Y-75550688D01*
X150623741Y-75974018D01*
X150623751Y-75974036D01*
X150872332Y-76377758D01*
X151154256Y-76758944D01*
X151154261Y-76758949D01*
X151154262Y-76758951D01*
X151467489Y-77114846D01*
X151809788Y-77442913D01*
X151809790Y-77442914D01*
X152178654Y-77740751D01*
X152178655Y-77740752D01*
X152217236Y-77766828D01*
X152571464Y-78006244D01*
X152667742Y-78060028D01*
X152985362Y-78237462D01*
X152985384Y-78237473D01*
X153417391Y-78432752D01*
X153417398Y-78432755D01*
X153864429Y-78590701D01*
X154323244Y-78710167D01*
X154790538Y-78790293D01*
X154936774Y-78802739D01*
X155262924Y-78830499D01*
X155262941Y-78830499D01*
X155262943Y-78830500D01*
X155262944Y-78830500D01*
X155737056Y-78830500D01*
X155737057Y-78830500D01*
X155737058Y-78830499D01*
X155737075Y-78830499D01*
X156018242Y-78806567D01*
X156209462Y-78790293D01*
X156676756Y-78710167D01*
X157135571Y-78590701D01*
X157582602Y-78432755D01*
X157884810Y-78296148D01*
X158014615Y-78237473D01*
X158014617Y-78237471D01*
X158014628Y-78237467D01*
X158428536Y-78006244D01*
X158821343Y-77740753D01*
X159190209Y-77442914D01*
X159190211Y-77442913D01*
X159190215Y-77442908D01*
X159190220Y-77442905D01*
X159532510Y-77114847D01*
X159845744Y-76758944D01*
X160127668Y-76377758D01*
X160376249Y-75974036D01*
X160589697Y-75550688D01*
X160766473Y-75110763D01*
X160905304Y-74657432D01*
X161005190Y-74193960D01*
X161065411Y-73723686D01*
X161066719Y-73692914D01*
X161085533Y-73250006D01*
X161085533Y-73249993D01*
X161065412Y-72776326D01*
X161065411Y-72776320D01*
X161065411Y-72776314D01*
X161005190Y-72306040D01*
X160905304Y-71842568D01*
X160766473Y-71389237D01*
X160589697Y-70949312D01*
X160589697Y-70949311D01*
X160376258Y-70525981D01*
X160376247Y-70525961D01*
X160325757Y-70443960D01*
X160127668Y-70122242D01*
X159845744Y-69741056D01*
X159787100Y-69674424D01*
X159532510Y-69385153D01*
X159190211Y-69057086D01*
X159190209Y-69057085D01*
X158821345Y-68759248D01*
X158821344Y-68759247D01*
X158428546Y-68493763D01*
X158428536Y-68493756D01*
X158417662Y-68487681D01*
X158014637Y-68262537D01*
X158014615Y-68262526D01*
X157582608Y-68067247D01*
X157135566Y-67909297D01*
X156676754Y-67789832D01*
X156209472Y-67709708D01*
X156209446Y-67709705D01*
X155737075Y-67669500D01*
X155737057Y-67669500D01*
X155262943Y-67669500D01*
X155262924Y-67669500D01*
X154790553Y-67709705D01*
X154790527Y-67709708D01*
X154323245Y-67789832D01*
X153864433Y-67909297D01*
X153417391Y-68067247D01*
X152985384Y-68262526D01*
X152985362Y-68262537D01*
X152571472Y-68493751D01*
X152571453Y-68493763D01*
X152178655Y-68759247D01*
X152178654Y-68759248D01*
X151809790Y-69057085D01*
X151809788Y-69057086D01*
X151467489Y-69385153D01*
X151154262Y-69741048D01*
X151154256Y-69741055D01*
X151154256Y-69741056D01*
X151085980Y-69833371D01*
X150872331Y-70122243D01*
X150623752Y-70525961D01*
X150623741Y-70525981D01*
X150410302Y-70949311D01*
X150410298Y-70949322D01*
X150233529Y-71389229D01*
X150233527Y-71389234D01*
X150094698Y-71842559D01*
X150094696Y-71842567D01*
X149994810Y-72306038D01*
X149934587Y-72776326D01*
X149914467Y-73249993D01*
X43164928Y-73249993D01*
X44878102Y-71536819D01*
X44939425Y-71503334D01*
X44965783Y-71500500D01*
X48675501Y-71500500D01*
X48742540Y-71520185D01*
X48788295Y-71572989D01*
X48799501Y-71624500D01*
X48799501Y-71747876D01*
X48805908Y-71807483D01*
X48856202Y-71942328D01*
X48856206Y-71942335D01*
X48942452Y-72057544D01*
X48942455Y-72057547D01*
X49057664Y-72143793D01*
X49057671Y-72143797D01*
X49192517Y-72194091D01*
X49192516Y-72194091D01*
X49199444Y-72194835D01*
X49252127Y-72200500D01*
X51747872Y-72200499D01*
X51807483Y-72194091D01*
X51942331Y-72143796D01*
X52057546Y-72057546D01*
X52143796Y-71942331D01*
X52194091Y-71807483D01*
X52200500Y-71747873D01*
X52200499Y-70499995D01*
X56295233Y-70499995D01*
X56295233Y-70500004D01*
X56314273Y-70754079D01*
X56370968Y-71002477D01*
X56370973Y-71002494D01*
X56464058Y-71239671D01*
X56464057Y-71239671D01*
X56591457Y-71460332D01*
X56633452Y-71512993D01*
X57435387Y-70711058D01*
X57440889Y-70731591D01*
X57519881Y-70868408D01*
X57631592Y-70980119D01*
X57768409Y-71059111D01*
X57788940Y-71064612D01*
X56986813Y-71866737D01*
X57147623Y-71976375D01*
X57147624Y-71976376D01*
X57377176Y-72086921D01*
X57377174Y-72086921D01*
X57620652Y-72162024D01*
X57620658Y-72162026D01*
X57872595Y-72199999D01*
X57872604Y-72200000D01*
X58127396Y-72200000D01*
X58127404Y-72199999D01*
X58379341Y-72162026D01*
X58379347Y-72162024D01*
X58622824Y-72086921D01*
X58852381Y-71976373D01*
X59013185Y-71866737D01*
X58211059Y-71064612D01*
X58231591Y-71059111D01*
X58368408Y-70980119D01*
X58480119Y-70868408D01*
X58559111Y-70731591D01*
X58564612Y-70711060D01*
X59366545Y-71512993D01*
X59408545Y-71460327D01*
X59535941Y-71239671D01*
X59629026Y-71002494D01*
X59629031Y-71002477D01*
X59685726Y-70754079D01*
X59704767Y-70500004D01*
X59704767Y-70499995D01*
X59685726Y-70245920D01*
X59629031Y-69997522D01*
X59629026Y-69997505D01*
X59535941Y-69760328D01*
X59535942Y-69760328D01*
X59408544Y-69539671D01*
X59366546Y-69487006D01*
X58564612Y-70288939D01*
X58559111Y-70268409D01*
X58480119Y-70131592D01*
X58368408Y-70019881D01*
X58231591Y-69940889D01*
X58211058Y-69935387D01*
X59013185Y-69133261D01*
X58852377Y-69023624D01*
X58852376Y-69023623D01*
X58622823Y-68913078D01*
X58622825Y-68913078D01*
X58379347Y-68837975D01*
X58379341Y-68837973D01*
X58127404Y-68800000D01*
X57872595Y-68800000D01*
X57620658Y-68837973D01*
X57620652Y-68837975D01*
X57377175Y-68913078D01*
X57147624Y-69023623D01*
X57147616Y-69023628D01*
X56986813Y-69133261D01*
X57788940Y-69935387D01*
X57768409Y-69940889D01*
X57631592Y-70019881D01*
X57519881Y-70131592D01*
X57440889Y-70268409D01*
X57435387Y-70288940D01*
X56633453Y-69487006D01*
X56591455Y-69539670D01*
X56464058Y-69760328D01*
X56370973Y-69997505D01*
X56370968Y-69997522D01*
X56314273Y-70245920D01*
X56295233Y-70499995D01*
X52200499Y-70499995D01*
X52200499Y-69252128D01*
X52194091Y-69192517D01*
X52143796Y-69057669D01*
X52143795Y-69057668D01*
X52143793Y-69057664D01*
X52057547Y-68942455D01*
X52057544Y-68942452D01*
X51942335Y-68856206D01*
X51942328Y-68856202D01*
X51807482Y-68805908D01*
X51807483Y-68805908D01*
X51747883Y-68799501D01*
X51747881Y-68799500D01*
X51747873Y-68799500D01*
X51747864Y-68799500D01*
X49252129Y-68799500D01*
X49252123Y-68799501D01*
X49192516Y-68805908D01*
X49057671Y-68856202D01*
X49057664Y-68856206D01*
X48942455Y-68942452D01*
X48942452Y-68942455D01*
X48856206Y-69057664D01*
X48856202Y-69057671D01*
X48805908Y-69192517D01*
X48799501Y-69252116D01*
X48799501Y-69252123D01*
X48799500Y-69252135D01*
X48799500Y-69375500D01*
X48779815Y-69442539D01*
X48727011Y-69488294D01*
X48675500Y-69499500D01*
X44401455Y-69499500D01*
X44304812Y-69518724D01*
X44208171Y-69537947D01*
X44208163Y-69537949D01*
X44157903Y-69558768D01*
X44157902Y-69558768D01*
X44026092Y-69613364D01*
X44026079Y-69613371D01*
X43934709Y-69674424D01*
X43862216Y-69722861D01*
X43862213Y-69722864D01*
X32317613Y-81267465D01*
X32256290Y-81300950D01*
X32186598Y-81295966D01*
X32152033Y-81276260D01*
X31821345Y-81009248D01*
X31821344Y-81009247D01*
X31434433Y-80747742D01*
X31428536Y-80743756D01*
X31417662Y-80737681D01*
X31014637Y-80512537D01*
X31014615Y-80512526D01*
X30582608Y-80317247D01*
X30135566Y-80159297D01*
X29676754Y-80039832D01*
X29209472Y-79959708D01*
X29209446Y-79959705D01*
X28737075Y-79919500D01*
X28737057Y-79919500D01*
X28262943Y-79919500D01*
X28262924Y-79919500D01*
X27790553Y-79959705D01*
X27790527Y-79959708D01*
X27323245Y-80039832D01*
X26864433Y-80159297D01*
X26417391Y-80317247D01*
X25985384Y-80512526D01*
X25985362Y-80512537D01*
X25571472Y-80743751D01*
X25571453Y-80743763D01*
X25178655Y-81009247D01*
X25178654Y-81009248D01*
X24809790Y-81307085D01*
X24809788Y-81307086D01*
X24467489Y-81635153D01*
X24154262Y-81991048D01*
X23872331Y-82372243D01*
X23623752Y-82775961D01*
X23623741Y-82775981D01*
X23410302Y-83199311D01*
X23410298Y-83199322D01*
X23233529Y-83639229D01*
X23233527Y-83639234D01*
X23094698Y-84092559D01*
X23094696Y-84092567D01*
X22994810Y-84556038D01*
X22934587Y-85026326D01*
X22914467Y-85499993D01*
X20500500Y-85499993D01*
X20500500Y-69499993D01*
X22914467Y-69499993D01*
X22914467Y-69500006D01*
X22934587Y-69973673D01*
X22994810Y-70443961D01*
X23094696Y-70907432D01*
X23094698Y-70907440D01*
X23233527Y-71360765D01*
X23233529Y-71360770D01*
X23410298Y-71800677D01*
X23410302Y-71800688D01*
X23623741Y-72224018D01*
X23623752Y-72224038D01*
X23674243Y-72306040D01*
X23872332Y-72627758D01*
X24154256Y-73008944D01*
X24154261Y-73008949D01*
X24154262Y-73008951D01*
X24467489Y-73364846D01*
X24809788Y-73692913D01*
X24809790Y-73692914D01*
X25178654Y-73990751D01*
X25178655Y-73990752D01*
X25329322Y-74092584D01*
X25571464Y-74256244D01*
X25755423Y-74359009D01*
X25985362Y-74487462D01*
X25985384Y-74487473D01*
X26417391Y-74682752D01*
X26417398Y-74682755D01*
X26864429Y-74840701D01*
X27323244Y-74960167D01*
X27790538Y-75040293D01*
X27936774Y-75052739D01*
X28262924Y-75080499D01*
X28262941Y-75080499D01*
X28262943Y-75080500D01*
X28262944Y-75080500D01*
X28737056Y-75080500D01*
X28737057Y-75080500D01*
X28737058Y-75080499D01*
X28737075Y-75080499D01*
X29018242Y-75056567D01*
X29209462Y-75040293D01*
X29676756Y-74960167D01*
X30135571Y-74840701D01*
X30582602Y-74682755D01*
X31014628Y-74487467D01*
X31428536Y-74256244D01*
X31821343Y-73990753D01*
X32190209Y-73692914D01*
X32190211Y-73692913D01*
X32190215Y-73692908D01*
X32190220Y-73692905D01*
X32532510Y-73364847D01*
X32845744Y-73008944D01*
X33127668Y-72627758D01*
X33376249Y-72224036D01*
X33589697Y-71800688D01*
X33766473Y-71360763D01*
X33905304Y-70907432D01*
X34005190Y-70443960D01*
X34065411Y-69973686D01*
X34066805Y-69940889D01*
X34085533Y-69500006D01*
X34085533Y-69499993D01*
X34065412Y-69026326D01*
X34065411Y-69026320D01*
X34065411Y-69026314D01*
X34005190Y-68556040D01*
X33905304Y-68092568D01*
X33766473Y-67639237D01*
X33589697Y-67199312D01*
X33589697Y-67199311D01*
X33376258Y-66775981D01*
X33376247Y-66775961D01*
X33127668Y-66372242D01*
X32845744Y-65991056D01*
X32532510Y-65635153D01*
X32190220Y-65307095D01*
X32190211Y-65307086D01*
X32190209Y-65307085D01*
X31821345Y-65009248D01*
X31821344Y-65009247D01*
X31428546Y-64743763D01*
X31428536Y-64743756D01*
X31417662Y-64737681D01*
X31014637Y-64512537D01*
X31014615Y-64512526D01*
X30582608Y-64317247D01*
X30135566Y-64159297D01*
X29676754Y-64039832D01*
X29209472Y-63959708D01*
X29209446Y-63959705D01*
X28737075Y-63919500D01*
X28737057Y-63919500D01*
X28262943Y-63919500D01*
X28262924Y-63919500D01*
X27790553Y-63959705D01*
X27790527Y-63959708D01*
X27323245Y-64039832D01*
X26864433Y-64159297D01*
X26417391Y-64317247D01*
X25985384Y-64512526D01*
X25985362Y-64512537D01*
X25571472Y-64743751D01*
X25571453Y-64743763D01*
X25178655Y-65009247D01*
X25178654Y-65009248D01*
X24809790Y-65307085D01*
X24809788Y-65307086D01*
X24467489Y-65635153D01*
X24154262Y-65991048D01*
X23872331Y-66372243D01*
X23623752Y-66775961D01*
X23623741Y-66775981D01*
X23410302Y-67199311D01*
X23410298Y-67199322D01*
X23233529Y-67639229D01*
X23233527Y-67639234D01*
X23094698Y-68092559D01*
X23094696Y-68092567D01*
X22994810Y-68556038D01*
X22934587Y-69026326D01*
X22914467Y-69499993D01*
X20500500Y-69499993D01*
X20500500Y-61874038D01*
X21899500Y-61874038D01*
X21899500Y-62125961D01*
X21938910Y-62374785D01*
X22016760Y-62614383D01*
X22131132Y-62838848D01*
X22279201Y-63042649D01*
X22279205Y-63042654D01*
X22457345Y-63220794D01*
X22457350Y-63220798D01*
X22635117Y-63349952D01*
X22661155Y-63368870D01*
X22804184Y-63441747D01*
X22885616Y-63483239D01*
X22885618Y-63483239D01*
X22885621Y-63483241D01*
X23125215Y-63561090D01*
X23374038Y-63600500D01*
X23374039Y-63600500D01*
X23625961Y-63600500D01*
X23625962Y-63600500D01*
X23874785Y-63561090D01*
X24114379Y-63483241D01*
X24338845Y-63368870D01*
X24542656Y-63220793D01*
X24720793Y-63042656D01*
X24868870Y-62838845D01*
X24983241Y-62614379D01*
X25061090Y-62374785D01*
X25100500Y-62125962D01*
X25100500Y-61874038D01*
X158399500Y-61874038D01*
X158399500Y-62125961D01*
X158438910Y-62374785D01*
X158516760Y-62614383D01*
X158631132Y-62838848D01*
X158779201Y-63042649D01*
X158779205Y-63042654D01*
X158957345Y-63220794D01*
X158957350Y-63220798D01*
X159135117Y-63349952D01*
X159161155Y-63368870D01*
X159304184Y-63441747D01*
X159385616Y-63483239D01*
X159385618Y-63483239D01*
X159385621Y-63483241D01*
X159625215Y-63561090D01*
X159874038Y-63600500D01*
X159874039Y-63600500D01*
X160125961Y-63600500D01*
X160125962Y-63600500D01*
X160374785Y-63561090D01*
X160614379Y-63483241D01*
X160838845Y-63368870D01*
X161042656Y-63220793D01*
X161220793Y-63042656D01*
X161368870Y-62838845D01*
X161483241Y-62614379D01*
X161561090Y-62374785D01*
X161600500Y-62125962D01*
X161600500Y-61874038D01*
X161561090Y-61625215D01*
X161483241Y-61385621D01*
X161483239Y-61385618D01*
X161483239Y-61385616D01*
X161441747Y-61304184D01*
X161368870Y-61161155D01*
X161349952Y-61135117D01*
X161220798Y-60957350D01*
X161220794Y-60957345D01*
X161042654Y-60779205D01*
X161042649Y-60779201D01*
X160838848Y-60631132D01*
X160838847Y-60631131D01*
X160838845Y-60631130D01*
X160768747Y-60595413D01*
X160614383Y-60516760D01*
X160374785Y-60438910D01*
X160125962Y-60399500D01*
X159874038Y-60399500D01*
X159749626Y-60419205D01*
X159625214Y-60438910D01*
X159385616Y-60516760D01*
X159161151Y-60631132D01*
X158957350Y-60779201D01*
X158957345Y-60779205D01*
X158779205Y-60957345D01*
X158779201Y-60957350D01*
X158631132Y-61161151D01*
X158516760Y-61385616D01*
X158438910Y-61625214D01*
X158399500Y-61874038D01*
X25100500Y-61874038D01*
X25061090Y-61625215D01*
X24983241Y-61385621D01*
X24983239Y-61385618D01*
X24983239Y-61385616D01*
X24941747Y-61304184D01*
X24868870Y-61161155D01*
X24849952Y-61135117D01*
X24720798Y-60957350D01*
X24720794Y-60957345D01*
X24542654Y-60779205D01*
X24542649Y-60779201D01*
X24338848Y-60631132D01*
X24338847Y-60631131D01*
X24338845Y-60631130D01*
X24268747Y-60595413D01*
X24114383Y-60516760D01*
X23874785Y-60438910D01*
X23625962Y-60399500D01*
X23374038Y-60399500D01*
X23249626Y-60419205D01*
X23125214Y-60438910D01*
X22885616Y-60516760D01*
X22661151Y-60631132D01*
X22457350Y-60779201D01*
X22457345Y-60779205D01*
X22279205Y-60957345D01*
X22279201Y-60957350D01*
X22131132Y-61161151D01*
X22016760Y-61385616D01*
X21938910Y-61625214D01*
X21899500Y-61874038D01*
X20500500Y-61874038D01*
X20500500Y-59124500D01*
X20520185Y-59057461D01*
X20572989Y-59011706D01*
X20624500Y-59000500D01*
X162875500Y-59000500D01*
X162942539Y-59020185D01*
G37*
%TD.AperFunction*%
%TD*%
M02*
